<mxfile host="Electron" modified="2024-06-23T17:36:57.869Z" agent="Mozilla/5.0 (X11; Linux x86_64) AppleWebKit/537.36 (KHTML, like Gecko) draw.io/24.6.1 Chrome/124.0.6367.207 Electron/30.0.6 Safari/537.36" etag="CmndY2o_wFX4615DB2Wk" version="24.6.1" type="device">
  <diagram name="Page-1" id="-KzMg1g8sey4OoZ2Sfor">
    <mxGraphModel dx="797" dy="567" grid="1" gridSize="10" guides="1" tooltips="1" connect="1" arrows="1" fold="1" page="1" pageScale="1" pageWidth="850" pageHeight="1100" math="0" shadow="0">
      <root>
        <mxCell id="0" />
        <mxCell id="1" parent="0" />
        <mxCell id="W4ZQf7grJeuH_FmLfWgL-1" value="" style="whiteSpace=wrap;html=1;aspect=fixed;" vertex="1" parent="1">
          <mxGeometry x="360" y="400" width="200" height="200" as="geometry" />
        </mxCell>
        <mxCell id="W4ZQf7grJeuH_FmLfWgL-12" style="rounded=0;orthogonalLoop=1;jettySize=auto;html=1;exitX=0.5;exitY=0;exitDx=0;exitDy=0;entryX=0.5;entryY=1;entryDx=0;entryDy=0;" edge="1" parent="1" source="W4ZQf7grJeuH_FmLfWgL-6">
          <mxGeometry relative="1" as="geometry">
            <mxPoint x="460" y="360" as="targetPoint" />
          </mxGeometry>
        </mxCell>
        <mxCell id="W4ZQf7grJeuH_FmLfWgL-6" value="" style="rounded=0;whiteSpace=wrap;html=1;fillColor=#d5e8d4;strokeColor=#000000;" vertex="1" parent="1">
          <mxGeometry x="360" y="400" width="100" height="100" as="geometry" />
        </mxCell>
        <mxCell id="W4ZQf7grJeuH_FmLfWgL-13" style="rounded=0;orthogonalLoop=1;jettySize=auto;html=1;exitX=1;exitY=0.5;exitDx=0;exitDy=0;entryX=0;entryY=0.5;entryDx=0;entryDy=0;" edge="1" parent="1" source="W4ZQf7grJeuH_FmLfWgL-7">
          <mxGeometry relative="1" as="geometry">
            <mxPoint x="600.0000000000005" y="500" as="targetPoint" />
          </mxGeometry>
        </mxCell>
        <mxCell id="W4ZQf7grJeuH_FmLfWgL-7" value="" style="rounded=0;whiteSpace=wrap;html=1;fillColor=#fff2cc;strokeColor=#000000;" vertex="1" parent="1">
          <mxGeometry x="460" y="400" width="100" height="100" as="geometry" />
        </mxCell>
        <mxCell id="W4ZQf7grJeuH_FmLfWgL-11" style="rounded=0;orthogonalLoop=1;jettySize=auto;html=1;exitX=0;exitY=0.5;exitDx=0;exitDy=0;entryX=1;entryY=0.5;entryDx=0;entryDy=0;" edge="1" parent="1" source="W4ZQf7grJeuH_FmLfWgL-8">
          <mxGeometry relative="1" as="geometry">
            <mxPoint x="319.99999999999955" y="500" as="targetPoint" />
          </mxGeometry>
        </mxCell>
        <mxCell id="W4ZQf7grJeuH_FmLfWgL-8" value="" style="rounded=0;whiteSpace=wrap;html=1;fillColor=#ffe6cc;strokeColor=#000000;" vertex="1" parent="1">
          <mxGeometry x="360" y="500" width="100" height="100" as="geometry" />
        </mxCell>
        <mxCell id="W4ZQf7grJeuH_FmLfWgL-10" style="rounded=0;orthogonalLoop=1;jettySize=auto;html=1;exitX=0.5;exitY=1;exitDx=0;exitDy=0;entryX=0.5;entryY=0;entryDx=0;entryDy=0;" edge="1" parent="1" source="W4ZQf7grJeuH_FmLfWgL-9">
          <mxGeometry relative="1" as="geometry">
            <mxPoint x="460" y="640" as="targetPoint" />
          </mxGeometry>
        </mxCell>
        <mxCell id="W4ZQf7grJeuH_FmLfWgL-9" value="" style="rounded=0;whiteSpace=wrap;html=1;fillColor=#dae8fc;strokeColor=#000000;" vertex="1" parent="1">
          <mxGeometry x="460" y="500" width="100" height="100" as="geometry" />
        </mxCell>
        <mxCell id="W4ZQf7grJeuH_FmLfWgL-14" value="" style="rounded=0;whiteSpace=wrap;html=1;fillColor=#d5e8d4;strokeColor=#000000;" vertex="1" parent="1">
          <mxGeometry x="400" y="280" width="120" height="80" as="geometry" />
        </mxCell>
        <mxCell id="W4ZQf7grJeuH_FmLfWgL-16" value="" style="rounded=0;whiteSpace=wrap;html=1;fillColor=#fff2cc;strokeColor=#000000;" vertex="1" parent="1">
          <mxGeometry x="600" y="460" width="120" height="80" as="geometry" />
        </mxCell>
        <mxCell id="W4ZQf7grJeuH_FmLfWgL-17" value="" style="rounded=0;whiteSpace=wrap;html=1;fillColor=#dae8fc;strokeColor=#000000;" vertex="1" parent="1">
          <mxGeometry x="400" y="640" width="120" height="80" as="geometry" />
        </mxCell>
        <mxCell id="W4ZQf7grJeuH_FmLfWgL-18" value="" style="rounded=0;whiteSpace=wrap;html=1;fillColor=#ffe6cc;strokeColor=#000000;" vertex="1" parent="1">
          <mxGeometry x="200" y="460" width="120" height="80" as="geometry" />
        </mxCell>
        <mxCell id="W4ZQf7grJeuH_FmLfWgL-19" value="" style="shape=image;verticalLabelPosition=bottom;labelBackgroundColor=default;verticalAlign=top;aspect=fixed;imageAspect=0;image=data:image/png,iVBORw0KGgoAAAANSUhEUgAAAgAAAAIACAYAAAD0eNT6AAAABHNCSVQICAgIfAhkiAAAAAlwSFlzAAAOxAAADsQBlSsOGwAAABl0RVh0U29mdHdhcmUAd3d3Lmlua3NjYXBlLm9yZ5vuPBoAACAASURBVHic7d13tB1lvf/xdyARQwApkVBFAujFCoTuRUXBio1iQRcqakQvqCgWLl4LKqjLa+UqQbFQlB9guYgFFBFB6U0lIEiVBAKISaip5/fHc3KNh3NO9t7znXn27Of9WmtWWJr5zndP9p757JnZzwOSJEmSJEmSJEmSJEmSJEmSJEmSJEmSJEmSJEmSJEmSJEmSJEmSJEmSJEmSJEmSJEmSJEmSJEmSJEmtNBE4GPgVMA9YBNwKfBvYOWNfuawFfAD4A3A/8DBwA/AVYOuMfeWyIfBp4GrgweHlKuBTw/9fabYBvkp6TzxMeo/8gfSemZKxr1x2Ab5DOmYsIh1DfgW8lXRskdSntgL+BAyNsSwHjgMm5WqwYbsDcxh7fywGjsjWXfMOABYy9v5YCOyfrbvmfYj0Hhhrf9wJ7Jatu2ZNAr5OOkaMtT+uJR1jJPWZzYC5jP3hXXk5JVOPTdqJ9I2uk/1xVKYem3QA4x/cVw6JJYSA/6Kz98ZDwIxMPTZlAnAqne2POcCmedqUNJZf0NkHeMXyhjxtNmIScBOd74tlwA5ZOm3Ghoz/zX/ksgB4YpZOm7EjnYWhFctfGOyrZm+ku2PH2XnalDSaHejuAzxEulUwqLo9oA0Bp2fptBmfpvv9cXSWTptxJt3vj0EOzNfR/f7YLkunkh7jY3T/AR4CtszRbAN+QPf74gEG9yGna+h+f1yVpdP6TSQ9+Njt/jg1R7MNmE5vx46P5mhWsVbL3YBC9Po0+6A+0NPL/lgLmBbdSJ/o5d95UH8hsTG9Pd0/qPuj19c1qPujKAaAwdDrz5XWCe2if7g//tVaPayzdngX/aGXfQHuj5EGdX8UxQAgSVKBDACSJBXIACBJUoEMAJIkFcgAIElSgQwAkiQVyAAgSVKBDACSJBXIACBJUoEMAJIkFcgAIElSgQwAkiQVyAAgSVKBDACSJBXIACBJUoEMAJIkFcgAIElSgQwAkiQVyAAgSVKBDACSJBXIACBJUoEMAJIkFcgAIElSgQwAkiQVyAAgSVKBDACSJBXIACBJUoEm5m6gQZOBFwEzgA2BCXnbCbV9j+sdArw4spE+sXGP630CmB/YR9vNyt1ADdbtcb2NGcz9sWWP623PYO2PIWAecBVwLvBI3naaMUgnwfEcDBxLOvFLkjSWecCRwHdyN1K31XM30IAvkk7+U3I3Iknqe2sBrwLWJl0NGFiDHgDeRjr5S5LUjd2B24FrcjdSl0G+BTAZuA0v+0uSenM36TmJR3M3UodB/hXAi/HkL0nq3UbAXrmbqMsgB4AZuRuQJLXejrkbqMsgB4CpuRuQJLXetNwN1GWQA8AgvzZJUjMG9lwysC9MkiSNzQAgSVKBDACSJBXIACBJUoEMAJIkFaik2QA7dQpwYe4mJEmh9gDelLuJfmIAeKwLgRNyNyFJCmcAWIm3ACRJKpABQJKkAhkAJEkqkAFAkqQCGQAkSSqQAUCSpAIZACRJKpABQJKkAhkAJEkqkAFAkqQCGQAkSSqQAUCSpAIZACRJKpABQJKkAhkAJEkqkAFAkqQCGQAkSSqQAUCSpAIZACRJKpABQJKkAk3M3UDBJgMvAmYAGwIT8rbzL5YCdwEXAhcBy/K2I6kHqwN7AP8ObEx/He+HgHnAVcC5wCN52ylTP70hSnIwcCzpxN/vZgOHAb/J3Yikjr0Q+Bqwbe5GOjAPOBL4Tu5GSuMtgOZ9ETiRdpz8AZ4GnAMclLsRSR15M/BL2nHyB5gGfBv4Qu5GSmMAaNbbgMNzN9GDicA3gR1zNyJpXDuTPqttvLr7AeAtuZsoiQGgOZOBY3I3UcHjgM/lbkLSuD4HTMrdRAXHAo/P3UQpDADNeTHtuew/lj2BzXI3IWlUmwLPy91ERRsBe+VuohQGgObMyN1AgAnA9rmbkDSqneivXxP1yluNDTEANGdq7gaCrJ+7AUmjekLuBoJMy91AKQwAzRmUfX137gYkjeqe3A0EGZRjZd9zR6sbS4BLczchaVR/ABbnbkLtYQBQN04D5uduQtKoFgBn5m5C7WEAUKfuBf4zdxOSxnUkcF/uJtQOBgB14l7glcCduRuRNK47SJ9VQ4BWyQCg8SwGTgF2AC7J3IukzlxM+syeis8EaBxtHC6yNKeQZuVr0hJgLumkv6DhbUuq7m/Am4D/AHYFNqH5EQL3GO5BfcoA0P8uBE7I3YSkVlpAmswrFwNAH/MWgCRJBTIASJJUIAOAJEkFMgBIklQgA4AkSQUyAEiSVCADgCRJBap7HIAdgH2ArYDJNW9rpBkNb0+SNHj2Ak5veJuPAH8FzgaurmsjdQWAzYBvAi+pqb4kSU2YPrzkcDTwC+AdwJzo4nXcAtgKuAxP/pIkVfVS0jk1PIREB4CJwE+AjYPrSpJUqk2AHxN81T46ABwEPCO4piRJpXsWwXMrRAeANwTXkyRJSeg5NjoAbBdcT5IkJaHn2OgAsHZwPUmSlKwTWSw6ANwVXE+SJCVzI4tFB4Dzg+tJkqTkN5HFogPA8cBQcE1Jkko3BMyKLBgdAC4Dvh5cU5Kk0h0HXBFZsI6RAA8HTq2hriRJJToZ+EB00ToCwBLSYAUHAtfVUF+SpBL8GXg9aZC9JdHF65wN8AfDy5ak+QHWq3Fbo5lJmsVJkqRe/Ro4oeFt/gO4Gbi1zo3UPR0wpBdQ64sYgyd/SVJVtwBn5G6iDnXcApAkSX3OACBJUoEMAJIkFcgAIElSgQwAzVna43rhP/2QpAb0euzymNcQA0Bzep0oKXTyB0lqyN09ruekcg0xADTnwh7WWQJcGt2IJDXgD8DiHta7ILoRjc4A0JyLgNldrnMaML+GXiSpbguAM7tc58/AxTX0olEYAJqzDDiUzp8FuBf4z/rakaTaHQnc1+HfXUo6Ri6rrx2tzADQrPOBg1n1ZbF7gVcCd9bekSTV5w7SsWxVIWAR8Fa8/N8oA0DzTgZ2B84jze+8ssXAKcAOwCUN9yVJdbiYdEw7lcd++RkijbW/O+nYpwY1MReAHutK0lwFm5I+GOuTnpi9hHTfTJIGyd9Is8T+B7ArsBFwP+lY6C+dMjEA5DVneJGkEiwAzsndhBJvAUiSVCADgCRJBTIASJJUIAOAJEkFMgBIklQgA4AkSQUyAEiSVCADgCRJBTIASJJUIAOAJEkFMgBIklQgA4AkSQUyAEiSVCADgCRJBTIASJJUIAOAJEkFMgBIklQgA4AkSQUyAEiSVCADgCRJBTIASJJUIAOAJEkFMgBIklQgA4AkSQUyAEiSVCADgCRJBTIASJJUIAOAJEkFMgBIklQgA4AkSQUyAEiSVCADgCRJBTIASJJUIAOAJEkFMgBIklQgA4AkSQUyAEiSVCADgCRJBTIASJJUoIk11p4EvBZ4BbAlMLXGbY2m6e1JkgbP64G9Gt7mfcCtwFnAGcCShrdfyU7ATcBQC5eZNewPSVJeM8l/fulluRGYUcP+qOUWwO7ABcDWNdSWJKkk2wC/A3aNLhwdANYiXa6YHFxXkqRSrQmcCUyJLBodAA4BNgmuKUlS6TYF3hlZMDoA7BtcT5IkJaHn2OgAsG1wPUmSlDwtslh0AFgjuJ4kSUpCz7HRAeCO4HqSJCm5PbJYdAA4J7ieJElKQs+x0QHgy8Di4JqSJJVuMXBcZMHoAHArcFRwTUmSSnckcHNkwTpGAvwC8FFgeQ21JUkqyXLSF+svRheuazbAz5DmAzgDeKimbUiSNKgeBE4HdgSOqWMDdc4GeBVpNsCJwDSa/4ngZ0izOEmS1KvTaP7W9iLgbmBZnRupMwCssBSY08B2RlqYYZuSpMGyELgldxN1qOsWgCRJ6mMGAEmSCmQAkCSpQAYASZIKZACQJKlABgBJkgpkAJAkqUAGAEmSCmQAkCSpQAYASZIKZACQJKlABgBJkgpkAJAkqUBNzAYodWsCsBWwPbANsDWwJbDB8DKZNL30msBDpHmzHwDmAX8bXq4H/gRcBzzSbPuS1P8MAOoHE4DtgL2BFwI7A+t2uO6U4WUaKSiMtBS4ErgI+DVwPmmubUkqmgFAOe0GvBbYH9ispm1MBHYZXj5AulJwDvAD4GxgcU3bHc984AkZttuJhcASYAHpisptwB3ADcDlw38uy9XcGO6j2u3MqcDyoF6ashdweoX1TwbeG9SLWsoAoKY9ATgIOAR4Wobtr00KHPsDfwdOAb4G3Jyhl360zvCfGwDTSSFtZQ8Cl5DC01nArc21Nqb1KO95pkmk192rNaMaUXuV9qFRPtOAz5Huz3+VPCf/kTYgfQu6EfgRsFPedlphLdK3zy8DtwBXAe/in8FBUksYAFS3dYDPkr4pfoj0DbzfrAa8BriUFASenredVtke+Dowh3QlZZO87UjqlAFAdZkAvAO4Cfgw6cn9fjeBFASuAb6E32q7sRZwKPBX4AtUuzwtqQEGANXhKcBvgROADfO20pOJwPtID7y9MnMvbTOZ9LDl9aRnPST1KQOAor2L9A36ubkbCbAx8L/AifTnrYt+Ng34HulJdfed1IcMAIqyDulg/3Xacbm/GwcDV9AfDy62zQGkfedzFVKfMQAownTgYtLBflA9hfSQ4H65G2mhpwC/B56TuxFJ/2QAUFXPIZ0YS/h2vBbpKsf7cjfSQk8AziX9hFBSHzAAqIoXkQ7qU3M30qDVSL8Q+HzuRlpoTdIzFY63IPUBA4B69QrSSHCljij2QeC/czfRQmuS3jeb525EKp0BQL14AelS+Bq5G8ns/cARuZtooY2AH5KGs5WUiXMBqFs7Aj8BHt/gNueShpz9I2l637tIE8DMH+5jPWB90myAzwSeBcyg/hPM1cBJNW9jUO0EHAkcnbsRqVQGAHVjE9LJv4nfdV9EulT8C+DPPay/DumBs5eRJv6Jnn3vImAf0qx5TfstaZrjKJNI0y+vWJqaqfAo0vvpjw1tT1IhZgFDPSwzczTbAmuQZoHrZZ92uvydNIzsvwX3PoU0LPHVQX3+nGrPPsyvuP26hyieDOxOmijpFOCeiv2Ot5wb0O+yij208VboS6n2mr/ZfMvZzaS3fTUrR7OqxgAQ6yvUdxJYSJowaN0GXsdepG+cvfb6Y6o/+9DvAWCkx5GuovycdOUh+t9/z4r9GQAMAJ0wAIzQxje+mrcPcFgNdYeAbwFbAB8hnRjr9mtgB9Jv+R/uct0TSCfCRdFN9bnFwJmk2ynbEfOtfWWfCK4nqQMGAK3K+qSx8CcE172F9GuCdwD/CK69KktJVzR2IA1i1InPA4eQvm2W7M/Ai0nfph4Nqvlc4m/7SFoFA4BW5fPEz+h3Fukp/d8G1+3WX4B/B44f5+8Mka5OfHj4v5V8kxTgosLb24LqSOqQAUDj2YM0EU6kTwCvppnL/Z1YSprB8P089tv98uH/73NNN9USFwMvBx4JqPX6gBqSumAA0FgmkJ7Ij7r0PwQcCnyS/vwm/SXSt9AVvS0B3sgAPwAU5GLg8IA6m1HGfBJS3zAAaCyvA3YOqjUEvB34n6B6dfke8B7Sw4GvBk7L205rzAJ+F1Bn74AakjpkANBoVgM+HljvKODbgfXqdBzwVNJP3tS5jwXU2CWghqQOGQA0mlcT91T2LODYoFpNuTN3Ay10ATC7Yg1/CSA1yACg0XwwqM7VpNHkVIafVlz/qXhMkhrjh00jPRvYNaDOQ8CBlDdoTsl+X3H9NUkTO0lqgAFAIx0SVOdjwA1BtdQOEf/eTQ9zLBXLAKCVrQG8IaDObOBrAXXULvcH1GhipklJGAD0r/YmZirYw0m/o1dZFgfUmBRQQ1IHDABa2X4BNS4nfrIYtUPE5fsHAmpI6oABQCtMIE0xWtVnA2qonbYMqLEwoIakDhgAtMLTgWkVa9wO/CSgF7XTsyuuv5z+mSNCGngGAK2wZ0CN75MO4irTSyqufztxUwxLWgUDgFaIGIb1+wE11E4bAS+qWOP6iEYkdcYAoBW2q7j+zcCfIxpRKx0OPK5ijT9FNCKpMwYAQfr9/1Mr1rggohG10lOJGfL51wE1JHWozgCwIfBp0njwD5KmhG1ymVnjaxs0WwATK9b4bUAfap/JpGmT16hY5xHgourtSOFm0vz560HgKuBTpHNpLaoe9MdyAHAijurVFhE/37o6oIba5XHAmVS/fQRp7AgfAJSSKcD2w8t7gYNJn7VQdVwBOAD4f3jyb5MnVVx/OekZAJVjA9JJ+2VB9b4dVEcaNGsDpwP7RxeODgAbkr75Twiuq3pVnYHtb6RLuCrDK0kP7D0vqN5c4OdBtaRBNIF0bn1iZNHoAPAe/ObfRlUDwN0hXaifrQ68HDgP+F9g48DaXwaWBtaTBtE6wGGRBaMDwD7B9dSMKRXXfyikC/WbxwO7kh7mvR04G3hB8DbmAMcF15QGVeg5NvohwK2C66kZVYOgE7g069XE33JZm3QlaD3SZcYZwLOof3a+j+PtI6lTW0cWiw4AQ8H1JD3W93I3EOR8fPhP6kboOTb6FoBPgrfToorrrxXShUryEPAO/NIgdSP0HBsdAM4OrqdmLKi4vgFA3RgC3o5fGKRu/TSyWHQA+BreD26jqlOwbhTShUrxcdLogZI6t4B0jg0THQDuIY1Y5GW9dqn6M77NSUPCSqtyPOlXBZI6N0Q6t94XWbSOkQDPBF4LLKyhtupxe8X1VyP46VQNpOOBd+MXBKkbC0ijAP4ounBdkwGdSTohfIo0ocGDNW1HMW4LqLF9QA0NpuXAR4F30Z8n/6rTGOfQxp7VuRWTAR1NOpeGn/wH3SycRbAb86g2e9WJzbfcWvNpfnaxXMsC4FUxu21Myyr2WHUkzBwOpNprntV8y9n1OqvfwO6rOqcDVrv8qeL6z49oQgPlZ8AzSEMH12lZxfXb+CuWqj0PhXShVjMAaIWrKq4/nXSwl+YCbyQNW/q3zL10YtPcDfSgas/LQ7pQqxkAtMKFATUODKih9roP+AjpnuX3G9zuoxXX3zKki2Y9ueL6iyOaULsZALTChVS/lPpGfE+V6ArSqH5PBj5H82P7z624/lNDumhW1Z6r7jMNAA/WWmE+cHnFGk8CXhPQi/rftcBngB2AnYBvkW9WyKq3GXYO6aI5awDbVazRhlszqln0ZEBqt5+Qpn+t4sPADwN6Uf+4D7iBFBAvA35Pf51A7qy4/s6kL0NtuS++PSkEVDEnohG1mwFAK/sx8NmKNXYCXgL8sno7GsN7qX7feywLSJNDPUAaIfI28n2z79RNFdffgBQCLgnopQkvDahRdZ9pABgAtLIbSd/wql4S/SrwTKrPMqjRfRdH2lzZpQE1XkV7AsCrK65/B3BXRCNqN58B0EgR87NvAxwWUEfqxGXEPMC6ekAvdXs6KVxX0Zago5oZADTSacQM3fxJYNuAOtKqPABcX7HG5sDLA3qp22HAhIo1LotoRO1nANBIC0hPdFe1JnA6zhKoZpwTUOMDATXqNA14U0CdcwNqaAAYADSaLwNLAuo8g/Q8gFS3MwNqPJeYB+zq8lFgSsUaN1F92G8NCAOARnM7cFJQrbcDRwXVasrmuRtQ1y4l5qeJn6c/Z9rblpiJyvyJrv6PAUBj+QRxI7p9CnhbUK267Uv6lvT23I2oK0PAGQF1nkH/BdbVge8QE0wi9pHU95wOuLrPEjct7HLgPc2237WXkX66uKLfI2raTtXpgNepqa+22wpYSvX36mJgj4Z7H8/RxHwGf990433G6YALYgCobi3S7YCoEDBEOpj145Wng/jnyX/l5TM1bMsAUJ8fEfM+nQds0XDvo9mPFEYjXtN+DffebwwABTEAxHglsQFgiDRP/PpNvohxTCCd5Mfr9+vEhhYDQH3+nbj36Y3knSr4xcDDo/TVy3IL7RjnoE4GgIIYAOKcSnwIuBV4YZMvYhRbAOfRWb/fByYFbdcAUK9O/007DQHTm20fSJNqPdJDv2MtBzfbfl8yABTEABDnCaQx4aNDwHLSsLZTm3ohw1Yj/Tsv6LLfs4kZ18AAUK9nEvMswIrlPmCvhnpfDfg4cZf9h0jTNffjbbemGQAKYgCI9RzSw1HRIWCINK790cC6DbyOV5B+B91rrxdQ/QRsAKjf/xD7Hl1OOqasXWPPWxN79WLF8twae24TA0BBDADxDqGeALBi+QdpEKKnB/e9JvBW0hCoEX1eCTyxQj8GgPpNJT3IF/0evQN4J7FjBWxMet8/WkO/Jwf22XYGgIIYAOrxDeoNASuWS4Ajge3obezztUn3UU8gBYvo/q6n9wGDDADNeCmxl9JHBoFP0vvzAasBewLfI+5Bv5HLLaTbd0oMACM4HbC6dSiwEdWnJF2VXYaXY0jf5K4GrgWuA+YC95JO7JOB9YaXp5AGcnkmMIO4h/ZG82/ARcDepAfF1H9+AXwFeF8NtTcHPja8XE+6dH8FcAPpAdeFpG/0kALb+qRZMrcl/VJhT+p99mUpaYbDBTVuQ+pbXgGoz+OB39DMlYB+XpYBb+lh/3kFoDlrAJeT5/1R19WHTpaPROy8AeMVgBF8MlS9eBTYh7JnFVtGGt74u5n70PgWkUZ4vCnDtqtO29urE0mjeErjMgCoVw8DrwLOyt1IBouB1+LJvy3uJT0PMC93Iw34GelhXWmVDACq4lHS5DklTfl7P+nqx49yN6Ku3Ez6Ceg/cjdSowuB15Hu/0urZABQVcuA9wLvJn0zHmRXATsCv8rdiHpyOekBvIhpg/vNT0lDBz+UuxG1hwFAUb4B7E76pjWITibNEHdr7kZUyWxgV9JgUIPiu6QrcVHTd6sQBgBFupL087vvZu4j0j2kn1MdRHruQe03F3g+8JPMfVS1GHg/aZx/L/urawYARVtAGnXvJaT5A9pqiPQ09bakiYA0WO4nDRT1ZtoZ7G4Dngd8ifRelbpmAFBdzgGeBhwFPJi5l25dSzq4vp10otDgOol06+rS3I10aBlwPPAs0miZUs8MAKrTI6SR/J5CGuu8379pXUO6l7o96YlqleFaYDfSTzv7+QHBy0iTcr0LeCBzLxoABgA14S7gcNK46ceS7qv3k0tIQxvvAPwYL6mWaAg4gzQR1cdJYwf0i6uAA0gPL7blSoWUlUMB9681SA/WnUvsvO3dLHeSRkvbtubXOhqHAu5/k0mz/v2FPO/P5aRBfV5Q9wstiEMBj+BkQMphEXDq8LIhsB9puNY9gSk1bXOINJHQecDPh/9cVtO2VmU+6QCv/vUI6cA/i3RV4ABSaN265u3OJl2JOJnB/Umt+oQBQLndQxpD4BukOdZ3AXYeXp5Num3Qy6x+d5JmZrsBuJg0edHdAf1GeHLuBtSV64aXT5Kmp34O6XL8bvQ+HTDAEtLzBxcPLxeQfqIoNcIAoH6ymPTw3coP4E0knTA3BaaRrhisuEowiTQc8ULSEK8PAPeRLtv6kJSiDZGmpb4aOG74f5sCbAE8iTRF8PrjrL+cFEJvJz1sOIfBHz1TfcwAoH63FPjr8CL1m4dIl+1n525E6pa/ApAkqUAGAEmSCmQAkCSpQAYASZIKZACQJKlABgBJkgpkAJAkqUAGAEmSCmQAkCSpQAYASZIKZACQJKlABgBJkgpkAJAkqUBNzAY4iTSF6xoNbGtl6zS8PUnS4FkHmN7wNhcB9wBLGt5umB2BM0nTZQ61aJlZx86QJGU1k/znl26WB4EzgBl17Ayo7xbAfwGXAfsBa9a0DUmSBtUUYH/gcuCoOjZQRwD4EHA0MKGG2pIklWQC8GngiOjC0QFgG1KjkiQpzjHA1pEFowPAYaSH/iRJUpxJwKGRBaMDwIuC60mSpCT0HBsdAJ4UXE+SJCVbRBaLDgCPBteTJElJ6Dk2OgBcH1xPkiQloefY6ADwo+B6kiQp+WFksegAcDwwJ7imJEmluxOYFVkwOgA8BBwAPBxcV5KkUj1MDefWOkYCvBh4LnBjDbUlSSrJX4A9gEuiC9c1G+CVwDNI4xi/gjST0hNr2tZYpuKMgJKkahYC9zW8zXuBm4GfkibVW9rw9ltvFs4GKElKep0NMPS+ez+pazZASZLUxwwAkiQVyAAgSVKBDACSJBXIACBJUoEMAJIkFcgAIElSgQwAkiQVyAAgSVKBDACSJBXIACBJUoEMAJIkFcgAIElSgQwAkiQVyAAgSVKBDACSJBXIACBJUoEMAJIkFcgAIElSgQwAkiQVyAAgSVKBDACSJBXIACBJUoEMAJIkFcgAIElSgQwAkiQVyAAgSVKBDACSJBXIACBJUoEMAJIkFcgAIElSgQwAkiQVyAAgSVKBDACSJBXIACBJUoEMAJIkFcgAIElSgQwAkiQVyAAgSVKBJuZuoHCbATsA6wPzgIuB+Vk7kqT6rAfsCkwD7geuAu7M2pEG0ixgqIdlZgO97QycDywfse3FwKnAkxroQZKasgXwfdIxbuVj3nLgPGDHBnqYSW/nhFkN9KZg/RoA3sxjPwQjl3uB3WruQ5KasDtwH+Mf8xYBB9XchwFgBJ8BaNYLgW8Bk1bx96YCZwGb196RJNVnC9KxbINV/L3HAScCz6+7If2TAaA5qwNfo/PnLqYCx9TXjiTV7lhWffJfYSJwHOlYqQYYAJqzB7Btl+u8Dli3hl4kqW7rAvt3uc7T8fZnYwwAzdmjh3UmAbtENyJJDdiNVd/uHM1zoxvR6AwAzdmox/U2Ce1CkprhMa/PGQCa0+uYC70kaEnKrddjl8e8hhgAJEkqkAFAkqQCGQAkSSqQAUCSpAI1MRnQdGArmv89+/SGtydJGjzTgQMa3uZ84Gbgljo3UlcAmAAcCBxF94PfSJLUL/YaXnKYDXwG+AFpXoJQddwCmAScMrx48pckqTdPI80QezI1/DyyjgDwFdK3f0mSVN0bgS9FF40OALsAhwTXlCSpdO8GdoosGB0A3kW6/y9JkuJMIPgLdnQAeF5wPUmSlOwZWSw6AGwcXE+SJCWhGlFn3QAABrBJREFU59joALAwuJ4kSUoWRBaLDgDXBNeTJElJ6Dk2OgD8ILieJElKQs+x0QHgZOCPwTUlSSrdNaQB9sJEB4ClwGuAucF1JUkq1VxgX2BZZNE6RgK8BdgZ+FkNtSVJKsnZpAGAbo0uXNdkQHOAfYDthv/cBphc07bGMgNnBJQkVXMLcGXD23wYuIl08r+2ro3UPR3wNeT7ZcAsYGambUuSBsOvgXfmbqIOddwCkCRJfc4AIElSgQwAkiQVyAAgSVKBDACSJBXIACBJUoEMAJIkFajucQBU3R4ZtrkEuBu4GJifYfuSYqwH7ApsBExqeNs5jl3qggGg/71peMlhCXAGcCRwR6YeJHVvC+BYYH+aP/GrJbwFoPFMAg4kDYO5W+ZeJHVmd9Jn9g148tc4DADqxFTgLGDz3I1IGtcWpM/qBrkbUf8zAKhTU4FjcjchaVzH4slfHTIAqBuvA9bN3YSkUa1LuucvdcQAoG5MAnbJ3YSkUe2G9/zVBQNAc5bnbiDIRrkbkDSqDXM3EGRQjpV9zwDQnHtzNxDk77kbkDSqQRmzY17uBkphAGjOFbkbCDAEXJ27CUmjupz0GW27y3I3UAoDQHN+RfuT7XnAnNxNSBrVXOD83E1UdBfwm9xNlMIA0JxHSCPqtdVi4MO5m5A0rg+TPqtt9RHg0dxNlMIA0KzvAP+du4keLAXeBlyVuxFJ47oCeAfpM9s2XwBOyt1ESQwAzTsCeCtpsp02uA54IXBK7kYkdeQkYG/SZ7cN7gLeDHwwdyOlcTKgPL4LnAbsBexI+mndhJwNjbCE9KH8HfB7/FmO1Da/BZ4NPIc0K9/G9NcYAUOkL0GXk54t8rJ/BgaAfB4Fzh5eJCnaMlKI/13uRtSfvAUgSVKBDACSJBXIACBJUoEMAJIkFcgAIElSgQwAkiQVyAAgSVKBDACSJBXIACBJUoEMAJIkFcgAIElSgQwAkiQVyAAgSVKBDACSJBXIACBJUoEMAJIkFcgAIElSgQwAkiQVyAAgSVKBDACSJBVoYu4G+tAeuRuQJIXz2D6CAeCx3jS8SJI0sLwFIElSgQwAkiQVyAAgSVKBDACSJBXIACBJUoEGOQAsz92AJKn1BvZcMsgB4N7cDUiSWm9e7gbqMsgB4IrcDUiSWu+y3A3UZULuBmo0GbgVmJa7EUlSK90FTAcezd1IHQb5CsAjwJG5m5AktdZHGNCTP8DquRuo2TXA2sDuuRuRJLXKF4aXgTXoAQDgXOB2YFdgrcy9SJL6213AoQz4yR8G+xmAkR4P7AXsCGzEYL32vYEte1jvV6TnJAbNa4F1e1jvdGB+cC/9YGaP650Q2kV/WJf0/ujWfNL7Y9BsSTp+dOtW0vFjUAwBdwOXA+cxwJf9NXh+SHoDd7vsm6PZBsymt/2xbY5mG9DLvhjK0mn9tqW3fTE7R7MN2Jfe9scPczSrWIP8EKAkSRqDAUCSpAIZACRJKpABQJKkAhkAJEkqkAFAkqQCGQAkSSqQAUCSpAIZACRJKpABQJKkAhkAJEkqkAFAkqQCGQAkSSqQAUCSpAIZACRJKpABQJKkAhkAJEkqkAFAkqQCGQAkSSqQAUCSpAIZACRJKpABQJKkAhkAJEkqkAFAkqQCGQAkSSqQAUCSpAIZACRJKpABYDA80ON6C0K76B/uj3/Vy/5YGN5Ff+j1veH++FeDuj+KYgAYDLf0uN7NoV30j172x4PAvOhG+kQv/86D+t64G3ioh/UGdX/0+roGdX8UxQAwGH7awzp/Am4L7qNf9LI/fgEsi26kT5zdwzq97MM2WAr8sof1BnV/3ALM7mG9Qd0fUiv9HBjqYnldnjYbMQm4kc73xTJg+yydNmND0iXbTvfHfGBqlk6bMYP0b97p/rgBmJil02YcSHfHDk/+Up/ZFJhDZx/gkzL12KQZwMN0tj+OzNRjk/YHlrPqfbEc2DdTj036KJ29Nx4CdsjUY1MmAKfQ2f64E9gkT5uSxjMduJbxD+5fZbC/zaxsV9IBa6z9sQh4f7bumrc/6UHH8b75l3DyX+EI0ntgrP1xB7BLtu6aNQk4jvFD4tWkY4ykPjUReAtwDumBp0Wk+3zfAnbM11Y2U0gn+YuAv5OuCswGvkSZB7MnAkcDV5KeAH9g+L8/yWBf9h/LVsCXSe+Jh0nvkYuAw4E1M/aVy07AiaRjxiLSMeQc4M3A6hn7kiRJkiRJkiRJkiRJkiRJkiRJkiRJkiRJkiRJkiRJkiRJkiRJkiRJkiRJkiRJkiRJkiRJkiRJkiRJ6tX/B3t1BdhEqYtjAAAAAElFTkSuQmCC;" vertex="1" parent="1">
          <mxGeometry x="444" y="320" width="32" height="32" as="geometry" />
        </mxCell>
        <mxCell id="W4ZQf7grJeuH_FmLfWgL-20" value="" style="shape=image;verticalLabelPosition=bottom;labelBackgroundColor=default;verticalAlign=top;aspect=fixed;imageAspect=0;image=data:image/png,iVBORw0KGgoAAAANSUhEUgAAAgAAAAIACAYAAAD0eNT6AAAABHNCSVQICAgIfAhkiAAAAAlwSFlzAAAOxAAADsQBlSsOGwAAABl0RVh0U29mdHdhcmUAd3d3Lmlua3NjYXBlLm9yZ5vuPBoAACAASURBVHic7d15mB1lmbDxuzvbhJBA2AVBQARkUUTEBRFFRIZF3EAWwdEPEQY/xHHBUflGRnGAURQXFP3UUVxQQVAUl7iAuKAgiqisYRPQsIkhAbL2/PF2a4id9Dmnnqq3lvt3Xe+VBPo856k61aeeqnoXkCRJkiRJkiRJkiRJkiRJkiRJkiRJkiRJkiRJkiRJkiRJkiRJkiRJkiRJkiRJkiRJkiRJkiRJkiRJkiRJkiRJkiRJkiRJkiRJkiRJkiRJkiRJkiRJkiRJkiRJkiRJkiRJkiRJkiRJkiRJkiRJkiRJkiRJkiRJkiRJkiRJkiRJkiRJkiRJkiRJkiRJkiRJkiRJkiRJkiRJkiRJkiRJkiRJkiRJkiRJkiRJkiRJkiRJkiRJkiRJkiRJkiRJkiRJkqQYQ4GxpgFPB3YHtgO2ATYCZgBrB75PUQ8BC4F7gRuB64FfAJeO/jdJkjSBqcCBwPmkk+pIg9sy4JfA8cD6kTtJkqS2mAG8AbiD/CfuMtpi4HOkuxiSJHXeEPAvwDzyn6SraEuADwFrBew7SZIaaTPSc/LcJ+Uc7S5gv+K7UJKkZjkAuI/8J+KcbTlwOjC54L6UJKkRjiN1kMt9Aq5LuwhYo9AelSSp5t5J/hNuHdtlwJoF9qskSbV1LPlPtHVuPyDNfSBJUmscgLf9e2mfGnQHS5JUN5uSZsTLfXJtSnvVYLtZkqT6GKK7Q/0GbQuAzQfY15Ik1caryX9CbWK7cJCdLUlSHaxJd2b4K6O9sP9dLklSfm8i/0m0ye3n/e9ySZLymgrcSf6TaNPbc/rd8ZIk5TA8+ue+wMY5E2mJ/5M7AUmSejE0+uf5wEsD4y4jdYy7ALgauJu0sl4drAdsQSp6Dh/9d5QFwGNG/5QkqdamAQuJuw1+GbBdpVswuFnA+0kL/URt/4GVboEkSQN6DnEnvy+S+hM0zeHEzXx4ZsW5S5I0kHcQd+XfxJP/mLcRsx+uqjpxSZIG8QWKn/SWAttXnXiwYdLJu+i+eIi/d66UJKm2rqT4Se+8yrMux6HE3AV4XNWJS5LUj2FSr/WiLgiIUQffAhYHxHFIpSSp1oaBmQFxrg6IUQfzgVsD4qwZEEOSpNIMA2sExLk3IEZd/CkgRkRRJUlSaYaBRwLirB0Qoy4iJiyaFBBDkqTSDAMPBsTZOiCGJEmqyDBwT0Cc/QNiSJKkigwDNwbEOQzYKCCOJEmqwDBwbUCcGcD7AuJIkqQKDAM/D4p1OPD2oFiSJKlEw6Q5/JcGxTsF+AQOg5MkqdaGSZPfXBYY87XATaRFhpq+PoAkSa00efTPc4DnBcbdAHjPaFsMzCNmfP084Bbgm8CFwMMBMSVJ6qxZpDsBEQvhVNVuBw4uYV/MCcjtoBLykiQpzNiytfOBj+dMZACbAl8m3WWQJEl9WHHd+jNo5i31dwDH5k5CkqQmWbEA+DNwaq5ECno/6Y6AJEnqwfBK/z4NuCFHIgVNB/4tdxKSJDXFygXAIuAIUs/9pnkpMJQ7CUmSmmDlAgDgl8CJVScSYDNg3dxJSJLUBOMVAAAfpHmjAgAekzsBSZKaYFUFAMDrga9WlUiQqbkTkCSpCVZXACwDDiXN7S9JklpkdQUApCLgGOCdo3+XJEktMFEBAGlq21OAvYA7y01HkiRVoZcCYMwlwDbAyTRzmKAkSRrVTwEAsBB4F7ATaQXBpdEJSZKk8vVbAIy5FjgSeALpjsDcsIwkSVLpBi0AxtxKuiPwBOBJwAnA+aQCwccEkiTV1OSgOCPANaPtzBVirwOsCczuIcbXgU2C8pEkSasRVQCMZylw92jrxaISc5EkSSso+ghAkiQ1kAWAJEkdZAEgSVIHWQBIktRBFgCSJHWQBYAkSR1kASBJUgdZAEiS1EEWAJIkdZAFgCRJHWQBIElSB1kASJLUQRYAkiR1kAWAJEkdZAEgSVIHTc6dQEudBBydOwlJUmP9FVgI/Am4HvgDcBWwJOoNLADKseNokyQpykLgMuAbwJeB+4sE8xGAJEnNMAPYBzgLuAv4EvDkQYNZAEiS1DzTgEOAXwMXAo/vN4AFgCRJzTUEHAhcA7yTPh7tWwBIktR804F3Az8BNu/lBRYAkiS1x9OBy4GnTvSDFgCSJLXLhsCPgD1X90MWAJIktc9M4CLgWav6AQsASZLaaQ3g68BW4/1PCwBJktprPeBrpE6Cj2IBIElSu+0InLbyf7QAkCSp/Y4jjRD4GwsASZLabxj4CGnioL/9B0mS1H67AC8a+4cFgCRJ3fGOsb9YAEiS1B1PI90J6H3RgBXMBJ4N7ECab3gtYGpAUhsGxKiLM0hTMUqS1K/JpHPik4H9SUP5Ih0JXNlPMocC3wOWACM1bRPOfdyDOQF5HBSQhyRJU4HXA/cRd668ixU6A67KEHA4cEvgG1sASJLUny2BPxB3vtxudX0ANgK+C3yeHpcWlCRJpbgZ2Bv4c1C8562qAHgKcBXwgqA3kiRJxdwBHBMUa8fxCoCnkZYRfEzQm0iSpBhfB34ZEGeblQuAxwMXk3r2S5Kk+jk3IMbmKxYA04CvED/cQJIkxflpQIxZKxYAbwF2DggqSZLKc2dAjL8VABsBbw8IKEmSyvVQQIzJYwXAG4HpAQElSVIDDJNm+XtV7kQkSVJ1hoG9aNc8/JIkaQLDwJ65k5AkSdUaJmb+fEmS1CDDwBNyJyFJkqo1DKyTOwlJklStycAaAXHeSPFxiafgLIQTGQJ2AfYANiHms5vIcmAecB3wHeCBCt5TklSBiHWFZwfkMTcgj4j+DHMC8jgoII+VHQTcEJBbkbYI+AiwfgnbJ0nqzWwCvtNXtRyw6mMK8EnSOg25+2tMBY4jLRXttNGS1GAWAPX3YeCo3Ems5LGkOyVb5U5EkjQYC4B6Owh4Xe4kVmEd4BxSvwRJUsNYANTXEKljZJ09AzgwdxKSpP5ZANTXruR/5t+Lw3InIEnqnwVAfe2eO4Ee7ZE7AUlS/ywA6mvj3An0aH3S6ABJUoNYANTXjNwJ9Gj5aJMkNYgFgIr6E7A0dxKSpP5YAKioObkTkCT1zwJARX02dwKSpP5ZAKiIi4BLcychSeqfBYAGdTPwmtxJSJIGYwGgQfwG2BO4N3cikqTBWACoH3cAJwBPB27LnIskqYDJuRNQqb5N8Wf0y4B5wB9IywCPFE1KkpSfBUC7XQqcljsJSVL9+AhAkqQOsgCQJKmDLAAkSeogCwBJkjrIAkCSpA6yAJAkqYMsACRJ6iALAEmSOsgCQJKkDrIAkCSpgywAJEnqIAsASZI6yAJAkqQOsgCQJKmDLAAkSeogC4D6Wh4QY1lADElSC1kA1Ne8gBh/DoghSWohC4D6ui4gxrUBMSRJLWQBUF/fARYXeP0dwFVBuUiSWsYCoL4eAD5Z4PX/DYwE5SJJahkLgHo7mXQl369fAR8PzkWS1CIWAPV2D3AgcF8fr7kZeDHFHh9IklrOAqD+rgKeDlzew89eBOzKYHcNJEkdYgHQDHOBZwEvAb7K34cILied7P8HeC7wIvq7WyBJ6qjJuRNQz0aAC0cbwDTSRD9Ls2XUXlsCTwW2BrYd/fcMYCawFrAIWAjMJxVcN5CGbV4H/AJYUH3KYaYCLyM9Rtoe2BCYVMH7LiPtz/mkfXsjcD1p314B/LGCHMr0DOAQYDdgY9IxdDvwXeALo39viicAhwPPBzYjHR93AJcCXwJ+ky819WskoM0OyGNuQB5PDchjTkAeBwXkoepMJ305fwa4lWKf/RLgp8C7gZ0r3IYIewM3EfOdEN1uBM4mFSbTytoBJdgY+Car37ZHgNOAKZly7NV04KOkY3xV27IcOBdYJ1OOXTGbmN+rkCAWAI9uFgDN8Gzg08BfKe/E9TvgRNKVdJ29jnQ3qcqT+qDtPuAsYJdS9kSc7UhXxr1u1w+BNbJkOrHZwC/pfVtuBDbPkWhHWACM0ywA1ItnAz+g2pPWI6Qr2E0r2L5+/TPNOfmv3L5H6v9SN+sy2Hfal3MkO4FJpP3c77b8lvToTPEsAMZpFgBanafR31VMGW0R8H5Sf4I6+CfgNvLuk4j2Q1Kfhbr4CINvywEZ8l2d1zD4tpycId8usAAYp1kAaDyzgY+ROprlPlGNtTuAg8vc6B4dRf59EdUWA6eT/6pzvdFcBt2OXob8VulGBt+W+aS+A4oVUgA4DFBt9zTSzIjHUK9hr5uQbveeRxpZkMtLMr53tCnAW0if95My5rEfxTr07Uo6PupgR2CrAq+fCbwgKBcFq9MXohRpCHgzqUf+FplzWZ2XkYYO5jph5TxRlmUb0lX0UZne/8kFXz9EOvHWQdFtgXYeY60wmXQrYKhgnFcBDxWMMavg66Uxk0i9xI/OnUiPtiEVKi8njQuvUt1HJwxqOmkxra1JozBGKnzviH36mIAYETYIiFGXbdFKJpNO3EWfmX0gIBcpwjTg86STaZOsCXyDVEyfW+H71n3seVFvIZ2AXkMav16FiAnW6vK5ROThhHM1NYxTx6o9pgAX0LyT/5ippFnhXpE7kZZ5JfA5fOQpPcowaeYvqemGgE+QxrQ32TBwDvDC3Im0zCGkoXmSRg0DV+ZOQgpwKvAvuZMIMoW06JOdp2IdC7w1dxJSXQyTZkSTmmx/0rPeNplJGiJo59hY7wX2zJ2EVAfDpBm05k30g1JNbUpaDrnoSJY6egLpsYbiTCL1s9godyJSbsOkOcA/kzsRaQBDwGdJ86631SuwU2C0jYAP505Cym2sV+wHKT6OX6ra4cDzcidRgQ+Sd7bANno5sG/uJKScxsZnzgNOGW1SE6wF/HfJ7zEfuAT4CXAdcBdp6eBppGfzW5FmSnsusDPlPYbYCPh/wJtKil/UzqT9UsQk0me6KbAtsDuwB+Uuj3smqQ/UohLfQ2qEqeRfKa1oczGg7vgPyjuOLicNG+tnEZMtgHeT5tUoI6dFlLOUcERuEYuBjWdN0siOq4PyHK8dV0LeXw7Iqy6zWI7NoliknV151u0XvhjQYtKzxnuqyV8a2Ezg+BLi3kRayOUZpNn4Hu7jtbcAJwGbk1aki551birtG+kwkQWkDp47kb6b7izhPd5K2rdS56w8M9YtpOdiRW/nSWU6BlgnOOYnSePuLy4Y50HSVdMziJ9k6yjaO3f/6owAXwG2G/0z0makmQKlzhlvaswrSc/e7qo4F6kXQ8DrAuONkJ6tH01/V/wTuYq0FPFlgTGn057JjgYxn3Qn4G3BcY8Njic1wqrmxr4aeArVr0wmTWQ34PFBsUZIxcQZQfFW9gBpSt/IIuCIwFhNdRqxRcAupLsLUqesbnGMu4F9gEOBm6tJR5rQkYGx3kO69V+mh4EXEfc4YHtSr/uuOw34WGA8Cyt1Ti+rY51LWq/8UOA7pImDpByGgAODYl0CnBwUayIPAAeTOtpGeElQnKZ7I/CboFgvDoojNUav6zQvJRUC55KG5uwG7EAa+rQWaVx0UfsCMwLiqL12ADYIiLOY9Nx3WUCsXv2aNKFPxGI0XZj8qBeLgNcCv6D4Ur/bAptQzkgDqZZ6LQBWtIDUNyC6f8BcYMvgmGqXqBPf2aSJfar2HlJP/qIjGHYlFeILCmfUfFeSxt0fGhDruaR1AqROKFo1S1XaLSDGMuB9AXEG8SBwVkCcKaQiQMmpQXEiji+pMSwA1CRPDIgxB7g9IM6gPkUafVDUtgEx2uK3wK8C4rhP1SkWAGqKYdLyuEV9LSBGEbcS03Ftm4AYbXJ+QAwLAHWKBYCaYjPgnwLi/CggRlEROWwdEKNNIvbpY0jTTEudYAGgplg3IMZCUmfT3H4bECNif7TJNcQ8WnG/qjMsANQUawbEuJmYk0RREUXIrIAYbbIQ+HNAHO8AqDMsANQUEV/MdVnk6oGAGJ6o/pH7VeqDBYCaIuL5f+RiP0XcnzuBlopYgnlKQAypESwA1BRDuRMIdDfFZyF0tc5/FHH17uRK6gwLAKl6S4ErCsb4WUQiLTJM6sVf1PyAGFIjWABIeXyl4Ou/GpJFe2xBzGMiCwB1hgWAlMfZDL7wzHeBnwTm0gbPCYixkPR4RuoECwApj4dIC9j0u0TwvaSVDPVo+wTEuIF6DBOVKmEBIOVzGXAEvY9OuBN4IXBLaRk101rAAQFxrg+IITWGBYCU11eAZ7L6qWyXA58DdgGuqiKphjkGmB4QJ2JBIakxJhd47SxSx5tZwLSAXCJ+gaUmuhrYE9iJdCW7NbAO6Xn0r4FvkBYR0j9aG3hTUKw6rBMhVaafAmAasD9wIPBcYNMyEpI67DfErBTYJe8B1g+I8xfc9+qYXgqAWcDxwBuA9cpNR5J6tj/wr0Gx5lB8ciapUSYqAF4OnAlsXEEuktSrHYFziJsh8vNBcaTGWFUBMAX4EKlzjSTVyfbAd0jP/yPcMxpP6pTxCoDpwHnAvhXnIkkT2Qf4IjA7MOYXiFlISGqUlYcBTgbOxZO/pHqZCZwBXEzsyX/xaFypc1a+A/Bu4EU5EpGkcawBHAWcSDl9kT4L/LGEuFLtrVgAPAd4a65EJGnUBsDuwH7Ay0gjkcqwCDi1pNhS7Y0VAJOAs3BmQEn9u4Diz9CnkE70mwHrFs6oN6cDN1f0XlLtjBUAryD1rJWkfu2RO4EB3A6cljsJKaexK/43ZM1CkqqznNSvYGHuRKSchoFtgV1zJyJJFXkvaeY/qdOGiVlHW5Ka4FLgXbmTkOpgGNgtdxKSVIGbgINxzn8JSAXAdrmTkKSS3QW8gLTEsiRSAeBCP5La7C5gb+DWzHlItTIZWDMgzm8oflttB2BaQC5SLlNJk9hsGBBrCelqdR4wEhCvq24GXki6/S9pBZOZeEngXuwJ/KVgjLnAlgG5SFXbE3g96USzRnDsPwEXAu/DSWv69RPgpaTV/iStxJn/pMHNJK2c+QPgJcSf/AEeAxwLXEuaD3+ohPdomxHScuZ74slfWqWIq3+pi2YClwA7V/R+U0nz1m9Kutug8f0ReB3w7dyJSHXnHQBpMJ+hupP/io4jzWKnR1tCuurfHk/+Uk8sAKT+7UFapS6X04HZGd+/TpYCnwd2JE1p/mDedKTmsACQ+ndC5vefDRySOYfc5gNnk6YyPwK4Pm86UvNYAEj9mUKaUCa3/XInkMHDwLeAw4CNgGNIo4ckDcBOgFJ/NgZm5E4C2Cp3AiVbRpq45wbgCuCHwOXAoow5Sa1iASD1Z2buBEatnzuBFbya4kvrLiU9v39g9M9b8WQvlcoCQOrPvNwJjKrTfABfp/hEYJIqZh8AqT/3ArfnTkKSirIAkPozAlyQOwlJKsoCQOrf6cBDuZOQpCIsAKT+3QW8JXcSklSEBYA0mLOA9+BSvZIaygJAGtxJwMHYKVBSAzkMUCrmPOCbwIHA/sDjgQ0neM0U0qp+kpSNBYBU3CPAl0dbL7bEKWwlZeYjAEmSOsgCQJKkDrIAkCSpgywAJEnqIAsASZI6yAJAkqQOsgCQJKmDLADUFMsCYkwKiBEh4vdueUAMlSPis6nLd7PHaovV5SCTJrIwIMaMgBgRZgXEeDAghsrRpmN1ZkAMj9WasgBQU0R8iUw0RW9VNgiI4ZdqfbXpWI3IY0FADJXAAkBNEfGluhkwPSBOUdsExLAAqK+IzybiGIkQkcf8gBgqgQWAmuKPATGGgacFxCnqmQExIvaHynFHQIxnAEMBcYqYCjwlII7Hak1ZAKgpHgDuDoizd0CMIiYDewbEuT4ghspxXUCMDYAnBcQpYndgjYA4Hqs1ZQGgJon4IjmcvFdWewHrB8SJOMmoHFEnvMOC4uR8/+XATQFxVAILADXJ1QExNgf2DYgzqOOC4lwTFEfx5o22ol5NvtEA6wGvCIhzPWm5bNWQBYCa5JKgOCeR5y7ALsB+AXHuBn4fEEfl+VFAjPWBYwPiDOLNxBQfEftBJbEAUJNcQsykIk8HXhUQpx/DwIeJKTwuAUYC4qg8USe+k4CNg2L1amvghKBYPwyKoxJYAKhJ7gN+HRTrA8AWQbF6cSKpZ3eEOUFxVJ7vB8WZBXyG6r6rpwKfA6YFxFpK3F07lcACQE3zpaA4awPnETPT2UT2Af4zKNYi4GtBsVSem4HLg2LtDbwnKNZEPky6Qxbhe6SiXTVlAaCm+SIx6wIA7AxcSLkdrXYnFRqTg+J9C7g/KJbKdU5grH8nPZcv03uBowPjRW6/SjIS0GYH5DE3II+nBuQxJyCPgwLy0KpdTMxxO9Z+QTnPWQ8GHg7O9cDgHOvy+99G6xL/+Z9O/KJW04BPBuf5F+ox62ZbzSbmc6rNF4AFgHq1J7FfViOkYVsHBOU3E/hoCTleS/xdu7r8/rfVWcQfB5cAWwbltz1wZQk5VvXIoqssAMZpFgDd8TPiv7RGgItIjwYGMRV4LXBnSbkdOWBeq1OX3/+22hxYTPyx8BBwCmm8/iA2Bj5YUm4LCuSl3lgAjNMsALpjX+K/uMbactJV1lHAJhPkMYnUaeo0yjvxj5BmU4vqR7Ciuvz+t9mnKe+4WAB8ltTRdKJpe2eSHiF9iTQ5T1k5nd73HlK/QgqAMr5QpCpcPNrKmNVvCNhjtAHcQpp694+kld6mkoZnbU26hTqrhBxWdgJpWJWa5x3AyyjnOJlBujN0JOlq/vfADaSOovOBtUhX41sD21FOEbmiP5PuTKgh6nIF4B0A9etxwELKu5KpS7swaoeNoy6//233BvIfR1W0w6N2mFYr5A6AwwDVZLfR/s5G84mblU35fBS4IncSJZtDGqarhrAAUNOdRrtnxjsWuDV3EipsKenOYFvncJhHml57JHci6p0FgJpuOfBK4K7ciZTgo3hF1Sa3Aa/LnUQJlgNHAH/KnYj6YwGgNrib1MnqodyJBPoR8KbcSSjcebTvsdW/0e67cK1lAaC2uJw0xGlx7kQCXAO8lDTvv9rnJOAjuZMI8l/AmbmT0GAsANQm3wdeQ7OHy11HWvzlgdyJqFQnAF/JnURBnyANcVRDWQCobb5Aunp+OHciA7gCeA5pLLXabRlwGPDx3IkM6EPAMdjpr9EsANRGF5Guopu0FOm3gOcB91T8vg8WfP1y0mx06t8y0iiPd9GcE+lS4Hj+Pq+BGswCQG31E2An4Ke5E5nAMuBk4EWkSY2qdkfB188DlkQk0mFjn3/dC9a7STNvfjh3IophAaA2u4N0VX066URbN7cDzyddAS7PlMOPCr7+ByFZ6JukRaguy53IKlwM7Ii9/VunLlOBOhWwyjR2NyD3VKkjpJEKZ5IWZ8ntmRTblhdWn3KrDZHm9Z9H/uN0hLTAVRmrUKoYVwMcp1kAaHWGgVcTc6wN0pYB5wNPLHtD+3QBg23P93Mk2xHrAGeQ+lfkOFYfAP4TWLPsDdVALADGaRYA6sVk0uyB11DNl+li4POklQPraB3gRvrbpruAx+ZItmPWJ62udz/VHKvzgHeSVhFUfVkAjNMsANSv7YFTKeeW6++BE4ENKtuawT2WNAyxl+26gfrdxWi7acABpLkDFhF7nD5CGjlzEGmpa9WfBcA4zQJAg5oE7Aq8DfguaTheP5/5EtKJ8dOkedE3qTb9ENNJ238v42/jX0gdFr0tnNcsYH/g/cCVpDkv+jlWF5BmzjyV1IdjRrXpK0BIATA0+pei1iF9ORQxF9iyYIxdgF8VjDEH2KtgjIOBrxaMofzWBbYhHZdrkm6LziJdgS0YbfNIt89voh3TEEN6RPJsUq/v9UjD0/4A/Jj2bGObDAObkY7VjUnH6tjx+gB/P1bvIBWpt+dJU4FmE7Cy5OSARKS2ug/42WjrkqXAJaNN9bectGT0rXnTUNM4D4AkSR1kASBJUgdZAEiS1EEWAJIkdZAFgCRJHWQBIElSB1kASJLUQRYAkiR1kAWAJEkdZAEgSVIHWQBIktRBFgCSJHWQBYAkSR1kASBJUgdZAEiS1EEWAJIkdZAFgCRJHWQBIElSB1kASJLUQRYAkiR1kAWAJEkdZAEgSVIHWQBIktRBFgCSJHWQBYAkSR1kASBJUgdZAEiS1EEWAJIkdZAFgCRJHWQBIElSB1kASJLUQRYAkiR10GRgBBgqGOdAYGHBGDMKvl6SJPVoMvAwsEbBOJ8JyEWSJFVkGLg/dxKSJKlaw8BNuZOQJEnVGgauyp2EJEmq1jDww9xJSJKkag0Dc4D7ciciSZKqMwwsBs7JnYgkSarO2ERA7wcW5UxEkiRVZ6wAuAN4X85EJElSdVacCvgU4He5EpEkSdVZsQB4GDgY+GumXCRJUkVWXgzoWtK8/g9lyEWSJFVkvNUALwX2ximCJUlqrVUtB/xTYGfg5xXmIkmSKrKqAgDgNuDZwL8C86pJR5IkVWF1BQDAcuBjwBakQuAXpWckSZJKN7nHn3uYVAh8DNgIeC6wA6kwWAuYFpDLbsD0gDiSJLXZUESQXguAFf0ZODfizVcyF9iyhLiSJLXJegExHp7oEYAkSaqXiIvlBRYAkiQ1y34BMe6yAJAkqTnWBg4NiHObBYAkSc3xLmDdgDhXWwBIktQMRwDHB8W6wgJAkqR6mwS8HfgfYoYALgEuHWQYoCRJKt9apA5//06aeyfKZcB8C4BynAQcnTsJSVIjTQE2BB4/+vdo/x8GmwhIE9txtEmSVCf3AF+DidcCkCRJ7fFJYBFYAEiS1BXzgY+M/cMCQJKkbngX8Kexf1gASJLUfr9nhat/sACQJKntlpBGpi1Z8T9aAEiS1G7HAz9b+T9aAEiS1F4fBD4+3v+wAJAkqZ3OA968qv9pASBJUvt8GHgFsGxVP2ABIElSe4wAJ5Oe+y9f3Q86FbAkSe0wDzgK+GYvP+wdAEmSmm0ZqaPfdvR48gfvAEiS1FTLgfOBdwPX9PtiCwBJkpplCXAGaWGfuYMGsQCQJKlZFgBvKxrEAqAcHwB+XjDG0cBeBWN8EbiwYIxefAaYUTDG/yV1gmOciAAABfhJREFUYCnTjsBJBWPcTMAvXg/q8vkfCBxeMMb3gU8UjNGLU4EtC8YY6FZqnzYkDdEqYiHw6oBcJvJi4LCCMfz8Hy3i82+duaThC0XaUwPymBOQx8EBeZwdkEcVJyqA+wNyLfqL24u9AvK8soI8oT6f/4kBeZwdkEcvrgzItWjR1YstA/K8v4I8IR1Dfv6xavP5OwpAkqQOsgCQJKmDLAAkSeogCwBJkjrIAkCSpA6yAJAkqYMsACRJ6iALAEmSOsgCQJKkDrIAkCSpgywAJEnqIAsASZI6yAJAkqQOsgCQJKmDLAAkSeqgybkTWMHygBgR2zMlIMaygBgR++MlwBYBcSayRkCMU4D5AXFWZ5OAGI+jmvXNdw+IEXEcRsTYnWr22eMCYpwAHBQQZ3VmBcRYg2r26U4BMfz8Hy3i8484P9SqAFgYEGOjgBgbB8R4MCBGxP7YdbQ1wSG5E+jResDRuZPoUV2OwyeOtibYL3cCPZpGc45DP/94IRdLdXoEEPFl9eSCr1+LmCpyQUCMeQEx1G0Rx5DHoVQ/d0cEqVMBcFdAjJcUfP1+wNSAPCK25fqAGOq2iGPI41Cqn5DfyzoVADcExNgJ2HfA104C/j0gh4eB2wPiXA6MBMRRNz1AzJfEdaOxJNXHzyOC1KkA+ENQnDOBdQZ43YnADgHvfz0xHTTuBn4bEEfd9H3iOgH+MCCOpDhzIoLUqQC4LCjOVsDXgLX7eM0RwLuD3v/HQXEAvhAYS93yxcBYHodSffwCmJs7iTJcT7rtHdGuA549wfutDXyQdMUe9b4HFtkBK1mf1KEwKjdbN9otxAxnHTMFuK0G22Wz2dIFa4hJUYGCbAbsFhRrPeA1pCJgDf5+W35j4GnA8cAngecBQ0HvuQA4DlgcFO8hYDbwrKB46oa3AlcExlsOPALsHxhTUv9uAI4laB6AqBNflB1p9nPvc4Ajg2POAq4lZn4Ctd+vgKcT8/x/RZOAXwI7B8eV1Lt9gO9GBatTHwCAa0jPN5rqUyXEnA+8mqCKT622kFSARp/8GY15JOmulKTqfZzAkz/U7xEAwL00Z1a4Ff0U+I+SYs8FlgDPLym+mm856QR9SYnvcQ9wM/BS6nf3UGqznwKHA0sjg9axALgeeDEx0/pW6bWU2zPzJ8Ca2B9A/2g58HrgsxW81+9IRfo/YxEgVeEq0vw2EbPlNsLuxPbML7tdWM5uGNdbSFVg7m221aMtAA6meoeQHjnk3n6brc3tYmAmHfRp8u/8XtqDxKwf0I89SHcbcm+7LW+7EtiOfHYgXZ3k3g82W9vaQ6TRPJ29yzaTNOQh9wcxUXtlWTtgAtOBt5Oey+beB7Zq2y2kR051eIQ3CTgG5wmw2SLaEuBzVLOMe+3tRL1vM36ivE3v2QxS569vU+99ZSvW7ge+SuofEznJT5QppM6B5wN/If/+stma0paR7qSdRMV3k5twe2E/0jP2ybkTWcl3gBeRKra6mApsD2xNWg9hVt50VNADpDs815E6x5YxvK8Mk4BtgW1Is1n2My231AWPAH8lPcr9Halo1iq8knSizV2pjbUfk668JUlSyQ4gdYzIffL/Bun5uyRJqsiupA5QOU78y4H/oh4dryRJ6pzZwJep9uR/J2kOZkmSlNk+lD9McDFwBh2diEGSpLoaBg4C/kDsiX8RaSzmE6rbFEmS1K9h4Lmk2QPvZ7CT/jLg56Q51derNHtJkirWhHkA+jWJNIHQHqQx8dsCm5DGxK8FPEyaP/0+0iOEG4DLgUtJxYMkSZIkSZIkSZIkSZIkSZIkSZIkSZIkSZIkSZIkSZIkSZIkSZIkSZIkSZIkSZIkSZIkSZIkSZIkSZIkSZIkSZIkSZIkSZIkSZIkSZIkSZIkSZIkSZIkSZIkSZIkSZIkSZIkSZIkSZIkSZIkSZIkSZIkSZIkSZIkSZIkSZIkSZIkSZIkSZIkSZIkSZIkSZIkSZIkSZIkSZIkSZIkSZIkSZIkSZIkSZIkSZIkSZIkSZIkSZIkSZIkSZIkSZIkSZIkSZKkHv0vENhXsC64MN4AAAAASUVORK5CYII=;" vertex="1" parent="1">
          <mxGeometry x="660" y="500" width="40" height="40" as="geometry" />
        </mxCell>
        <mxCell id="W4ZQf7grJeuH_FmLfWgL-21" value="" style="shape=image;verticalLabelPosition=bottom;labelBackgroundColor=default;verticalAlign=top;aspect=fixed;imageAspect=0;image=data:image/png,iVBORw0KGgoAAAANSUhEUgAAAgAAAAIACAYAAAD0eNT6AAAABHNCSVQICAgIfAhkiAAAAAlwSFlzAAAOxAAADsQBlSsOGwAAABl0RVh0U29mdHdhcmUAd3d3Lmlua3NjYXBlLm9yZ5vuPBoAACAASURBVHic7d13tB1lvf/xdyARQwApkVBFAujFCoTuRUXBio1iQRcqakQvqCgWLl4LKqjLa+UqQbFQlB9guYgFFBFB6U0lIEiVBAKISaip5/fHc3KNh3NO9t7znXn27Of9WmtWWJr5zndP9p757JnZzwOSJEmSJEmSJEmSJEmSJEmSJEmSJEmSJEmSJEmSJEmSJEmSJEmSJEmSJEmSJEmSJEmSJEmSJEmSJEmtNBE4GPgVMA9YBNwKfBvYOWNfuawFfAD4A3A/8DBwA/AVYOuMfeWyIfBp4GrgweHlKuBTw/9fabYBvkp6TzxMeo/8gfSemZKxr1x2Ab5DOmYsIh1DfgW8lXRskdSntgL+BAyNsSwHjgMm5WqwYbsDcxh7fywGjsjWXfMOABYy9v5YCOyfrbvmfYj0Hhhrf9wJ7Jatu2ZNAr5OOkaMtT+uJR1jJPWZzYC5jP3hXXk5JVOPTdqJ9I2uk/1xVKYem3QA4x/cVw6JJYSA/6Kz98ZDwIxMPTZlAnAqne2POcCmedqUNJZf0NkHeMXyhjxtNmIScBOd74tlwA5ZOm3Ghoz/zX/ksgB4YpZOm7EjnYWhFctfGOyrZm+ku2PH2XnalDSaHejuAzxEulUwqLo9oA0Bp2fptBmfpvv9cXSWTptxJt3vj0EOzNfR/f7YLkunkh7jY3T/AR4CtszRbAN+QPf74gEG9yGna+h+f1yVpdP6TSQ9+Njt/jg1R7MNmE5vx46P5mhWsVbL3YBC9Po0+6A+0NPL/lgLmBbdSJ/o5d95UH8hsTG9Pd0/qPuj19c1qPujKAaAwdDrz5XWCe2if7g//tVaPayzdngX/aGXfQHuj5EGdX8UxQAgSVKBDACSJBXIACBJUoEMAJIkFcgAIElSgQwAkiQVyAAgSVKBDACSJBXIACBJUoEMAJIkFcgAIElSgQwAkiQVyAAgSVKBDACSJBXIACBJUoEMAJIkFcgAIElSgQwAkiQVyAAgSVKBDACSJBXIACBJUoEMAJIkFcgAIElSgQwAkiQVyAAgSVKBDACSJBXIACBJUoEm5m6gQZOBFwEzgA2BCXnbCbV9j+sdArw4spE+sXGP630CmB/YR9vNyt1ADdbtcb2NGcz9sWWP623PYO2PIWAecBVwLvBI3naaMUgnwfEcDBxLOvFLkjSWecCRwHdyN1K31XM30IAvkk7+U3I3Iknqe2sBrwLWJl0NGFiDHgDeRjr5S5LUjd2B24FrcjdSl0G+BTAZuA0v+0uSenM36TmJR3M3UodB/hXAi/HkL0nq3UbAXrmbqMsgB4AZuRuQJLXejrkbqMsgB4CpuRuQJLXetNwN1GWQA8AgvzZJUjMG9lwysC9MkiSNzQAgSVKBDACSJBXIACBJUoEMAJIkFaik2QA7dQpwYe4mJEmh9gDelLuJfmIAeKwLgRNyNyFJCmcAWIm3ACRJKpABQJKkAhkAJEkqkAFAkqQCGQAkSSqQAUCSpAIZACRJKpABQJKkAhkAJEkqkAFAkqQCGQAkSSqQAUCSpAIZACRJKpABQJKkAhkAJEkqkAFAkqQCGQAkSSqQAUCSpAIZACRJKpABQJKkAk3M3UDBJgMvAmYAGwIT8rbzL5YCdwEXAhcBy/K2I6kHqwN7AP8ObEx/He+HgHnAVcC5wCN52ylTP70hSnIwcCzpxN/vZgOHAb/J3Yikjr0Q+Bqwbe5GOjAPOBL4Tu5GSuMtgOZ9ETiRdpz8AZ4GnAMclLsRSR15M/BL2nHyB5gGfBv4Qu5GSmMAaNbbgMNzN9GDicA3gR1zNyJpXDuTPqttvLr7AeAtuZsoiQGgOZOBY3I3UcHjgM/lbkLSuD4HTMrdRAXHAo/P3UQpDADNeTHtuew/lj2BzXI3IWlUmwLPy91ERRsBe+VuohQGgObMyN1AgAnA9rmbkDSqneivXxP1yluNDTEANGdq7gaCrJ+7AUmjekLuBoJMy91AKQwAzRmUfX137gYkjeqe3A0EGZRjZd9zR6sbS4BLczchaVR/ABbnbkLtYQBQN04D5uduQtKoFgBn5m5C7WEAUKfuBf4zdxOSxnUkcF/uJtQOBgB14l7glcCduRuRNK47SJ9VQ4BWyQCg8SwGTgF2AC7J3IukzlxM+syeis8EaBxtHC6yNKeQZuVr0hJgLumkv6DhbUuq7m/Am4D/AHYFNqH5EQL3GO5BfcoA0P8uBE7I3YSkVlpAmswrFwNAH/MWgCRJBTIASJJUIAOAJEkFMgBIklQgA4AkSQUyAEiSVCADgCRJBap7HIAdgH2ArYDJNW9rpBkNb0+SNHj2Ak5veJuPAH8FzgaurmsjdQWAzYBvAi+pqb4kSU2YPrzkcDTwC+AdwJzo4nXcAtgKuAxP/pIkVfVS0jk1PIREB4CJwE+AjYPrSpJUqk2AHxN81T46ABwEPCO4piRJpXsWwXMrRAeANwTXkyRJSeg5NjoAbBdcT5IkJaHn2OgAsHZwPUmSlKwTWSw6ANwVXE+SJCVzI4tFB4Dzg+tJkqTkN5HFogPA8cBQcE1Jkko3BMyKLBgdAC4Dvh5cU5Kk0h0HXBFZsI6RAA8HTq2hriRJJToZ+EB00ToCwBLSYAUHAtfVUF+SpBL8GXg9aZC9JdHF65wN8AfDy5ak+QHWq3Fbo5lJmsVJkqRe/Ro4oeFt/gO4Gbi1zo3UPR0wpBdQ64sYgyd/SVJVtwBn5G6iDnXcApAkSX3OACBJUoEMAJIkFcgAIElSgQwAzVna43rhP/2QpAb0euzymNcQA0Bzep0oKXTyB0lqyN09ruekcg0xADTnwh7WWQJcGt2IJDXgD8DiHta7ILoRjc4A0JyLgNldrnMaML+GXiSpbguAM7tc58/AxTX0olEYAJqzDDiUzp8FuBf4z/rakaTaHQnc1+HfXUo6Ri6rrx2tzADQrPOBg1n1ZbF7gVcCd9bekSTV5w7SsWxVIWAR8Fa8/N8oA0DzTgZ2B84jze+8ssXAKcAOwCUN9yVJdbiYdEw7lcd++RkijbW/O+nYpwY1MReAHutK0lwFm5I+GOuTnpi9hHTfTJIGyd9Is8T+B7ArsBFwP+lY6C+dMjEA5DVneJGkEiwAzsndhBJvAUiSVCADgCRJBTIASJJUIAOAJEkFMgBIklQgA4AkSQUyAEiSVCADgCRJBTIASJJUIAOAJEkFMgBIklQgA4AkSQUyAEiSVCADgCRJBTIASJJUIAOAJEkFMgBIklQgA4AkSQUyAEiSVCADgCRJBTIASJJUIAOAJEkFMgBIklQgA4AkSQUyAEiSVCADgCRJBTIASJJUIAOAJEkFMgBIklQgA4AkSQUyAEiSVCADgCRJBTIASJJUIAOAJEkFMgBIklQgA4AkSQUyAEiSVCADgCRJBTIASJJUoIk11p4EvBZ4BbAlMLXGbY2m6e1JkgbP64G9Gt7mfcCtwFnAGcCShrdfyU7ATcBQC5eZNewPSVJeM8l/fulluRGYUcP+qOUWwO7ABcDWNdSWJKkk2wC/A3aNLhwdANYiXa6YHFxXkqRSrQmcCUyJLBodAA4BNgmuKUlS6TYF3hlZMDoA7BtcT5IkJaHn2OgAsG1wPUmSlDwtslh0AFgjuJ4kSUpCz7HRAeCO4HqSJCm5PbJYdAA4J7ieJElKQs+x0QHgy8Di4JqSJJVuMXBcZMHoAHArcFRwTUmSSnckcHNkwTpGAvwC8FFgeQ21JUkqyXLSF+svRheuazbAz5DmAzgDeKimbUiSNKgeBE4HdgSOqWMDdc4GeBVpNsCJwDSa/4ngZ0izOEmS1KvTaP7W9iLgbmBZnRupMwCssBSY08B2RlqYYZuSpMGyELgldxN1qOsWgCRJ6mMGAEmSCmQAkCSpQAYASZIKZACQJKlABgBJkgpkAJAkqUAGAEmSCmQAkCSpQAYASZIKZACQJKlABgBJkgpkAJAkqUBNzAYodWsCsBWwPbANsDWwJbDB8DKZNL30msBDpHmzHwDmAX8bXq4H/gRcBzzSbPuS1P8MAOoHE4DtgL2BFwI7A+t2uO6U4WUaKSiMtBS4ErgI+DVwPmmubUkqmgFAOe0GvBbYH9ispm1MBHYZXj5AulJwDvAD4GxgcU3bHc984AkZttuJhcASYAHpisptwB3ADcDlw38uy9XcGO6j2u3MqcDyoF6ashdweoX1TwbeG9SLWsoAoKY9ATgIOAR4Wobtr00KHPsDfwdOAb4G3Jyhl360zvCfGwDTSSFtZQ8Cl5DC01nArc21Nqb1KO95pkmk192rNaMaUXuV9qFRPtOAz5Huz3+VPCf/kTYgfQu6EfgRsFPedlphLdK3zy8DtwBXAe/in8FBUksYAFS3dYDPkr4pfoj0DbzfrAa8BriUFASenredVtke+Dowh3QlZZO87UjqlAFAdZkAvAO4Cfgw6cn9fjeBFASuAb6E32q7sRZwKPBX4AtUuzwtqQEGANXhKcBvgROADfO20pOJwPtID7y9MnMvbTOZ9LDl9aRnPST1KQOAor2L9A36ubkbCbAx8L/AifTnrYt+Ng34HulJdfed1IcMAIqyDulg/3Xacbm/GwcDV9AfDy62zQGkfedzFVKfMQAownTgYtLBflA9hfSQ4H65G2mhpwC/B56TuxFJ/2QAUFXPIZ0YS/h2vBbpKsf7cjfSQk8AziX9hFBSHzAAqIoXkQ7qU3M30qDVSL8Q+HzuRlpoTdIzFY63IPUBA4B69QrSSHCljij2QeC/czfRQmuS3jeb525EKp0BQL14AelS+Bq5G8ns/cARuZtooY2AH5KGs5WUiXMBqFs7Aj8BHt/gNueShpz9I2l637tIE8DMH+5jPWB90myAzwSeBcyg/hPM1cBJNW9jUO0EHAkcnbsRqVQGAHVjE9LJv4nfdV9EulT8C+DPPay/DumBs5eRJv6Jnn3vImAf0qx5TfstaZrjKJNI0y+vWJqaqfAo0vvpjw1tT1IhZgFDPSwzczTbAmuQZoHrZZ92uvydNIzsvwX3PoU0LPHVQX3+nGrPPsyvuP26hyieDOxOmijpFOCeiv2Ot5wb0O+yij208VboS6n2mr/ZfMvZzaS3fTUrR7OqxgAQ6yvUdxJYSJowaN0GXsdepG+cvfb6Y6o/+9DvAWCkx5GuovycdOUh+t9/z4r9GQAMAJ0wAIzQxje+mrcPcFgNdYeAbwFbAB8hnRjr9mtgB9Jv+R/uct0TSCfCRdFN9bnFwJmk2ynbEfOtfWWfCK4nqQMGAK3K+qSx8CcE172F9GuCdwD/CK69KktJVzR2IA1i1InPA4eQvm2W7M/Ai0nfph4Nqvlc4m/7SFoFA4BW5fPEz+h3Fukp/d8G1+3WX4B/B44f5+8Mka5OfHj4v5V8kxTgosLb24LqSOqQAUDj2YM0EU6kTwCvppnL/Z1YSprB8P089tv98uH/73NNN9USFwMvBx4JqPX6gBqSumAA0FgmkJ7Ij7r0PwQcCnyS/vwm/SXSt9AVvS0B3sgAPwAU5GLg8IA6m1HGfBJS3zAAaCyvA3YOqjUEvB34n6B6dfke8B7Sw4GvBk7L205rzAJ+F1Bn74AakjpkANBoVgM+HljvKODbgfXqdBzwVNJP3tS5jwXU2CWghqQOGQA0mlcT91T2LODYoFpNuTN3Ay10ATC7Yg1/CSA1yACg0XwwqM7VpNHkVIafVlz/qXhMkhrjh00jPRvYNaDOQ8CBlDdoTsl+X3H9NUkTO0lqgAFAIx0SVOdjwA1BtdQOEf/eTQ9zLBXLAKCVrQG8IaDObOBrAXXULvcH1GhipklJGAD0r/YmZirYw0m/o1dZFgfUmBRQQ1IHDABa2X4BNS4nfrIYtUPE5fsHAmpI6oABQCtMIE0xWtVnA2qonbYMqLEwoIakDhgAtMLTgWkVa9wO/CSgF7XTsyuuv5z+mSNCGngGAK2wZ0CN75MO4irTSyqufztxUwxLWgUDgFaIGIb1+wE11E4bAS+qWOP6iEYkdcYAoBW2q7j+zcCfIxpRKx0OPK5ijT9FNCKpMwYAQfr9/1Mr1rggohG10lOJGfL51wE1JHWozgCwIfBp0njwD5KmhG1ymVnjaxs0WwATK9b4bUAfap/JpGmT16hY5xHgourtSOFm0vz560HgKuBTpHNpLaoe9MdyAHAijurVFhE/37o6oIba5XHAmVS/fQRp7AgfAJSSKcD2w8t7gYNJn7VQdVwBOAD4f3jyb5MnVVx/OekZAJVjA9JJ+2VB9b4dVEcaNGsDpwP7RxeODgAbkr75Twiuq3pVnYHtb6RLuCrDK0kP7D0vqN5c4OdBtaRBNIF0bn1iZNHoAPAe/ObfRlUDwN0hXaifrQ68HDgP+F9g48DaXwaWBtaTBtE6wGGRBaMDwD7B9dSMKRXXfyikC/WbxwO7kh7mvR04G3hB8DbmAMcF15QGVeg5NvohwK2C66kZVYOgE7g069XE33JZm3QlaD3SZcYZwLOof3a+j+PtI6lTW0cWiw4AQ8H1JD3W93I3EOR8fPhP6kboOTb6FoBPgrfToorrrxXShUryEPAO/NIgdSP0HBsdAM4OrqdmLKi4vgFA3RgC3o5fGKRu/TSyWHQA+BreD26jqlOwbhTShUrxcdLogZI6t4B0jg0THQDuIY1Y5GW9dqn6M77NSUPCSqtyPOlXBZI6N0Q6t94XWbSOkQDPBF4LLKyhtupxe8X1VyP46VQNpOOBd+MXBKkbC0ijAP4ounBdkwGdSTohfIo0ocGDNW1HMW4LqLF9QA0NpuXAR4F30Z8n/6rTGOfQxp7VuRWTAR1NOpeGn/wH3SycRbAb86g2e9WJzbfcWvNpfnaxXMsC4FUxu21Myyr2WHUkzBwOpNprntV8y9n1OqvfwO6rOqcDVrv8qeL6z49oQgPlZ8AzSEMH12lZxfXb+CuWqj0PhXShVjMAaIWrKq4/nXSwl+YCbyQNW/q3zL10YtPcDfSgas/LQ7pQqxkAtMKFATUODKih9roP+AjpnuX3G9zuoxXX3zKki2Y9ueL6iyOaULsZALTChVS/lPpGfE+V6ArSqH5PBj5H82P7z624/lNDumhW1Z6r7jMNAA/WWmE+cHnFGk8CXhPQi/rftcBngB2AnYBvkW9WyKq3GXYO6aI5awDbVazRhlszqln0ZEBqt5+Qpn+t4sPADwN6Uf+4D7iBFBAvA35Pf51A7qy4/s6kL0NtuS++PSkEVDEnohG1mwFAK/sx8NmKNXYCXgL8sno7GsN7qX7feywLSJNDPUAaIfI28n2z79RNFdffgBQCLgnopQkvDahRdZ9pABgAtLIbSd/wql4S/SrwTKrPMqjRfRdH2lzZpQE1XkV7AsCrK65/B3BXRCNqN58B0EgR87NvAxwWUEfqxGXEPMC6ekAvdXs6KVxX0Zago5oZADTSacQM3fxJYNuAOtKqPABcX7HG5sDLA3qp22HAhIo1LotoRO1nANBIC0hPdFe1JnA6zhKoZpwTUOMDATXqNA14U0CdcwNqaAAYADSaLwNLAuo8g/Q8gFS3MwNqPJeYB+zq8lFgSsUaN1F92G8NCAOARnM7cFJQrbcDRwXVasrmuRtQ1y4l5qeJn6c/Z9rblpiJyvyJrv6PAUBj+QRxI7p9CnhbUK267Uv6lvT23I2oK0PAGQF1nkH/BdbVge8QE0wi9pHU95wOuLrPEjct7HLgPc2237WXkX66uKLfI2raTtXpgNepqa+22wpYSvX36mJgj4Z7H8/RxHwGf990433G6YALYgCobi3S7YCoEDBEOpj145Wng/jnyX/l5TM1bMsAUJ8fEfM+nQds0XDvo9mPFEYjXtN+DffebwwABTEAxHglsQFgiDRP/PpNvohxTCCd5Mfr9+vEhhYDQH3+nbj36Y3knSr4xcDDo/TVy3IL7RjnoE4GgIIYAOKcSnwIuBV4YZMvYhRbAOfRWb/fByYFbdcAUK9O/007DQHTm20fSJNqPdJDv2MtBzfbfl8yABTEABDnCaQx4aNDwHLSsLZTm3ohw1Yj/Tsv6LLfs4kZ18AAUK9nEvMswIrlPmCvhnpfDfg4cZf9h0jTNffjbbemGQAKYgCI9RzSw1HRIWCINK790cC6DbyOV5B+B91rrxdQ/QRsAKjf/xD7Hl1OOqasXWPPWxN79WLF8twae24TA0BBDADxDqGeALBi+QdpEKKnB/e9JvBW0hCoEX1eCTyxQj8GgPpNJT3IF/0evQN4J7FjBWxMet8/WkO/Jwf22XYGgIIYAOrxDeoNASuWS4Ajge3obezztUn3UU8gBYvo/q6n9wGDDADNeCmxl9JHBoFP0vvzAasBewLfI+5Bv5HLLaTbd0oMACM4HbC6dSiwEdWnJF2VXYaXY0jf5K4GrgWuA+YC95JO7JOB9YaXp5AGcnkmMIO4h/ZG82/ARcDepAfF1H9+AXwFeF8NtTcHPja8XE+6dH8FcAPpAdeFpG/0kALb+qRZMrcl/VJhT+p99mUpaYbDBTVuQ+pbXgGoz+OB39DMlYB+XpYBb+lh/3kFoDlrAJeT5/1R19WHTpaPROy8AeMVgBF8MlS9eBTYh7JnFVtGGt74u5n70PgWkUZ4vCnDtqtO29urE0mjeErjMgCoVw8DrwLOyt1IBouB1+LJvy3uJT0PMC93Iw34GelhXWmVDACq4lHS5DklTfl7P+nqx49yN6Ku3Ez6Ceg/cjdSowuB15Hu/0urZABQVcuA9wLvJn0zHmRXATsCv8rdiHpyOekBvIhpg/vNT0lDBz+UuxG1hwFAUb4B7E76pjWITibNEHdr7kZUyWxgV9JgUIPiu6QrcVHTd6sQBgBFupL087vvZu4j0j2kn1MdRHruQe03F3g+8JPMfVS1GHg/aZx/L/urawYARVtAGnXvJaT5A9pqiPQ09bakiYA0WO4nDRT1ZtoZ7G4Dngd8ifRelbpmAFBdzgGeBhwFPJi5l25dSzq4vp10otDgOol06+rS3I10aBlwPPAs0miZUs8MAKrTI6SR/J5CGuu8379pXUO6l7o96YlqleFaYDfSTzv7+QHBy0iTcr0LeCBzLxoABgA14S7gcNK46ceS7qv3k0tIQxvvAPwYL6mWaAg4gzQR1cdJYwf0i6uAA0gPL7blSoWUlUMB9681SA/WnUvsvO3dLHeSRkvbtubXOhqHAu5/k0mz/v2FPO/P5aRBfV5Q9wstiEMBj+BkQMphEXDq8LIhsB9puNY9gSk1bXOINJHQecDPh/9cVtO2VmU+6QCv/vUI6cA/i3RV4ABSaN265u3OJl2JOJnB/Umt+oQBQLndQxpD4BukOdZ3AXYeXp5Num3Qy6x+d5JmZrsBuJg0edHdAf1GeHLuBtSV64aXT5Kmp34O6XL8bvQ+HTDAEtLzBxcPLxeQfqIoNcIAoH6ymPTw3coP4E0knTA3BaaRrhisuEowiTQc8ULSEK8PAPeRLtv6kJSiDZGmpb4aOG74f5sCbAE8iTRF8PrjrL+cFEJvJz1sOIfBHz1TfcwAoH63FPjr8CL1m4dIl+1n525E6pa/ApAkqUAGAEmSCmQAkCSpQAYASZIKZACQJKlABgBJkgpkAJAkqUAGAEmSCmQAkCSpQAYASZIKZACQJKlABgBJkgpkAJAkqUBNzAY4iTSF6xoNbGtl6zS8PUnS4FkHmN7wNhcB9wBLGt5umB2BM0nTZQ61aJlZx86QJGU1k/znl26WB4EzgBl17Ayo7xbAfwGXAfsBa9a0DUmSBtUUYH/gcuCoOjZQRwD4EHA0MKGG2pIklWQC8GngiOjC0QFgG1KjkiQpzjHA1pEFowPAYaSH/iRJUpxJwKGRBaMDwIuC60mSpCT0HBsdAJ4UXE+SJCVbRBaLDgCPBteTJElJ6Dk2OgBcH1xPkiQloefY6ADwo+B6kiQp+WFksegAcDwwJ7imJEmluxOYFVkwOgA8BBwAPBxcV5KkUj1MDefWOkYCvBh4LnBjDbUlSSrJX4A9gEuiC9c1G+CVwDNI4xi/gjST0hNr2tZYpuKMgJKkahYC9zW8zXuBm4GfkibVW9rw9ltvFs4GKElKep0NMPS+ez+pazZASZLUxwwAkiQVyAAgSVKBDACSJBXIACBJUoEMAJIkFcgAIElSgQwAkiQVyAAgSVKBDACSJBXIACBJUoEMAJIkFcgAIElSgQwAkiQVyAAgSVKBDACSJBXIACBJUoEMAJIkFcgAIElSgQwAkiQVyAAgSVKBDACSJBXIACBJUoEMAJIkFcgAIElSgQwAkiQVyAAgSVKBDACSJBXIACBJUoEMAJIkFcgAIElSgQwAkiQVyAAgSVKBDACSJBXIACBJUoEMAJIkFcgAIElSgQwAkiQVyAAgSVKBJuZuoHCbATsA6wPzgIuB+Vk7kqT6rAfsCkwD7geuAu7M2pEG0ixgqIdlZgO97QycDywfse3FwKnAkxroQZKasgXwfdIxbuVj3nLgPGDHBnqYSW/nhFkN9KZg/RoA3sxjPwQjl3uB3WruQ5KasDtwH+Mf8xYBB9XchwFgBJ8BaNYLgW8Bk1bx96YCZwGb196RJNVnC9KxbINV/L3HAScCz6+7If2TAaA5qwNfo/PnLqYCx9TXjiTV7lhWffJfYSJwHOlYqQYYAJqzB7Btl+u8Dli3hl4kqW7rAvt3uc7T8fZnYwwAzdmjh3UmAbtENyJJDdiNVd/uHM1zoxvR6AwAzdmox/U2Ce1CkprhMa/PGQCa0+uYC70kaEnKrddjl8e8hhgAJEkqkAFAkqQCGQAkSSqQAUCSpAI1MRnQdGArmv89+/SGtydJGjzTgQMa3uZ84Gbgljo3UlcAmAAcCBxF94PfSJLUL/YaXnKYDXwG+AFpXoJQddwCmAScMrx48pckqTdPI80QezI1/DyyjgDwFdK3f0mSVN0bgS9FF40OALsAhwTXlCSpdO8GdoosGB0A3kW6/y9JkuJMIPgLdnQAeF5wPUmSlOwZWSw6AGwcXE+SJCWhGlFn3QAABrBJREFU59joALAwuJ4kSUoWRBaLDgDXBNeTJElJ6Dk2OgD8ILieJElKQs+x0QHgZOCPwTUlSSrdNaQB9sJEB4ClwGuAucF1JUkq1VxgX2BZZNE6RgK8BdgZ+FkNtSVJKsnZpAGAbo0uXNdkQHOAfYDthv/cBphc07bGMgNnBJQkVXMLcGXD23wYuIl08r+2ro3UPR3wNeT7ZcAsYGambUuSBsOvgXfmbqIOddwCkCRJfc4AIElSgQwAkiQVyAAgSVKBDACSJBXIACBJUoEMAJIkFajucQBU3R4ZtrkEuBu4GJifYfuSYqwH7ApsBExqeNs5jl3qggGg/71peMlhCXAGcCRwR6YeJHVvC+BYYH+aP/GrJbwFoPFMAg4kDYO5W+ZeJHVmd9Jn9g148tc4DADqxFTgLGDz3I1IGtcWpM/qBrkbUf8zAKhTU4FjcjchaVzH4slfHTIAqBuvA9bN3YSkUa1LuucvdcQAoG5MAnbJ3YSkUe2G9/zVBQNAc5bnbiDIRrkbkDSqDXM3EGRQjpV9zwDQnHtzNxDk77kbkDSqQRmzY17uBkphAGjOFbkbCDAEXJ27CUmjupz0GW27y3I3UAoDQHN+RfuT7XnAnNxNSBrVXOD83E1UdBfwm9xNlMIA0JxHSCPqtdVi4MO5m5A0rg+TPqtt9RHg0dxNlMIA0KzvAP+du4keLAXeBlyVuxFJ47oCeAfpM9s2XwBOyt1ESQwAzTsCeCtpsp02uA54IXBK7kYkdeQkYG/SZ7cN7gLeDHwwdyOlcTKgPL4LnAbsBexI+mndhJwNjbCE9KH8HfB7/FmO1Da/BZ4NPIc0K9/G9NcYAUOkL0GXk54t8rJ/BgaAfB4Fzh5eJCnaMlKI/13uRtSfvAUgSVKBDACSJBXIACBJUoEMAJIkFcgAIElSgQwAkiQVyAAgSVKBDACSJBXIACBJUoEMAJIkFcgAIElSgQwAkiQVyAAgSVKBDACSJBXIACBJUoEMAJIkFcgAIElSgQwAkiQVyAAgSVKBDACSJBVoYu4G+tAeuRuQJIXz2D6CAeCx3jS8SJI0sLwFIElSgQwAkiQVyAAgSVKBDACSJBXIACBJUoEGOQAsz92AJKn1BvZcMsgB4N7cDUiSWm9e7gbqMsgB4IrcDUiSWu+y3A3UZULuBmo0GbgVmJa7EUlSK90FTAcezd1IHQb5CsAjwJG5m5AktdZHGNCTP8DquRuo2TXA2sDuuRuRJLXKF4aXgTXoAQDgXOB2YFdgrcy9SJL6213AoQz4yR8G+xmAkR4P7AXsCGzEYL32vYEte1jvV6TnJAbNa4F1e1jvdGB+cC/9YGaP650Q2kV/WJf0/ujWfNL7Y9BsSTp+dOtW0vFjUAwBdwOXA+cxwJf9NXh+SHoDd7vsm6PZBsymt/2xbY5mG9DLvhjK0mn9tqW3fTE7R7MN2Jfe9scPczSrWIP8EKAkSRqDAUCSpAIZACRJKpABQJKkAhkAJEkqkAFAkqQCGQAkSSqQAUCSpAIZACRJKpABQJKkAhkAJEkqkAFAkqQCGQAkSSqQAUCSpAIZACRJKpABQJKkAhkAJEkqkAFAkqQCGQAkSSqQAUCSpAIZACRJKpABQJKkAhkAJEkqkAFAkqQCGQAkSSqQAUCSpAIZACRJKpABYDA80ON6C0K76B/uj3/Vy/5YGN5Ff+j1veH++FeDuj+KYgAYDLf0uN7NoV30j172x4PAvOhG+kQv/86D+t64G3ioh/UGdX/0+roGdX8UxQAwGH7awzp/Am4L7qNf9LI/fgEsi26kT5zdwzq97MM2WAr8sof1BnV/3ALM7mG9Qd0fUiv9HBjqYnldnjYbMQm4kc73xTJg+yydNmND0iXbTvfHfGBqlk6bMYP0b97p/rgBmJil02YcSHfHDk/+Up/ZFJhDZx/gkzL12KQZwMN0tj+OzNRjk/YHlrPqfbEc2DdTj036KJ29Nx4CdsjUY1MmAKfQ2f64E9gkT5uSxjMduJbxD+5fZbC/zaxsV9IBa6z9sQh4f7bumrc/6UHH8b75l3DyX+EI0ntgrP1xB7BLtu6aNQk4jvFD4tWkY4ykPjUReAtwDumBp0Wk+3zfAnbM11Y2U0gn+YuAv5OuCswGvkSZB7MnAkcDV5KeAH9g+L8/yWBf9h/LVsCXSe+Jh0nvkYuAw4E1M/aVy07AiaRjxiLSMeQc4M3A6hn7kiRJkiRJkiRJkiRJkiRJkiRJkiRJkiRJkiRJkiRJkiRJkiRJkiRJkiRJkiRJkiRJkiRJkiRJkiRJ6tX/B3t1BdhEqYtjAAAAAElFTkSuQmCC;" vertex="1" parent="1">
          <mxGeometry x="610" y="484" width="32" height="32" as="geometry" />
        </mxCell>
        <mxCell id="W4ZQf7grJeuH_FmLfWgL-23" value="" style="shape=image;verticalLabelPosition=bottom;labelBackgroundColor=default;verticalAlign=top;aspect=fixed;imageAspect=0;image=data:image/png,iVBORw0KGgoAAAANSUhEUgAAAgAAAAIACAYAAAD0eNT6AAAABHNCSVQICAgIfAhkiAAAAAlwSFlzAAAOxAAADsQBlSsOGwAAABl0RVh0U29mdHdhcmUAd3d3Lmlua3NjYXBlLm9yZ5vuPBoAACAASURBVHic7d13tB1lvf/xdyARQwApkVBFAujFCoTuRUXBio1iQRcqakQvqCgWLl4LKqjLa+UqQbFQlB9guYgFFBFB6U0lIEiVBAKISaip5/fHc3KNh3NO9t7znXn27Of9WmtWWJr5zndP9p757JnZzwOSJEmSJEmSJEmSJEmSJEmSJEmSJEmSJEmSJEmSJEmSJEmSJEmSJEmSJEmSJEmSJEmSJEmSJEmSJEmtNBE4GPgVMA9YBNwKfBvYOWNfuawFfAD4A3A/8DBwA/AVYOuMfeWyIfBp4GrgweHlKuBTw/9fabYBvkp6TzxMeo/8gfSemZKxr1x2Ab5DOmYsIh1DfgW8lXRskdSntgL+BAyNsSwHjgMm5WqwYbsDcxh7fywGjsjWXfMOABYy9v5YCOyfrbvmfYj0Hhhrf9wJ7Jatu2ZNAr5OOkaMtT+uJR1jJPWZzYC5jP3hXXk5JVOPTdqJ9I2uk/1xVKYem3QA4x/cVw6JJYSA/6Kz98ZDwIxMPTZlAnAqne2POcCmedqUNJZf0NkHeMXyhjxtNmIScBOd74tlwA5ZOm3Ghoz/zX/ksgB4YpZOm7EjnYWhFctfGOyrZm+ku2PH2XnalDSaHejuAzxEulUwqLo9oA0Bp2fptBmfpvv9cXSWTptxJt3vj0EOzNfR/f7YLkunkh7jY3T/AR4CtszRbAN+QPf74gEG9yGna+h+f1yVpdP6TSQ9+Njt/jg1R7MNmE5vx46P5mhWsVbL3YBC9Po0+6A+0NPL/lgLmBbdSJ/o5d95UH8hsTG9Pd0/qPuj19c1qPujKAaAwdDrz5XWCe2if7g//tVaPayzdngX/aGXfQHuj5EGdX8UxQAgSVKBDACSJBXIACBJUoEMAJIkFcgAIElSgQwAkiQVyAAgSVKBDACSJBXIACBJUoEMAJIkFcgAIElSgQwAkiQVyAAgSVKBDACSJBXIACBJUoEMAJIkFcgAIElSgQwAkiQVyAAgSVKBDACSJBXIACBJUoEMAJIkFcgAIElSgQwAkiQVyAAgSVKBDACSJBXIACBJUoEm5m6gQZOBFwEzgA2BCXnbCbV9j+sdArw4spE+sXGP630CmB/YR9vNyt1ADdbtcb2NGcz9sWWP623PYO2PIWAecBVwLvBI3naaMUgnwfEcDBxLOvFLkjSWecCRwHdyN1K31XM30IAvkk7+U3I3Iknqe2sBrwLWJl0NGFiDHgDeRjr5S5LUjd2B24FrcjdSl0G+BTAZuA0v+0uSenM36TmJR3M3UodB/hXAi/HkL0nq3UbAXrmbqMsgB4AZuRuQJLXejrkbqMsgB4CpuRuQJLXetNwN1GWQA8AgvzZJUjMG9lwysC9MkiSNzQAgSVKBDACSJBXIACBJUoEMAJIkFaik2QA7dQpwYe4mJEmh9gDelLuJfmIAeKwLgRNyNyFJCmcAWIm3ACRJKpABQJKkAhkAJEkqkAFAkqQCGQAkSSqQAUCSpAIZACRJKpABQJKkAhkAJEkqkAFAkqQCGQAkSSqQAUCSpAIZACRJKpABQJKkAhkAJEkqkAFAkqQCGQAkSSqQAUCSpAIZACRJKpABQJKkAk3M3UDBJgMvAmYAGwIT8rbzL5YCdwEXAhcBy/K2I6kHqwN7AP8ObEx/He+HgHnAVcC5wCN52ylTP70hSnIwcCzpxN/vZgOHAb/J3Yikjr0Q+Bqwbe5GOjAPOBL4Tu5GSuMtgOZ9ETiRdpz8AZ4GnAMclLsRSR15M/BL2nHyB5gGfBv4Qu5GSmMAaNbbgMNzN9GDicA3gR1zNyJpXDuTPqttvLr7AeAtuZsoiQGgOZOBY3I3UcHjgM/lbkLSuD4HTMrdRAXHAo/P3UQpDADNeTHtuew/lj2BzXI3IWlUmwLPy91ERRsBe+VuohQGgObMyN1AgAnA9rmbkDSqneivXxP1yluNDTEANGdq7gaCrJ+7AUmjekLuBoJMy91AKQwAzRmUfX137gYkjeqe3A0EGZRjZd9zR6sbS4BLczchaVR/ABbnbkLtYQBQN04D5uduQtKoFgBn5m5C7WEAUKfuBf4zdxOSxnUkcF/uJtQOBgB14l7glcCduRuRNK47SJ9VQ4BWyQCg8SwGTgF2AC7J3IukzlxM+syeis8EaBxtHC6yNKeQZuVr0hJgLumkv6DhbUuq7m/Am4D/AHYFNqH5EQL3GO5BfcoA0P8uBE7I3YSkVlpAmswrFwNAH/MWgCRJBTIASJJUIAOAJEkFMgBIklQgA4AkSQUyAEiSVCADgCRJBap7HIAdgH2ArYDJNW9rpBkNb0+SNHj2Ak5veJuPAH8FzgaurmsjdQWAzYBvAi+pqb4kSU2YPrzkcDTwC+AdwJzo4nXcAtgKuAxP/pIkVfVS0jk1PIREB4CJwE+AjYPrSpJUqk2AHxN81T46ABwEPCO4piRJpXsWwXMrRAeANwTXkyRJSeg5NjoAbBdcT5IkJaHn2OgAsHZwPUmSlKwTWSw6ANwVXE+SJCVzI4tFB4Dzg+tJkqTkN5HFogPA8cBQcE1Jkko3BMyKLBgdAC4Dvh5cU5Kk0h0HXBFZsI6RAA8HTq2hriRJJToZ+EB00ToCwBLSYAUHAtfVUF+SpBL8GXg9aZC9JdHF65wN8AfDy5ak+QHWq3Fbo5lJmsVJkqRe/Ro4oeFt/gO4Gbi1zo3UPR0wpBdQ64sYgyd/SVJVtwBn5G6iDnXcApAkSX3OACBJUoEMAJIkFcgAIElSgQwAzVna43rhP/2QpAb0euzymNcQA0Bzep0oKXTyB0lqyN09ruekcg0xADTnwh7WWQJcGt2IJDXgD8DiHta7ILoRjc4A0JyLgNldrnMaML+GXiSpbguAM7tc58/AxTX0olEYAJqzDDiUzp8FuBf4z/rakaTaHQnc1+HfXUo6Ri6rrx2tzADQrPOBg1n1ZbF7gVcCd9bekSTV5w7SsWxVIWAR8Fa8/N8oA0DzTgZ2B84jze+8ssXAKcAOwCUN9yVJdbiYdEw7lcd++RkijbW/O+nYpwY1MReAHutK0lwFm5I+GOuTnpi9hHTfTJIGyd9Is8T+B7ArsBFwP+lY6C+dMjEA5DVneJGkEiwAzsndhBJvAUiSVCADgCRJBTIASJJUIAOAJEkFMgBIklQgA4AkSQUyAEiSVCADgCRJBTIASJJUIAOAJEkFMgBIklQgA4AkSQUyAEiSVCADgCRJBTIASJJUIAOAJEkFMgBIklQgA4AkSQUyAEiSVCADgCRJBTIASJJUIAOAJEkFMgBIklQgA4AkSQUyAEiSVCADgCRJBTIASJJUIAOAJEkFMgBIklQgA4AkSQUyAEiSVCADgCRJBTIASJJUIAOAJEkFMgBIklQgA4AkSQUyAEiSVCADgCRJBTIASJJUoIk11p4EvBZ4BbAlMLXGbY2m6e1JkgbP64G9Gt7mfcCtwFnAGcCShrdfyU7ATcBQC5eZNewPSVJeM8l/fulluRGYUcP+qOUWwO7ABcDWNdSWJKkk2wC/A3aNLhwdANYiXa6YHFxXkqRSrQmcCUyJLBodAA4BNgmuKUlS6TYF3hlZMDoA7BtcT5IkJaHn2OgAsG1wPUmSlDwtslh0AFgjuJ4kSUpCz7HRAeCO4HqSJCm5PbJYdAA4J7ieJElKQs+x0QHgy8Di4JqSJJVuMXBcZMHoAHArcFRwTUmSSnckcHNkwTpGAvwC8FFgeQ21JUkqyXLSF+svRheuazbAz5DmAzgDeKimbUiSNKgeBE4HdgSOqWMDdc4GeBVpNsCJwDSa/4ngZ0izOEmS1KvTaP7W9iLgbmBZnRupMwCssBSY08B2RlqYYZuSpMGyELgldxN1qOsWgCRJ6mMGAEmSCmQAkCSpQAYASZIKZACQJKlABgBJkgpkAJAkqUAGAEmSCmQAkCSpQAYASZIKZACQJKlABgBJkgpkAJAkqUBNzAYodWsCsBWwPbANsDWwJbDB8DKZNL30msBDpHmzHwDmAX8bXq4H/gRcBzzSbPuS1P8MAOoHE4DtgL2BFwI7A+t2uO6U4WUaKSiMtBS4ErgI+DVwPmmubUkqmgFAOe0GvBbYH9ispm1MBHYZXj5AulJwDvAD4GxgcU3bHc984AkZttuJhcASYAHpisptwB3ADcDlw38uy9XcGO6j2u3MqcDyoF6ashdweoX1TwbeG9SLWsoAoKY9ATgIOAR4Wobtr00KHPsDfwdOAb4G3Jyhl360zvCfGwDTSSFtZQ8Cl5DC01nArc21Nqb1KO95pkmk192rNaMaUXuV9qFRPtOAz5Huz3+VPCf/kTYgfQu6EfgRsFPedlphLdK3zy8DtwBXAe/in8FBUksYAFS3dYDPkr4pfoj0DbzfrAa8BriUFASenredVtke+Dowh3QlZZO87UjqlAFAdZkAvAO4Cfgw6cn9fjeBFASuAb6E32q7sRZwKPBX4AtUuzwtqQEGANXhKcBvgROADfO20pOJwPtID7y9MnMvbTOZ9LDl9aRnPST1KQOAor2L9A36ubkbCbAx8L/AifTnrYt+Ng34HulJdfed1IcMAIqyDulg/3Xacbm/GwcDV9AfDy62zQGkfedzFVKfMQAownTgYtLBflA9hfSQ4H65G2mhpwC/B56TuxFJ/2QAUFXPIZ0YS/h2vBbpKsf7cjfSQk8AziX9hFBSHzAAqIoXkQ7qU3M30qDVSL8Q+HzuRlpoTdIzFY63IPUBA4B69QrSSHCljij2QeC/czfRQmuS3jeb525EKp0BQL14AelS+Bq5G8ns/cARuZtooY2AH5KGs5WUiXMBqFs7Aj8BHt/gNueShpz9I2l637tIE8DMH+5jPWB90myAzwSeBcyg/hPM1cBJNW9jUO0EHAkcnbsRqVQGAHVjE9LJv4nfdV9EulT8C+DPPay/DumBs5eRJv6Jnn3vImAf0qx5TfstaZrjKJNI0y+vWJqaqfAo0vvpjw1tT1IhZgFDPSwzczTbAmuQZoHrZZ92uvydNIzsvwX3PoU0LPHVQX3+nGrPPsyvuP26hyieDOxOmijpFOCeiv2Ot5wb0O+yij208VboS6n2mr/ZfMvZzaS3fTUrR7OqxgAQ6yvUdxJYSJowaN0GXsdepG+cvfb6Y6o/+9DvAWCkx5GuovycdOUh+t9/z4r9GQAMAJ0wAIzQxje+mrcPcFgNdYeAbwFbAB8hnRjr9mtgB9Jv+R/uct0TSCfCRdFN9bnFwJmk2ynbEfOtfWWfCK4nqQMGAK3K+qSx8CcE172F9GuCdwD/CK69KktJVzR2IA1i1InPA4eQvm2W7M/Ai0nfph4Nqvlc4m/7SFoFA4BW5fPEz+h3Fukp/d8G1+3WX4B/B44f5+8Mka5OfHj4v5V8kxTgosLb24LqSOqQAUDj2YM0EU6kTwCvppnL/Z1YSprB8P089tv98uH/73NNN9USFwMvBx4JqPX6gBqSumAA0FgmkJ7Ij7r0PwQcCnyS/vwm/SXSt9AVvS0B3sgAPwAU5GLg8IA6m1HGfBJS3zAAaCyvA3YOqjUEvB34n6B6dfke8B7Sw4GvBk7L205rzAJ+F1Bn74AakjpkANBoVgM+HljvKODbgfXqdBzwVNJP3tS5jwXU2CWghqQOGQA0mlcT91T2LODYoFpNuTN3Ay10ATC7Yg1/CSA1yACg0XwwqM7VpNHkVIafVlz/qXhMkhrjh00jPRvYNaDOQ8CBlDdoTsl+X3H9NUkTO0lqgAFAIx0SVOdjwA1BtdQOEf/eTQ9zLBXLAKCVrQG8IaDObOBrAXXULvcH1GhipklJGAD0r/YmZirYw0m/o1dZFgfUmBRQQ1IHDABa2X4BNS4nfrIYtUPE5fsHAmpI6oABQCtMIE0xWtVnA2qonbYMqLEwoIakDhgAtMLTgWkVa9wO/CSgF7XTsyuuv5z+mSNCGngGAK2wZ0CN75MO4irTSyqufztxUwxLWgUDgFaIGIb1+wE11E4bAS+qWOP6iEYkdcYAoBW2q7j+zcCfIxpRKx0OPK5ijT9FNCKpMwYAQfr9/1Mr1rggohG10lOJGfL51wE1JHWozgCwIfBp0njwD5KmhG1ymVnjaxs0WwATK9b4bUAfap/JpGmT16hY5xHgourtSOFm0vz560HgKuBTpHNpLaoe9MdyAHAijurVFhE/37o6oIba5XHAmVS/fQRp7AgfAJSSKcD2w8t7gYNJn7VQdVwBOAD4f3jyb5MnVVx/OekZAJVjA9JJ+2VB9b4dVEcaNGsDpwP7RxeODgAbkr75Twiuq3pVnYHtb6RLuCrDK0kP7D0vqN5c4OdBtaRBNIF0bn1iZNHoAPAe/ObfRlUDwN0hXaifrQ68HDgP+F9g48DaXwaWBtaTBtE6wGGRBaMDwD7B9dSMKRXXfyikC/WbxwO7kh7mvR04G3hB8DbmAMcF15QGVeg5NvohwK2C66kZVYOgE7g069XE33JZm3QlaD3SZcYZwLOof3a+j+PtI6lTW0cWiw4AQ8H1JD3W93I3EOR8fPhP6kboOTb6FoBPgrfToorrrxXShUryEPAO/NIgdSP0HBsdAM4OrqdmLKi4vgFA3RgC3o5fGKRu/TSyWHQA+BreD26jqlOwbhTShUrxcdLogZI6t4B0jg0THQDuIY1Y5GW9dqn6M77NSUPCSqtyPOlXBZI6N0Q6t94XWbSOkQDPBF4LLKyhtupxe8X1VyP46VQNpOOBd+MXBKkbC0ijAP4ounBdkwGdSTohfIo0ocGDNW1HMW4LqLF9QA0NpuXAR4F30Z8n/6rTGOfQxp7VuRWTAR1NOpeGn/wH3SycRbAb86g2e9WJzbfcWvNpfnaxXMsC4FUxu21Myyr2WHUkzBwOpNprntV8y9n1OqvfwO6rOqcDVrv8qeL6z49oQgPlZ8AzSEMH12lZxfXb+CuWqj0PhXShVjMAaIWrKq4/nXSwl+YCbyQNW/q3zL10YtPcDfSgas/LQ7pQqxkAtMKFATUODKih9roP+AjpnuX3G9zuoxXX3zKki2Y9ueL6iyOaULsZALTChVS/lPpGfE+V6ArSqH5PBj5H82P7z624/lNDumhW1Z6r7jMNAA/WWmE+cHnFGk8CXhPQi/rftcBngB2AnYBvkW9WyKq3GXYO6aI5awDbVazRhlszqln0ZEBqt5+Qpn+t4sPADwN6Uf+4D7iBFBAvA35Pf51A7qy4/s6kL0NtuS++PSkEVDEnohG1mwFAK/sx8NmKNXYCXgL8sno7GsN7qX7feywLSJNDPUAaIfI28n2z79RNFdffgBQCLgnopQkvDahRdZ9pABgAtLIbSd/wql4S/SrwTKrPMqjRfRdH2lzZpQE1XkV7AsCrK65/B3BXRCNqN58B0EgR87NvAxwWUEfqxGXEPMC6ekAvdXs6KVxX0Zago5oZADTSacQM3fxJYNuAOtKqPABcX7HG5sDLA3qp22HAhIo1LotoRO1nANBIC0hPdFe1JnA6zhKoZpwTUOMDATXqNA14U0CdcwNqaAAYADSaLwNLAuo8g/Q8gFS3MwNqPJeYB+zq8lFgSsUaN1F92G8NCAOARnM7cFJQrbcDRwXVasrmuRtQ1y4l5qeJn6c/Z9rblpiJyvyJrv6PAUBj+QRxI7p9CnhbUK267Uv6lvT23I2oK0PAGQF1nkH/BdbVge8QE0wi9pHU95wOuLrPEjct7HLgPc2237WXkX66uKLfI2raTtXpgNepqa+22wpYSvX36mJgj4Z7H8/RxHwGf990433G6YALYgCobi3S7YCoEDBEOpj145Wng/jnyX/l5TM1bMsAUJ8fEfM+nQds0XDvo9mPFEYjXtN+DffebwwABTEAxHglsQFgiDRP/PpNvohxTCCd5Mfr9+vEhhYDQH3+nbj36Y3knSr4xcDDo/TVy3IL7RjnoE4GgIIYAOKcSnwIuBV4YZMvYhRbAOfRWb/fByYFbdcAUK9O/007DQHTm20fSJNqPdJDv2MtBzfbfl8yABTEABDnCaQx4aNDwHLSsLZTm3ohw1Yj/Tsv6LLfs4kZ18AAUK9nEvMswIrlPmCvhnpfDfg4cZf9h0jTNffjbbemGQAKYgCI9RzSw1HRIWCINK790cC6DbyOV5B+B91rrxdQ/QRsAKjf/xD7Hl1OOqasXWPPWxN79WLF8twae24TA0BBDADxDqGeALBi+QdpEKKnB/e9JvBW0hCoEX1eCTyxQj8GgPpNJT3IF/0evQN4J7FjBWxMet8/WkO/Jwf22XYGgIIYAOrxDeoNASuWS4Ajge3obezztUn3UU8gBYvo/q6n9wGDDADNeCmxl9JHBoFP0vvzAasBewLfI+5Bv5HLLaTbd0oMACM4HbC6dSiwEdWnJF2VXYaXY0jf5K4GrgWuA+YC95JO7JOB9YaXp5AGcnkmMIO4h/ZG82/ARcDepAfF1H9+AXwFeF8NtTcHPja8XE+6dH8FcAPpAdeFpG/0kALb+qRZMrcl/VJhT+p99mUpaYbDBTVuQ+pbXgGoz+OB39DMlYB+XpYBb+lh/3kFoDlrAJeT5/1R19WHTpaPROy8AeMVgBF8MlS9eBTYh7JnFVtGGt74u5n70PgWkUZ4vCnDtqtO29urE0mjeErjMgCoVw8DrwLOyt1IBouB1+LJvy3uJT0PMC93Iw34GelhXWmVDACq4lHS5DklTfl7P+nqx49yN6Ku3Ez6Ceg/cjdSowuB15Hu/0urZABQVcuA9wLvJn0zHmRXATsCv8rdiHpyOekBvIhpg/vNT0lDBz+UuxG1hwFAUb4B7E76pjWITibNEHdr7kZUyWxgV9JgUIPiu6QrcVHTd6sQBgBFupL087vvZu4j0j2kn1MdRHruQe03F3g+8JPMfVS1GHg/aZx/L/urawYARVtAGnXvJaT5A9pqiPQ09bakiYA0WO4nDRT1ZtoZ7G4Dngd8ifRelbpmAFBdzgGeBhwFPJi5l25dSzq4vp10otDgOol06+rS3I10aBlwPPAs0miZUs8MAKrTI6SR/J5CGuu8379pXUO6l7o96YlqleFaYDfSTzv7+QHBy0iTcr0LeCBzLxoABgA14S7gcNK46ceS7qv3k0tIQxvvAPwYL6mWaAg4gzQR1cdJYwf0i6uAA0gPL7blSoWUlUMB9681SA/WnUvsvO3dLHeSRkvbtubXOhqHAu5/k0mz/v2FPO/P5aRBfV5Q9wstiEMBj+BkQMphEXDq8LIhsB9puNY9gSk1bXOINJHQecDPh/9cVtO2VmU+6QCv/vUI6cA/i3RV4ABSaN265u3OJl2JOJnB/Umt+oQBQLndQxpD4BukOdZ3AXYeXp5Num3Qy6x+d5JmZrsBuJg0edHdAf1GeHLuBtSV64aXT5Kmp34O6XL8bvQ+HTDAEtLzBxcPLxeQfqIoNcIAoH6ymPTw3coP4E0knTA3BaaRrhisuEowiTQc8ULSEK8PAPeRLtv6kJSiDZGmpb4aOG74f5sCbAE8iTRF8PrjrL+cFEJvJz1sOIfBHz1TfcwAoH63FPjr8CL1m4dIl+1n525E6pa/ApAkqUAGAEmSCmQAkCSpQAYASZIKZACQJKlABgBJkgpkAJAkqUAGAEmSCmQAkCSpQAYASZIKZACQJKlABgBJkgpkAJAkqUBNzAY4iTSF6xoNbGtl6zS8PUnS4FkHmN7wNhcB9wBLGt5umB2BM0nTZQ61aJlZx86QJGU1k/znl26WB4EzgBl17Ayo7xbAfwGXAfsBa9a0DUmSBtUUYH/gcuCoOjZQRwD4EHA0MKGG2pIklWQC8GngiOjC0QFgG1KjkiQpzjHA1pEFowPAYaSH/iRJUpxJwKGRBaMDwIuC60mSpCT0HBsdAJ4UXE+SJCVbRBaLDgCPBteTJElJ6Dk2OgBcH1xPkiQloefY6ADwo+B6kiQp+WFksegAcDwwJ7imJEmluxOYFVkwOgA8BBwAPBxcV5KkUj1MDefWOkYCvBh4LnBjDbUlSSrJX4A9gEuiC9c1G+CVwDNI4xi/gjST0hNr2tZYpuKMgJKkahYC9zW8zXuBm4GfkibVW9rw9ltvFs4GKElKep0NMPS+ez+pazZASZLUxwwAkiQVyAAgSVKBDACSJBXIACBJUoEMAJIkFcgAIElSgQwAkiQVyAAgSVKBDACSJBXIACBJUoEMAJIkFcgAIElSgQwAkiQVyAAgSVKBDACSJBXIACBJUoEMAJIkFcgAIElSgQwAkiQVyAAgSVKBDACSJBXIACBJUoEMAJIkFcgAIElSgQwAkiQVyAAgSVKBDACSJBXIACBJUoEMAJIkFcgAIElSgQwAkiQVyAAgSVKBDACSJBXIACBJUoEMAJIkFcgAIElSgQwAkiQVyAAgSVKBJuZuoHCbATsA6wPzgIuB+Vk7kqT6rAfsCkwD7geuAu7M2pEG0ixgqIdlZgO97QycDywfse3FwKnAkxroQZKasgXwfdIxbuVj3nLgPGDHBnqYSW/nhFkN9KZg/RoA3sxjPwQjl3uB3WruQ5KasDtwH+Mf8xYBB9XchwFgBJ8BaNYLgW8Bk1bx96YCZwGb196RJNVnC9KxbINV/L3HAScCz6+7If2TAaA5qwNfo/PnLqYCx9TXjiTV7lhWffJfYSJwHOlYqQYYAJqzB7Btl+u8Dli3hl4kqW7rAvt3uc7T8fZnYwwAzdmjh3UmAbtENyJJDdiNVd/uHM1zoxvR6AwAzdmox/U2Ce1CkprhMa/PGQCa0+uYC70kaEnKrddjl8e8hhgAJEkqkAFAkqQCGQAkSSqQAUCSpAI1MRnQdGArmv89+/SGtydJGjzTgQMa3uZ84Gbgljo3UlcAmAAcCBxF94PfSJLUL/YaXnKYDXwG+AFpXoJQddwCmAScMrx48pckqTdPI80QezI1/DyyjgDwFdK3f0mSVN0bgS9FF40OALsAhwTXlCSpdO8GdoosGB0A3kW6/y9JkuJMIPgLdnQAeF5wPUmSlOwZWSw6AGwcXE+SJCWhGlFn3QAABrBJREFU59joALAwuJ4kSUoWRBaLDgDXBNeTJElJ6Dk2OgD8ILieJElKQs+x0QHgZOCPwTUlSSrdNaQB9sJEB4ClwGuAucF1JUkq1VxgX2BZZNE6RgK8BdgZ+FkNtSVJKsnZpAGAbo0uXNdkQHOAfYDthv/cBphc07bGMgNnBJQkVXMLcGXD23wYuIl08r+2ro3UPR3wNeT7ZcAsYGambUuSBsOvgXfmbqIOddwCkCRJfc4AIElSgQwAkiQVyAAgSVKBDACSJBXIACBJUoEMAJIkFajucQBU3R4ZtrkEuBu4GJifYfuSYqwH7ApsBExqeNs5jl3qggGg/71peMlhCXAGcCRwR6YeJHVvC+BYYH+aP/GrJbwFoPFMAg4kDYO5W+ZeJHVmd9Jn9g148tc4DADqxFTgLGDz3I1IGtcWpM/qBrkbUf8zAKhTU4FjcjchaVzH4slfHTIAqBuvA9bN3YSkUa1LuucvdcQAoG5MAnbJ3YSkUe2G9/zVBQNAc5bnbiDIRrkbkDSqDXM3EGRQjpV9zwDQnHtzNxDk77kbkDSqQRmzY17uBkphAGjOFbkbCDAEXJ27CUmjupz0GW27y3I3UAoDQHN+RfuT7XnAnNxNSBrVXOD83E1UdBfwm9xNlMIA0JxHSCPqtdVi4MO5m5A0rg+TPqtt9RHg0dxNlMIA0KzvAP+du4keLAXeBlyVuxFJ47oCeAfpM9s2XwBOyt1ESQwAzTsCeCtpsp02uA54IXBK7kYkdeQkYG/SZ7cN7gLeDHwwdyOlcTKgPL4LnAbsBexI+mndhJwNjbCE9KH8HfB7/FmO1Da/BZ4NPIc0K9/G9NcYAUOkL0GXk54t8rJ/BgaAfB4Fzh5eJCnaMlKI/13uRtSfvAUgSVKBDACSJBXIACBJUoEMAJIkFcgAIElSgQwAkiQVyAAgSVKBDACSJBXIACBJUoEMAJIkFcgAIElSgQwAkiQVyAAgSVKBDACSJBXIACBJUoEMAJIkFcgAIElSgQwAkiQVyAAgSVKBDACSJBVoYu4G+tAeuRuQJIXz2D6CAeCx3jS8SJI0sLwFIElSgQwAkiQVyAAgSVKBDACSJBXIACBJUoEGOQAsz92AJKn1BvZcMsgB4N7cDUiSWm9e7gbqMsgB4IrcDUiSWu+y3A3UZULuBmo0GbgVmJa7EUlSK90FTAcezd1IHQb5CsAjwJG5m5AktdZHGNCTP8DquRuo2TXA2sDuuRuRJLXKF4aXgTXoAQDgXOB2YFdgrcy9SJL6213AoQz4yR8G+xmAkR4P7AXsCGzEYL32vYEte1jvV6TnJAbNa4F1e1jvdGB+cC/9YGaP650Q2kV/WJf0/ujWfNL7Y9BsSTp+dOtW0vFjUAwBdwOXA+cxwJf9NXh+SHoDd7vsm6PZBsymt/2xbY5mG9DLvhjK0mn9tqW3fTE7R7MN2Jfe9scPczSrWIP8EKAkSRqDAUCSpAIZACRJKpABQJKkAhkAJEkqkAFAkqQCGQAkSSqQAUCSpAIZACRJKpABQJKkAhkAJEkqkAFAkqQCGQAkSSqQAUCSpAIZACRJKpABQJKkAhkAJEkqkAFAkqQCGQAkSSqQAUCSpAIZACRJKpABQJKkAhkAJEkqkAFAkqQCGQAkSSqQAUCSpAIZACRJKpABYDA80ON6C0K76B/uj3/Vy/5YGN5Ff+j1veH++FeDuj+KYgAYDLf0uN7NoV30j172x4PAvOhG+kQv/86D+t64G3ioh/UGdX/0+roGdX8UxQAwGH7awzp/Am4L7qNf9LI/fgEsi26kT5zdwzq97MM2WAr8sof1BnV/3ALM7mG9Qd0fUiv9HBjqYnldnjYbMQm4kc73xTJg+yydNmND0iXbTvfHfGBqlk6bMYP0b97p/rgBmJil02YcSHfHDk/+Up/ZFJhDZx/gkzL12KQZwMN0tj+OzNRjk/YHlrPqfbEc2DdTj036KJ29Nx4CdsjUY1MmAKfQ2f64E9gkT5uSxjMduJbxD+5fZbC/zaxsV9IBa6z9sQh4f7bumrc/6UHH8b75l3DyX+EI0ntgrP1xB7BLtu6aNQk4jvFD4tWkY4ykPjUReAtwDumBp0Wk+3zfAnbM11Y2U0gn+YuAv5OuCswGvkSZB7MnAkcDV5KeAH9g+L8/yWBf9h/LVsCXSe+Jh0nvkYuAw4E1M/aVy07AiaRjxiLSMeQc4M3A6hn7kiRJkiRJkiRJkiRJkiRJkiRJkiRJkiRJkiRJkiRJkiRJkiRJkiRJkiRJkiRJkiRJkiRJkiRJkiRJ6tX/B3t1BdhEqYtjAAAAAElFTkSuQmCC;" vertex="1" parent="1">
          <mxGeometry x="444" y="650" width="32" height="32" as="geometry" />
        </mxCell>
        <mxCell id="W4ZQf7grJeuH_FmLfWgL-24" value="" style="shape=image;verticalLabelPosition=bottom;labelBackgroundColor=default;verticalAlign=top;aspect=fixed;imageAspect=0;image=data:image/png,iVBORw0KGgoAAAANSUhEUgAAAgAAAAIACAYAAAD0eNT6AAAABHNCSVQICAgIfAhkiAAAAAlwSFlzAAAOxAAADsQBlSsOGwAAABl0RVh0U29mdHdhcmUAd3d3Lmlua3NjYXBlLm9yZ5vuPBoAACAASURBVHic7d13tB1lvf/xdyARQwApkVBFAujFCoTuRUXBio1iQRcqakQvqCgWLl4LKqjLa+UqQbFQlB9guYgFFBFB6U0lIEiVBAKISaip5/fHc3KNh3NO9t7znXn27Of9WmtWWJr5zndP9p757JnZzwOSJEmSJEmSJEmSJEmSJEmSJEmSJEmSJEmSJEmSJEmSJEmSJEmSJEmSJEmSJEmSJEmSJEmSJEmSJEmtNBE4GPgVMA9YBNwKfBvYOWNfuawFfAD4A3A/8DBwA/AVYOuMfeWyIfBp4GrgweHlKuBTw/9fabYBvkp6TzxMeo/8gfSemZKxr1x2Ab5DOmYsIh1DfgW8lXRskdSntgL+BAyNsSwHjgMm5WqwYbsDcxh7fywGjsjWXfMOABYy9v5YCOyfrbvmfYj0Hhhrf9wJ7Jatu2ZNAr5OOkaMtT+uJR1jJPWZzYC5jP3hXXk5JVOPTdqJ9I2uk/1xVKYem3QA4x/cVw6JJYSA/6Kz98ZDwIxMPTZlAnAqne2POcCmedqUNJZf0NkHeMXyhjxtNmIScBOd74tlwA5ZOm3Ghoz/zX/ksgB4YpZOm7EjnYWhFctfGOyrZm+ku2PH2XnalDSaHejuAzxEulUwqLo9oA0Bp2fptBmfpvv9cXSWTptxJt3vj0EOzNfR/f7YLkunkh7jY3T/AR4CtszRbAN+QPf74gEG9yGna+h+f1yVpdP6TSQ9+Njt/jg1R7MNmE5vx46P5mhWsVbL3YBC9Po0+6A+0NPL/lgLmBbdSJ/o5d95UH8hsTG9Pd0/qPuj19c1qPujKAaAwdDrz5XWCe2if7g//tVaPayzdngX/aGXfQHuj5EGdX8UxQAgSVKBDACSJBXIACBJUoEMAJIkFcgAIElSgQwAkiQVyAAgSVKBDACSJBXIACBJUoEMAJIkFcgAIElSgQwAkiQVyAAgSVKBDACSJBXIACBJUoEMAJIkFcgAIElSgQwAkiQVyAAgSVKBDACSJBXIACBJUoEMAJIkFcgAIElSgQwAkiQVyAAgSVKBDACSJBXIACBJUoEm5m6gQZOBFwEzgA2BCXnbCbV9j+sdArw4spE+sXGP630CmB/YR9vNyt1ADdbtcb2NGcz9sWWP623PYO2PIWAecBVwLvBI3naaMUgnwfEcDBxLOvFLkjSWecCRwHdyN1K31XM30IAvkk7+U3I3Iknqe2sBrwLWJl0NGFiDHgDeRjr5S5LUjd2B24FrcjdSl0G+BTAZuA0v+0uSenM36TmJR3M3UodB/hXAi/HkL0nq3UbAXrmbqMsgB4AZuRuQJLXejrkbqMsgB4CpuRuQJLXetNwN1GWQA8AgvzZJUjMG9lwysC9MkiSNzQAgSVKBDACSJBXIACBJUoEMAJIkFaik2QA7dQpwYe4mJEmh9gDelLuJfmIAeKwLgRNyNyFJCmcAWIm3ACRJKpABQJKkAhkAJEkqkAFAkqQCGQAkSSqQAUCSpAIZACRJKpABQJKkAhkAJEkqkAFAkqQCGQAkSSqQAUCSpAIZACRJKpABQJKkAhkAJEkqkAFAkqQCGQAkSSqQAUCSpAIZACRJKpABQJKkAk3M3UDBJgMvAmYAGwIT8rbzL5YCdwEXAhcBy/K2I6kHqwN7AP8ObEx/He+HgHnAVcC5wCN52ylTP70hSnIwcCzpxN/vZgOHAb/J3Yikjr0Q+Bqwbe5GOjAPOBL4Tu5GSuMtgOZ9ETiRdpz8AZ4GnAMclLsRSR15M/BL2nHyB5gGfBv4Qu5GSmMAaNbbgMNzN9GDicA3gR1zNyJpXDuTPqttvLr7AeAtuZsoiQGgOZOBY3I3UcHjgM/lbkLSuD4HTMrdRAXHAo/P3UQpDADNeTHtuew/lj2BzXI3IWlUmwLPy91ERRsBe+VuohQGgObMyN1AgAnA9rmbkDSqneivXxP1yluNDTEANGdq7gaCrJ+7AUmjekLuBoJMy91AKQwAzRmUfX137gYkjeqe3A0EGZRjZd9zR6sbS4BLczchaVR/ABbnbkLtYQBQN04D5uduQtKoFgBn5m5C7WEAUKfuBf4zdxOSxnUkcF/uJtQOBgB14l7glcCduRuRNK47SJ9VQ4BWyQCg8SwGTgF2AC7J3IukzlxM+syeis8EaBxtHC6yNKeQZuVr0hJgLumkv6DhbUuq7m/Am4D/AHYFNqH5EQL3GO5BfcoA0P8uBE7I3YSkVlpAmswrFwNAH/MWgCRJBTIASJJUIAOAJEkFMgBIklQgA4AkSQUyAEiSVCADgCRJBap7HIAdgH2ArYDJNW9rpBkNb0+SNHj2Ak5veJuPAH8FzgaurmsjdQWAzYBvAi+pqb4kSU2YPrzkcDTwC+AdwJzo4nXcAtgKuAxP/pIkVfVS0jk1PIREB4CJwE+AjYPrSpJUqk2AHxN81T46ABwEPCO4piRJpXsWwXMrRAeANwTXkyRJSeg5NjoAbBdcT5IkJaHn2OgAsHZwPUmSlKwTWSw6ANwVXE+SJCVzI4tFB4Dzg+tJkqTkN5HFogPA8cBQcE1Jkko3BMyKLBgdAC4Dvh5cU5Kk0h0HXBFZsI6RAA8HTq2hriRJJToZ+EB00ToCwBLSYAUHAtfVUF+SpBL8GXg9aZC9JdHF65wN8AfDy5ak+QHWq3Fbo5lJmsVJkqRe/Ro4oeFt/gO4Gbi1zo3UPR0wpBdQ64sYgyd/SVJVtwBn5G6iDnXcApAkSX3OACBJUoEMAJIkFcgAIElSgQwAzVna43rhP/2QpAb0euzymNcQA0Bzep0oKXTyB0lqyN09ruekcg0xADTnwh7WWQJcGt2IJDXgD8DiHta7ILoRjc4A0JyLgNldrnMaML+GXiSpbguAM7tc58/AxTX0olEYAJqzDDiUzp8FuBf4z/rakaTaHQnc1+HfXUo6Ri6rrx2tzADQrPOBg1n1ZbF7gVcCd9bekSTV5w7SsWxVIWAR8Fa8/N8oA0DzTgZ2B84jze+8ssXAKcAOwCUN9yVJdbiYdEw7lcd++RkijbW/O+nYpwY1MReAHutK0lwFm5I+GOuTnpi9hHTfTJIGyd9Is8T+B7ArsBFwP+lY6C+dMjEA5DVneJGkEiwAzsndhBJvAUiSVCADgCRJBTIASJJUIAOAJEkFMgBIklQgA4AkSQUyAEiSVCADgCRJBTIASJJUIAOAJEkFMgBIklQgA4AkSQUyAEiSVCADgCRJBTIASJJUIAOAJEkFMgBIklQgA4AkSQUyAEiSVCADgCRJBTIASJJUIAOAJEkFMgBIklQgA4AkSQUyAEiSVCADgCRJBTIASJJUIAOAJEkFMgBIklQgA4AkSQUyAEiSVCADgCRJBTIASJJUIAOAJEkFMgBIklQgA4AkSQUyAEiSVCADgCRJBTIASJJUoIk11p4EvBZ4BbAlMLXGbY2m6e1JkgbP64G9Gt7mfcCtwFnAGcCShrdfyU7ATcBQC5eZNewPSVJeM8l/fulluRGYUcP+qOUWwO7ABcDWNdSWJKkk2wC/A3aNLhwdANYiXa6YHFxXkqRSrQmcCUyJLBodAA4BNgmuKUlS6TYF3hlZMDoA7BtcT5IkJaHn2OgAsG1wPUmSlDwtslh0AFgjuJ4kSUpCz7HRAeCO4HqSJCm5PbJYdAA4J7ieJElKQs+x0QHgy8Di4JqSJJVuMXBcZMHoAHArcFRwTUmSSnckcHNkwTpGAvwC8FFgeQ21JUkqyXLSF+svRheuazbAz5DmAzgDeKimbUiSNKgeBE4HdgSOqWMDdc4GeBVpNsCJwDSa/4ngZ0izOEmS1KvTaP7W9iLgbmBZnRupMwCssBSY08B2RlqYYZuSpMGyELgldxN1qOsWgCRJ6mMGAEmSCmQAkCSpQAYASZIKZACQJKlABgBJkgpkAJAkqUAGAEmSCmQAkCSpQAYASZIKZACQJKlABgBJkgpkAJAkqUBNzAYodWsCsBWwPbANsDWwJbDB8DKZNL30msBDpHmzHwDmAX8bXq4H/gRcBzzSbPuS1P8MAOoHE4DtgL2BFwI7A+t2uO6U4WUaKSiMtBS4ErgI+DVwPmmubUkqmgFAOe0GvBbYH9ispm1MBHYZXj5AulJwDvAD4GxgcU3bHc984AkZttuJhcASYAHpisptwB3ADcDlw38uy9XcGO6j2u3MqcDyoF6ashdweoX1TwbeG9SLWsoAoKY9ATgIOAR4Wobtr00KHPsDfwdOAb4G3Jyhl360zvCfGwDTSSFtZQ8Cl5DC01nArc21Nqb1KO95pkmk192rNaMaUXuV9qFRPtOAz5Huz3+VPCf/kTYgfQu6EfgRsFPedlphLdK3zy8DtwBXAe/in8FBUksYAFS3dYDPkr4pfoj0DbzfrAa8BriUFASenredVtke+Dowh3QlZZO87UjqlAFAdZkAvAO4Cfgw6cn9fjeBFASuAb6E32q7sRZwKPBX4AtUuzwtqQEGANXhKcBvgROADfO20pOJwPtID7y9MnMvbTOZ9LDl9aRnPST1KQOAor2L9A36ubkbCbAx8L/AifTnrYt+Ng34HulJdfed1IcMAIqyDulg/3Xacbm/GwcDV9AfDy62zQGkfedzFVKfMQAownTgYtLBflA9hfSQ4H65G2mhpwC/B56TuxFJ/2QAUFXPIZ0YS/h2vBbpKsf7cjfSQk8AziX9hFBSHzAAqIoXkQ7qU3M30qDVSL8Q+HzuRlpoTdIzFY63IPUBA4B69QrSSHCljij2QeC/czfRQmuS3jeb525EKp0BQL14AelS+Bq5G8ns/cARuZtooY2AH5KGs5WUiXMBqFs7Aj8BHt/gNueShpz9I2l637tIE8DMH+5jPWB90myAzwSeBcyg/hPM1cBJNW9jUO0EHAkcnbsRqVQGAHVjE9LJv4nfdV9EulT8C+DPPay/DumBs5eRJv6Jnn3vImAf0qx5TfstaZrjKJNI0y+vWJqaqfAo0vvpjw1tT1IhZgFDPSwzczTbAmuQZoHrZZ92uvydNIzsvwX3PoU0LPHVQX3+nGrPPsyvuP26hyieDOxOmijpFOCeiv2Ot5wb0O+yij208VboS6n2mr/ZfMvZzaS3fTUrR7OqxgAQ6yvUdxJYSJowaN0GXsdepG+cvfb6Y6o/+9DvAWCkx5GuovycdOUh+t9/z4r9GQAMAJ0wAIzQxje+mrcPcFgNdYeAbwFbAB8hnRjr9mtgB9Jv+R/uct0TSCfCRdFN9bnFwJmk2ynbEfOtfWWfCK4nqQMGAK3K+qSx8CcE172F9GuCdwD/CK69KktJVzR2IA1i1InPA4eQvm2W7M/Ai0nfph4Nqvlc4m/7SFoFA4BW5fPEz+h3Fukp/d8G1+3WX4B/B44f5+8Mka5OfHj4v5V8kxTgosLb24LqSOqQAUDj2YM0EU6kTwCvppnL/Z1YSprB8P089tv98uH/73NNN9USFwMvBx4JqPX6gBqSumAA0FgmkJ7Ij7r0PwQcCnyS/vwm/SXSt9AVvS0B3sgAPwAU5GLg8IA6m1HGfBJS3zAAaCyvA3YOqjUEvB34n6B6dfke8B7Sw4GvBk7L205rzAJ+F1Bn74AakjpkANBoVgM+HljvKODbgfXqdBzwVNJP3tS5jwXU2CWghqQOGQA0mlcT91T2LODYoFpNuTN3Ay10ATC7Yg1/CSA1yACg0XwwqM7VpNHkVIafVlz/qXhMkhrjh00jPRvYNaDOQ8CBlDdoTsl+X3H9NUkTO0lqgAFAIx0SVOdjwA1BtdQOEf/eTQ9zLBXLAKCVrQG8IaDObOBrAXXULvcH1GhipklJGAD0r/YmZirYw0m/o1dZFgfUmBRQQ1IHDABa2X4BNS4nfrIYtUPE5fsHAmpI6oABQCtMIE0xWtVnA2qonbYMqLEwoIakDhgAtMLTgWkVa9wO/CSgF7XTsyuuv5z+mSNCGngGAK2wZ0CN75MO4irTSyqufztxUwxLWgUDgFaIGIb1+wE11E4bAS+qWOP6iEYkdcYAoBW2q7j+zcCfIxpRKx0OPK5ijT9FNCKpMwYAQfr9/1Mr1rggohG10lOJGfL51wE1JHWozgCwIfBp0njwD5KmhG1ymVnjaxs0WwATK9b4bUAfap/JpGmT16hY5xHgourtSOFm0vz560HgKuBTpHNpLaoe9MdyAHAijurVFhE/37o6oIba5XHAmVS/fQRp7AgfAJSSKcD2w8t7gYNJn7VQdVwBOAD4f3jyb5MnVVx/OekZAJVjA9JJ+2VB9b4dVEcaNGsDpwP7RxeODgAbkr75Twiuq3pVnYHtb6RLuCrDK0kP7D0vqN5c4OdBtaRBNIF0bn1iZNHoAPAe/ObfRlUDwN0hXaifrQ68HDgP+F9g48DaXwaWBtaTBtE6wGGRBaMDwD7B9dSMKRXXfyikC/WbxwO7kh7mvR04G3hB8DbmAMcF15QGVeg5NvohwK2C66kZVYOgE7g069XE33JZm3QlaD3SZcYZwLOof3a+j+PtI6lTW0cWiw4AQ8H1JD3W93I3EOR8fPhP6kboOTb6FoBPgrfToorrrxXShUryEPAO/NIgdSP0HBsdAM4OrqdmLKi4vgFA3RgC3o5fGKRu/TSyWHQA+BreD26jqlOwbhTShUrxcdLogZI6t4B0jg0THQDuIY1Y5GW9dqn6M77NSUPCSqtyPOlXBZI6N0Q6t94XWbSOkQDPBF4LLKyhtupxe8X1VyP46VQNpOOBd+MXBKkbC0ijAP4ounBdkwGdSTohfIo0ocGDNW1HMW4LqLF9QA0NpuXAR4F30Z8n/6rTGOfQxp7VuRWTAR1NOpeGn/wH3SycRbAb86g2e9WJzbfcWvNpfnaxXMsC4FUxu21Myyr2WHUkzBwOpNprntV8y9n1OqvfwO6rOqcDVrv8qeL6z49oQgPlZ8AzSEMH12lZxfXb+CuWqj0PhXShVjMAaIWrKq4/nXSwl+YCbyQNW/q3zL10YtPcDfSgas/LQ7pQqxkAtMKFATUODKih9roP+AjpnuX3G9zuoxXX3zKki2Y9ueL6iyOaULsZALTChVS/lPpGfE+V6ArSqH5PBj5H82P7z624/lNDumhW1Z6r7jMNAA/WWmE+cHnFGk8CXhPQi/rftcBngB2AnYBvkW9WyKq3GXYO6aI5awDbVazRhlszqln0ZEBqt5+Qpn+t4sPADwN6Uf+4D7iBFBAvA35Pf51A7qy4/s6kL0NtuS++PSkEVDEnohG1mwFAK/sx8NmKNXYCXgL8sno7GsN7qX7feywLSJNDPUAaIfI28n2z79RNFdffgBQCLgnopQkvDahRdZ9pABgAtLIbSd/wql4S/SrwTKrPMqjRfRdH2lzZpQE1XkV7AsCrK65/B3BXRCNqN58B0EgR87NvAxwWUEfqxGXEPMC6ekAvdXs6KVxX0Zago5oZADTSacQM3fxJYNuAOtKqPABcX7HG5sDLA3qp22HAhIo1LotoRO1nANBIC0hPdFe1JnA6zhKoZpwTUOMDATXqNA14U0CdcwNqaAAYADSaLwNLAuo8g/Q8gFS3MwNqPJeYB+zq8lFgSsUaN1F92G8NCAOARnM7cFJQrbcDRwXVasrmuRtQ1y4l5qeJn6c/Z9rblpiJyvyJrv6PAUBj+QRxI7p9CnhbUK267Uv6lvT23I2oK0PAGQF1nkH/BdbVge8QE0wi9pHU95wOuLrPEjct7HLgPc2237WXkX66uKLfI2raTtXpgNepqa+22wpYSvX36mJgj4Z7H8/RxHwGf990433G6YALYgCobi3S7YCoEDBEOpj145Wng/jnyX/l5TM1bMsAUJ8fEfM+nQds0XDvo9mPFEYjXtN+DffebwwABTEAxHglsQFgiDRP/PpNvohxTCCd5Mfr9+vEhhYDQH3+nbj36Y3knSr4xcDDo/TVy3IL7RjnoE4GgIIYAOKcSnwIuBV4YZMvYhRbAOfRWb/fByYFbdcAUK9O/007DQHTm20fSJNqPdJDv2MtBzfbfl8yABTEABDnCaQx4aNDwHLSsLZTm3ohw1Yj/Tsv6LLfs4kZ18AAUK9nEvMswIrlPmCvhnpfDfg4cZf9h0jTNffjbbemGQAKYgCI9RzSw1HRIWCINK790cC6DbyOV5B+B91rrxdQ/QRsAKjf/xD7Hl1OOqasXWPPWxN79WLF8twae24TA0BBDADxDqGeALBi+QdpEKKnB/e9JvBW0hCoEX1eCTyxQj8GgPpNJT3IF/0evQN4J7FjBWxMet8/WkO/Jwf22XYGgIIYAOrxDeoNASuWS4Ajge3obezztUn3UU8gBYvo/q6n9wGDDADNeCmxl9JHBoFP0vvzAasBewLfI+5Bv5HLLaTbd0oMACM4HbC6dSiwEdWnJF2VXYaXY0jf5K4GrgWuA+YC95JO7JOB9YaXp5AGcnkmMIO4h/ZG82/ARcDepAfF1H9+AXwFeF8NtTcHPja8XE+6dH8FcAPpAdeFpG/0kALb+qRZMrcl/VJhT+p99mUpaYbDBTVuQ+pbXgGoz+OB39DMlYB+XpYBb+lh/3kFoDlrAJeT5/1R19WHTpaPROy8AeMVgBF8MlS9eBTYh7JnFVtGGt74u5n70PgWkUZ4vCnDtqtO29urE0mjeErjMgCoVw8DrwLOyt1IBouB1+LJvy3uJT0PMC93Iw34GelhXWmVDACq4lHS5DklTfl7P+nqx49yN6Ku3Ez6Ceg/cjdSowuB15Hu/0urZABQVcuA9wLvJn0zHmRXATsCv8rdiHpyOekBvIhpg/vNT0lDBz+UuxG1hwFAUb4B7E76pjWITibNEHdr7kZUyWxgV9JgUIPiu6QrcVHTd6sQBgBFupL087vvZu4j0j2kn1MdRHruQe03F3g+8JPMfVS1GHg/aZx/L/urawYARVtAGnXvJaT5A9pqiPQ09bakiYA0WO4nDRT1ZtoZ7G4Dngd8ifRelbpmAFBdzgGeBhwFPJi5l25dSzq4vp10otDgOol06+rS3I10aBlwPPAs0miZUs8MAKrTI6SR/J5CGuu8379pXUO6l7o96YlqleFaYDfSTzv7+QHBy0iTcr0LeCBzLxoABgA14S7gcNK46ceS7qv3k0tIQxvvAPwYL6mWaAg4gzQR1cdJYwf0i6uAA0gPL7blSoWUlUMB9681SA/WnUvsvO3dLHeSRkvbtubXOhqHAu5/k0mz/v2FPO/P5aRBfV5Q9wstiEMBj+BkQMphEXDq8LIhsB9puNY9gSk1bXOINJHQecDPh/9cVtO2VmU+6QCv/vUI6cA/i3RV4ABSaN265u3OJl2JOJnB/Umt+oQBQLndQxpD4BukOdZ3AXYeXp5Num3Qy6x+d5JmZrsBuJg0edHdAf1GeHLuBtSV64aXT5Kmp34O6XL8bvQ+HTDAEtLzBxcPLxeQfqIoNcIAoH6ymPTw3coP4E0knTA3BaaRrhisuEowiTQc8ULSEK8PAPeRLtv6kJSiDZGmpb4aOG74f5sCbAE8iTRF8PrjrL+cFEJvJz1sOIfBHz1TfcwAoH63FPjr8CL1m4dIl+1n525E6pa/ApAkqUAGAEmSCmQAkCSpQAYASZIKZACQJKlABgBJkgpkAJAkqUAGAEmSCmQAkCSpQAYASZIKZACQJKlABgBJkgpkAJAkqUBNzAY4iTSF6xoNbGtl6zS8PUnS4FkHmN7wNhcB9wBLGt5umB2BM0nTZQ61aJlZx86QJGU1k/znl26WB4EzgBl17Ayo7xbAfwGXAfsBa9a0DUmSBtUUYH/gcuCoOjZQRwD4EHA0MKGG2pIklWQC8GngiOjC0QFgG1KjkiQpzjHA1pEFowPAYaSH/iRJUpxJwKGRBaMDwIuC60mSpCT0HBsdAJ4UXE+SJCVbRBaLDgCPBteTJElJ6Dk2OgBcH1xPkiQloefY6ADwo+B6kiQp+WFksegAcDwwJ7imJEmluxOYFVkwOgA8BBwAPBxcV5KkUj1MDefWOkYCvBh4LnBjDbUlSSrJX4A9gEuiC9c1G+CVwDNI4xi/gjST0hNr2tZYpuKMgJKkahYC9zW8zXuBm4GfkibVW9rw9ltvFs4GKElKep0NMPS+ez+pazZASZLUxwwAkiQVyAAgSVKBDACSJBXIACBJUoEMAJIkFcgAIElSgQwAkiQVyAAgSVKBDACSJBXIACBJUoEMAJIkFcgAIElSgQwAkiQVyAAgSVKBDACSJBXIACBJUoEMAJIkFcgAIElSgQwAkiQVyAAgSVKBDACSJBXIACBJUoEMAJIkFcgAIElSgQwAkiQVyAAgSVKBDACSJBXIACBJUoEMAJIkFcgAIElSgQwAkiQVyAAgSVKBDACSJBXIACBJUoEMAJIkFcgAIElSgQwAkiQVyAAgSVKBJuZuoHCbATsA6wPzgIuB+Vk7kqT6rAfsCkwD7geuAu7M2pEG0ixgqIdlZgO97QycDywfse3FwKnAkxroQZKasgXwfdIxbuVj3nLgPGDHBnqYSW/nhFkN9KZg/RoA3sxjPwQjl3uB3WruQ5KasDtwH+Mf8xYBB9XchwFgBJ8BaNYLgW8Bk1bx96YCZwGb196RJNVnC9KxbINV/L3HAScCz6+7If2TAaA5qwNfo/PnLqYCx9TXjiTV7lhWffJfYSJwHOlYqQYYAJqzB7Btl+u8Dli3hl4kqW7rAvt3uc7T8fZnYwwAzdmjh3UmAbtENyJJDdiNVd/uHM1zoxvR6AwAzdmox/U2Ce1CkprhMa/PGQCa0+uYC70kaEnKrddjl8e8hhgAJEkqkAFAkqQCGQAkSSqQAUCSpAI1MRnQdGArmv89+/SGtydJGjzTgQMa3uZ84Gbgljo3UlcAmAAcCBxF94PfSJLUL/YaXnKYDXwG+AFpXoJQddwCmAScMrx48pckqTdPI80QezI1/DyyjgDwFdK3f0mSVN0bgS9FF40OALsAhwTXlCSpdO8GdoosGB0A3kW6/y9JkuJMIPgLdnQAeF5wPUmSlOwZWSw6AGwcXE+SJCWhGlFn3QAABrBJREFU59joALAwuJ4kSUoWRBaLDgDXBNeTJElJ6Dk2OgD8ILieJElKQs+x0QHgZOCPwTUlSSrdNaQB9sJEB4ClwGuAucF1JUkq1VxgX2BZZNE6RgK8BdgZ+FkNtSVJKsnZpAGAbo0uXNdkQHOAfYDthv/cBphc07bGMgNnBJQkVXMLcGXD23wYuIl08r+2ro3UPR3wNeT7ZcAsYGambUuSBsOvgXfmbqIOddwCkCRJfc4AIElSgQwAkiQVyAAgSVKBDACSJBXIACBJUoEMAJIkFajucQBU3R4ZtrkEuBu4GJifYfuSYqwH7ApsBExqeNs5jl3qggGg/71peMlhCXAGcCRwR6YeJHVvC+BYYH+aP/GrJbwFoPFMAg4kDYO5W+ZeJHVmd9Jn9g148tc4DADqxFTgLGDz3I1IGtcWpM/qBrkbUf8zAKhTU4FjcjchaVzH4slfHTIAqBuvA9bN3YSkUa1LuucvdcQAoG5MAnbJ3YSkUe2G9/zVBQNAc5bnbiDIRrkbkDSqDXM3EGRQjpV9zwDQnHtzNxDk77kbkDSqQRmzY17uBkphAGjOFbkbCDAEXJ27CUmjupz0GW27y3I3UAoDQHN+RfuT7XnAnNxNSBrVXOD83E1UdBfwm9xNlMIA0JxHSCPqtdVi4MO5m5A0rg+TPqtt9RHg0dxNlMIA0KzvAP+du4keLAXeBlyVuxFJ47oCeAfpM9s2XwBOyt1ESQwAzTsCeCtpsp02uA54IXBK7kYkdeQkYG/SZ7cN7gLeDHwwdyOlcTKgPL4LnAbsBexI+mndhJwNjbCE9KH8HfB7/FmO1Da/BZ4NPIc0K9/G9NcYAUOkL0GXk54t8rJ/BgaAfB4Fzh5eJCnaMlKI/13uRtSfvAUgSVKBDACSJBXIACBJUoEMAJIkFcgAIElSgQwAkiQVyAAgSVKBDACSJBXIACBJUoEMAJIkFcgAIElSgQwAkiQVyAAgSVKBDACSJBXIACBJUoEMAJIkFcgAIElSgQwAkiQVyAAgSVKBDACSJBVoYu4G+tAeuRuQJIXz2D6CAeCx3jS8SJI0sLwFIElSgQwAkiQVyAAgSVKBDACSJBXIACBJUoEGOQAsz92AJKn1BvZcMsgB4N7cDUiSWm9e7gbqMsgB4IrcDUiSWu+y3A3UZULuBmo0GbgVmJa7EUlSK90FTAcezd1IHQb5CsAjwJG5m5AktdZHGNCTP8DquRuo2TXA2sDuuRuRJLXKF4aXgTXoAQDgXOB2YFdgrcy9SJL6213AoQz4yR8G+xmAkR4P7AXsCGzEYL32vYEte1jvV6TnJAbNa4F1e1jvdGB+cC/9YGaP650Q2kV/WJf0/ujWfNL7Y9BsSTp+dOtW0vFjUAwBdwOXA+cxwJf9NXh+SHoDd7vsm6PZBsymt/2xbY5mG9DLvhjK0mn9tqW3fTE7R7MN2Jfe9scPczSrWIP8EKAkSRqDAUCSpAIZACRJKpABQJKkAhkAJEkqkAFAkqQCGQAkSSqQAUCSpAIZACRJKpABQJKkAhkAJEkqkAFAkqQCGQAkSSqQAUCSpAIZACRJKpABQJKkAhkAJEkqkAFAkqQCGQAkSSqQAUCSpAIZACRJKpABQJKkAhkAJEkqkAFAkqQCGQAkSSqQAUCSpAIZACRJKpABYDA80ON6C0K76B/uj3/Vy/5YGN5Ff+j1veH++FeDuj+KYgAYDLf0uN7NoV30j172x4PAvOhG+kQv/86D+t64G3ioh/UGdX/0+roGdX8UxQAwGH7awzp/Am4L7qNf9LI/fgEsi26kT5zdwzq97MM2WAr8sof1BnV/3ALM7mG9Qd0fUiv9HBjqYnldnjYbMQm4kc73xTJg+yydNmND0iXbTvfHfGBqlk6bMYP0b97p/rgBmJil02YcSHfHDk/+Up/ZFJhDZx/gkzL12KQZwMN0tj+OzNRjk/YHlrPqfbEc2DdTj036KJ29Nx4CdsjUY1MmAKfQ2f64E9gkT5uSxjMduJbxD+5fZbC/zaxsV9IBa6z9sQh4f7bumrc/6UHH8b75l3DyX+EI0ntgrP1xB7BLtu6aNQk4jvFD4tWkY4ykPjUReAtwDumBp0Wk+3zfAnbM11Y2U0gn+YuAv5OuCswGvkSZB7MnAkcDV5KeAH9g+L8/yWBf9h/LVsCXSe+Jh0nvkYuAw4E1M/aVy07AiaRjxiLSMeQc4M3A6hn7kiRJkiRJkiRJkiRJkiRJkiRJkiRJkiRJkiRJkiRJkiRJkiRJkiRJkiRJkiRJkiRJkiRJkiRJkiRJ6tX/B3t1BdhEqYtjAAAAAElFTkSuQmCC;" vertex="1" parent="1">
          <mxGeometry x="280" y="484" width="32" height="32" as="geometry" />
        </mxCell>
        <mxCell id="W4ZQf7grJeuH_FmLfWgL-25" value="" style="shape=image;verticalLabelPosition=bottom;labelBackgroundColor=default;verticalAlign=top;aspect=fixed;imageAspect=0;image=data:image/png,iVBORw0KGgoAAAANSUhEUgAAAgAAAAIACAYAAAD0eNT6AAAABHNCSVQICAgIfAhkiAAAAAlwSFlzAAAOxAAADsQBlSsOGwAAABl0RVh0U29mdHdhcmUAd3d3Lmlua3NjYXBlLm9yZ5vuPBoAACAASURBVHic7d15mB1lmbDxuzvbhJBA2AVBQARkUUTEBRFFRIZF3EAWwdEPEQY/xHHBUflGRnGAURQXFP3UUVxQQVAUl7iAuKAgiqisYRPQsIkhAbL2/PF2a4id9Dmnnqq3lvt3Xe+VBPo856k61aeeqnoXkCRJkiRJkiRJkiRJkiRJkiRJkiRJkiRJkiRJkiRJkiRJkiRJkiRJkiRJkiRJkiRJkiRJkiRJkiRJkiRJkiRJkiRJkiRJkiRJkiRJkiRJkiRJkiRJkiRJkiRJkiRJkiRJkiRJkiRJkiRJkiRJkiRJkiRJkiRJkiRJkiRJkiRJkiRJkiRJkiRJkiRJkiRJkiRJkiRJkiRJkiRJkiRJkiRJkiRJkiRJkiRJkiRJkiRJkiRJkiRJkiRJkiRJkiRJkqQYQ4GxpgFPB3YHtgO2ATYCZgBrB75PUQ8BC4F7gRuB64FfAJeO/jdJkjSBqcCBwPmkk+pIg9sy4JfA8cD6kTtJkqS2mAG8AbiD/CfuMtpi4HOkuxiSJHXeEPAvwDzyn6SraEuADwFrBew7SZIaaTPSc/LcJ+Uc7S5gv+K7UJKkZjkAuI/8J+KcbTlwOjC54L6UJKkRjiN1kMt9Aq5LuwhYo9AelSSp5t5J/hNuHdtlwJoF9qskSbV1LPlPtHVuPyDNfSBJUmscgLf9e2mfGnQHS5JUN5uSZsTLfXJtSnvVYLtZkqT6GKK7Q/0GbQuAzQfY15Ik1caryX9CbWK7cJCdLUlSHaxJd2b4K6O9sP9dLklSfm8i/0m0ye3n/e9ySZLymgrcSf6TaNPbc/rd8ZIk5TA8+ue+wMY5E2mJ/5M7AUmSejE0+uf5wEsD4y4jdYy7ALgauJu0sl4drAdsQSp6Dh/9d5QFwGNG/5QkqdamAQuJuw1+GbBdpVswuFnA+0kL/URt/4GVboEkSQN6DnEnvy+S+hM0zeHEzXx4ZsW5S5I0kHcQd+XfxJP/mLcRsx+uqjpxSZIG8QWKn/SWAttXnXiwYdLJu+i+eIi/d66UJKm2rqT4Se+8yrMux6HE3AV4XNWJS5LUj2FSr/WiLgiIUQffAhYHxHFIpSSp1oaBmQFxrg6IUQfzgVsD4qwZEEOSpNIMA2sExLk3IEZd/CkgRkRRJUlSaYaBRwLirB0Qoy4iJiyaFBBDkqTSDAMPBsTZOiCGJEmqyDBwT0Cc/QNiSJKkigwDNwbEOQzYKCCOJEmqwDBwbUCcGcD7AuJIkqQKDAM/D4p1OPD2oFiSJKlEw6Q5/JcGxTsF+AQOg5MkqdaGSZPfXBYY87XATaRFhpq+PoAkSa00efTPc4DnBcbdAHjPaFsMzCNmfP084Bbgm8CFwMMBMSVJ6qxZpDsBEQvhVNVuBw4uYV/MCcjtoBLykiQpzNiytfOBj+dMZACbAl8m3WWQJEl9WHHd+jNo5i31dwDH5k5CkqQmWbEA+DNwaq5ECno/6Y6AJEnqwfBK/z4NuCFHIgVNB/4tdxKSJDXFygXAIuAIUs/9pnkpMJQ7CUmSmmDlAgDgl8CJVScSYDNg3dxJSJLUBOMVAAAfpHmjAgAekzsBSZKaYFUFAMDrga9WlUiQqbkTkCSpCVZXACwDDiXN7S9JklpkdQUApCLgGOCdo3+XJEktMFEBAGlq21OAvYA7y01HkiRVoZcCYMwlwDbAyTRzmKAkSRrVTwEAsBB4F7ATaQXBpdEJSZKk8vVbAIy5FjgSeALpjsDcsIwkSVLpBi0AxtxKuiPwBOBJwAnA+aQCwccEkiTV1OSgOCPANaPtzBVirwOsCczuIcbXgU2C8pEkSasRVQCMZylw92jrxaISc5EkSSso+ghAkiQ1kAWAJEkdZAEgSVIHWQBIktRBFgCSJHWQBYAkSR1kASBJUgdZAEiS1EEWAJIkdZAFgCRJHWQBIElSB1kASJLUQRYAkiR1kAWAJEkdZAEgSVIHTc6dQEudBBydOwlJUmP9FVgI/Am4HvgDcBWwJOoNLADKseNokyQpykLgMuAbwJeB+4sE8xGAJEnNMAPYBzgLuAv4EvDkQYNZAEiS1DzTgEOAXwMXAo/vN4AFgCRJzTUEHAhcA7yTPh7tWwBIktR804F3Az8BNu/lBRYAkiS1x9OBy4GnTvSDFgCSJLXLhsCPgD1X90MWAJIktc9M4CLgWav6AQsASZLaaQ3g68BW4/1PCwBJktprPeBrpE6Cj2IBIElSu+0InLbyf7QAkCSp/Y4jjRD4GwsASZLabxj4CGnioL/9B0mS1H67AC8a+4cFgCRJ3fGOsb9YAEiS1B1PI90J6H3RgBXMBJ4N7ECab3gtYGpAUhsGxKiLM0hTMUqS1K/JpHPik4H9SUP5Ih0JXNlPMocC3wOWACM1bRPOfdyDOQF5HBSQhyRJU4HXA/cRd668ixU6A67KEHA4cEvgG1sASJLUny2BPxB3vtxudX0ANgK+C3yeHpcWlCRJpbgZ2Bv4c1C8562qAHgKcBXwgqA3kiRJxdwBHBMUa8fxCoCnkZYRfEzQm0iSpBhfB34ZEGeblQuAxwMXk3r2S5Kk+jk3IMbmKxYA04CvED/cQJIkxflpQIxZKxYAbwF2DggqSZLKc2dAjL8VABsBbw8IKEmSyvVQQIzJYwXAG4HpAQElSVIDDJNm+XtV7kQkSVJ1hoG9aNc8/JIkaQLDwJ65k5AkSdUaJmb+fEmS1CDDwBNyJyFJkqo1DKyTOwlJklStycAaAXHeSPFxiafgLIQTGQJ2AfYANiHms5vIcmAecB3wHeCBCt5TklSBiHWFZwfkMTcgj4j+DHMC8jgoII+VHQTcEJBbkbYI+AiwfgnbJ0nqzWwCvtNXtRyw6mMK8EnSOg25+2tMBY4jLRXttNGS1GAWAPX3YeCo3Ems5LGkOyVb5U5EkjQYC4B6Owh4Xe4kVmEd4BxSvwRJUsNYANTXEKljZJ09AzgwdxKSpP5ZANTXruR/5t+Lw3InIEnqnwVAfe2eO4Ee7ZE7AUlS/ywA6mvj3An0aH3S6ABJUoNYANTXjNwJ9Gj5aJMkNYgFgIr6E7A0dxKSpP5YAKioObkTkCT1zwJARX02dwKSpP5ZAKiIi4BLcychSeqfBYAGdTPwmtxJSJIGYwGgQfwG2BO4N3cikqTBWACoH3cAJwBPB27LnIskqYDJuRNQqb5N8Wf0y4B5wB9IywCPFE1KkpSfBUC7XQqcljsJSVL9+AhAkqQOsgCQJKmDLAAkSeogCwBJkjrIAkCSpA6yAJAkqYMsACRJ6iALAEmSOsgCQJKkDrIAkCSpgywAJEnqIAsASZI6yAJAkqQOsgCQJKmDLAAkSeogC4D6Wh4QY1lADElSC1kA1Ne8gBh/DoghSWohC4D6ui4gxrUBMSRJLWQBUF/fARYXeP0dwFVBuUiSWsYCoL4eAD5Z4PX/DYwE5SJJahkLgHo7mXQl369fAR8PzkWS1CIWAPV2D3AgcF8fr7kZeDHFHh9IklrOAqD+rgKeDlzew89eBOzKYHcNJEkdYgHQDHOBZwEvAb7K34cILied7P8HeC7wIvq7WyBJ6qjJuRNQz0aAC0cbwDTSRD9Ls2XUXlsCTwW2BrYd/fcMYCawFrAIWAjMJxVcN5CGbV4H/AJYUH3KYaYCLyM9Rtoe2BCYVMH7LiPtz/mkfXsjcD1p314B/LGCHMr0DOAQYDdgY9IxdDvwXeALo39viicAhwPPBzYjHR93AJcCXwJ+ky819WskoM0OyGNuQB5PDchjTkAeBwXkoepMJ305fwa4lWKf/RLgp8C7gZ0r3IYIewM3EfOdEN1uBM4mFSbTytoBJdgY+Car37ZHgNOAKZly7NV04KOkY3xV27IcOBdYJ1OOXTGbmN+rkCAWAI9uFgDN8Gzg08BfKe/E9TvgRNKVdJ29jnQ3qcqT+qDtPuAsYJdS9kSc7UhXxr1u1w+BNbJkOrHZwC/pfVtuBDbPkWhHWACM0ywA1ItnAz+g2pPWI6Qr2E0r2L5+/TPNOfmv3L5H6v9SN+sy2Hfal3MkO4FJpP3c77b8lvToTPEsAMZpFgBanafR31VMGW0R8H5Sf4I6+CfgNvLuk4j2Q1Kfhbr4CINvywEZ8l2d1zD4tpycId8usAAYp1kAaDyzgY+ROprlPlGNtTuAg8vc6B4dRf59EdUWA6eT/6pzvdFcBt2OXob8VulGBt+W+aS+A4oVUgA4DFBt9zTSzIjHUK9hr5uQbveeRxpZkMtLMr53tCnAW0if95My5rEfxTr07Uo6PupgR2CrAq+fCbwgKBcFq9MXohRpCHgzqUf+FplzWZ2XkYYO5jph5TxRlmUb0lX0UZne/8kFXz9EOvHWQdFtgXYeY60wmXQrYKhgnFcBDxWMMavg66Uxk0i9xI/OnUiPtiEVKi8njQuvUt1HJwxqOmkxra1JozBGKnzviH36mIAYETYIiFGXbdFKJpNO3EWfmX0gIBcpwjTg86STaZOsCXyDVEyfW+H71n3seVFvIZ2AXkMav16FiAnW6vK5ROThhHM1NYxTx6o9pgAX0LyT/5ippFnhXpE7kZZ5JfA5fOQpPcowaeYvqemGgE+QxrQ32TBwDvDC3Im0zCGkoXmSRg0DV+ZOQgpwKvAvuZMIMoW06JOdp2IdC7w1dxJSXQyTZkSTmmx/0rPeNplJGiJo59hY7wX2zJ2EVAfDpBm05k30g1JNbUpaDrnoSJY6egLpsYbiTCL1s9godyJSbsOkOcA/kzsRaQBDwGdJ86631SuwU2C0jYAP505Cym2sV+wHKT6OX6ra4cDzcidRgQ+Sd7bANno5sG/uJKScxsZnzgNOGW1SE6wF/HfJ7zEfuAT4CXAdcBdp6eBppGfzW5FmSnsusDPlPYbYCPh/wJtKil/UzqT9UsQk0me6KbAtsDuwB+Uuj3smqQ/UohLfQ2qEqeRfKa1oczGg7vgPyjuOLicNG+tnEZMtgHeT5tUoI6dFlLOUcERuEYuBjWdN0siOq4PyHK8dV0LeXw7Iqy6zWI7NoliknV151u0XvhjQYtKzxnuqyV8a2Ezg+BLi3kRayOUZpNn4Hu7jtbcAJwGbk1aki551birtG+kwkQWkDp47kb6b7izhPd5K2rdS56w8M9YtpOdiRW/nSWU6BlgnOOYnSePuLy4Y50HSVdMziJ9k6yjaO3f/6owAXwG2G/0z0makmQKlzhlvaswrSc/e7qo4F6kXQ8DrAuONkJ6tH01/V/wTuYq0FPFlgTGn057JjgYxn3Qn4G3BcY8Njic1wqrmxr4aeArVr0wmTWQ34PFBsUZIxcQZQfFW9gBpSt/IIuCIwFhNdRqxRcAupLsLUqesbnGMu4F9gEOBm6tJR5rQkYGx3kO69V+mh4EXEfc4YHtSr/uuOw34WGA8Cyt1Ti+rY51LWq/8UOA7pImDpByGgAODYl0CnBwUayIPAAeTOtpGeElQnKZ7I/CboFgvDoojNUav6zQvJRUC55KG5uwG7EAa+rQWaVx0UfsCMwLiqL12ADYIiLOY9Nx3WUCsXv2aNKFPxGI0XZj8qBeLgNcCv6D4Ur/bAptQzkgDqZZ6LQBWtIDUNyC6f8BcYMvgmGqXqBPf2aSJfar2HlJP/qIjGHYlFeILCmfUfFeSxt0fGhDruaR1AqROKFo1S1XaLSDGMuB9AXEG8SBwVkCcKaQiQMmpQXEiji+pMSwA1CRPDIgxB7g9IM6gPkUafVDUtgEx2uK3wK8C4rhP1SkWAGqKYdLyuEV9LSBGEbcS03Ftm4AYbXJ+QAwLAHWKBYCaYjPgnwLi/CggRlEROWwdEKNNIvbpY0jTTEudYAGgplg3IMZCUmfT3H4bECNif7TJNcQ8WnG/qjMsANQUawbEuJmYk0RREUXIrIAYbbIQ+HNAHO8AqDMsANQUEV/MdVnk6oGAGJ6o/pH7VeqDBYCaIuL5f+RiP0XcnzuBlopYgnlKQAypESwA1BRDuRMIdDfFZyF0tc5/FHH17uRK6gwLAKl6S4ErCsb4WUQiLTJM6sVf1PyAGFIjWABIeXyl4Ou/GpJFe2xBzGMiCwB1hgWAlMfZDL7wzHeBnwTm0gbPCYixkPR4RuoECwApj4dIC9j0u0TwvaSVDPVo+wTEuIF6DBOVKmEBIOVzGXAEvY9OuBN4IXBLaRk101rAAQFxrg+IITWGBYCU11eAZ7L6qWyXA58DdgGuqiKphjkGmB4QJ2JBIakxJhd47SxSx5tZwLSAXCJ+gaUmuhrYE9iJdCW7NbAO6Xn0r4FvkBYR0j9aG3hTUKw6rBMhVaafAmAasD9wIPBcYNMyEpI67DfErBTYJe8B1g+I8xfc9+qYXgqAWcDxwBuA9cpNR5J6tj/wr0Gx5lB8ciapUSYqAF4OnAlsXEEuktSrHYFziJsh8vNBcaTGWFUBMAX4EKlzjSTVyfbAd0jP/yPcMxpP6pTxCoDpwHnAvhXnIkkT2Qf4IjA7MOYXiFlISGqUlYcBTgbOxZO/pHqZCZwBXEzsyX/xaFypc1a+A/Bu4EU5EpGkcawBHAWcSDl9kT4L/LGEuFLtrVgAPAd4a65EJGnUBsDuwH7Ay0gjkcqwCDi1pNhS7Y0VAJOAs3BmQEn9u4Diz9CnkE70mwHrFs6oN6cDN1f0XlLtjBUAryD1rJWkfu2RO4EB3A6cljsJKaexK/43ZM1CkqqznNSvYGHuRKSchoFtgV1zJyJJFXkvaeY/qdOGiVlHW5Ka4FLgXbmTkOpgGNgtdxKSVIGbgINxzn8JSAXAdrmTkKSS3QW8gLTEsiRSAeBCP5La7C5gb+DWzHlItTIZWDMgzm8oflttB2BaQC5SLlNJk9hsGBBrCelqdR4wEhCvq24GXki6/S9pBZOZeEngXuwJ/KVgjLnAlgG5SFXbE3g96USzRnDsPwEXAu/DSWv69RPgpaTV/iStxJn/pMHNJK2c+QPgJcSf/AEeAxwLXEuaD3+ohPdomxHScuZ74slfWqWIq3+pi2YClwA7V/R+U0nz1m9Kutug8f0ReB3w7dyJSHXnHQBpMJ+hupP/io4jzWKnR1tCuurfHk/+Uk8sAKT+7UFapS6X04HZGd+/TpYCnwd2JE1p/mDedKTmsACQ+ndC5vefDRySOYfc5gNnk6YyPwK4Pm86UvNYAEj9mUKaUCa3/XInkMHDwLeAw4CNgGNIo4ckDcBOgFJ/NgZm5E4C2Cp3AiVbRpq45wbgCuCHwOXAoow5Sa1iASD1Z2buBEatnzuBFbya4kvrLiU9v39g9M9b8WQvlcoCQOrPvNwJjKrTfABfp/hEYJIqZh8AqT/3ArfnTkKSirIAkPozAlyQOwlJKsoCQOrf6cBDuZOQpCIsAKT+3QW8JXcSklSEBYA0mLOA9+BSvZIaygJAGtxJwMHYKVBSAzkMUCrmPOCbwIHA/sDjgQ0neM0U0qp+kpSNBYBU3CPAl0dbL7bEKWwlZeYjAEmSOsgCQJKkDrIAkCSpgywAJEnqIAsASZI6yAJAkqQOsgCQJKmDLADUFMsCYkwKiBEh4vdueUAMlSPis6nLd7PHaovV5SCTJrIwIMaMgBgRZgXEeDAghsrRpmN1ZkAMj9WasgBQU0R8iUw0RW9VNgiI4ZdqfbXpWI3IY0FADJXAAkBNEfGluhkwPSBOUdsExLAAqK+IzybiGIkQkcf8gBgqgQWAmuKPATGGgacFxCnqmQExIvaHynFHQIxnAEMBcYqYCjwlII7Hak1ZAKgpHgDuDoizd0CMIiYDewbEuT4ghspxXUCMDYAnBcQpYndgjYA4Hqs1ZQGgJon4IjmcvFdWewHrB8SJOMmoHFEnvMOC4uR8/+XATQFxVAILADXJ1QExNgf2DYgzqOOC4lwTFEfx5o22ol5NvtEA6wGvCIhzPWm5bNWQBYCa5JKgOCeR5y7ALsB+AXHuBn4fEEfl+VFAjPWBYwPiDOLNxBQfEftBJbEAUJNcQsykIk8HXhUQpx/DwIeJKTwuAUYC4qg8USe+k4CNg2L1amvghKBYPwyKoxJYAKhJ7gN+HRTrA8AWQbF6cSKpZ3eEOUFxVJ7vB8WZBXyG6r6rpwKfA6YFxFpK3F07lcACQE3zpaA4awPnETPT2UT2Af4zKNYi4GtBsVSem4HLg2LtDbwnKNZEPky6Qxbhe6SiXTVlAaCm+SIx6wIA7AxcSLkdrXYnFRqTg+J9C7g/KJbKdU5grH8nPZcv03uBowPjRW6/SjIS0GYH5DE3II+nBuQxJyCPgwLy0KpdTMxxO9Z+QTnPWQ8GHg7O9cDgHOvy+99G6xL/+Z9O/KJW04BPBuf5F+ox62ZbzSbmc6rNF4AFgHq1J7FfViOkYVsHBOU3E/hoCTleS/xdu7r8/rfVWcQfB5cAWwbltz1wZQk5VvXIoqssAMZpFgDd8TPiv7RGgItIjwYGMRV4LXBnSbkdOWBeq1OX3/+22hxYTPyx8BBwCmm8/iA2Bj5YUm4LCuSl3lgAjNMsALpjX+K/uMbactJV1lHAJhPkMYnUaeo0yjvxj5BmU4vqR7Ciuvz+t9mnKe+4WAB8ltTRdKJpe2eSHiF9iTQ5T1k5nd73HlK/QgqAMr5QpCpcPNrKmNVvCNhjtAHcQpp694+kld6mkoZnbU26hTqrhBxWdgJpWJWa5x3AyyjnOJlBujN0JOlq/vfADaSOovOBtUhX41sD21FOEbmiP5PuTKgh6nIF4B0A9etxwELKu5KpS7swaoeNoy6//233BvIfR1W0w6N2mFYr5A6AwwDVZLfR/s5G84mblU35fBS4IncSJZtDGqarhrAAUNOdRrtnxjsWuDV3EipsKenOYFvncJhHml57JHci6p0FgJpuOfBK4K7ciZTgo3hF1Sa3Aa/LnUQJlgNHAH/KnYj6YwGgNrib1MnqodyJBPoR8KbcSSjcebTvsdW/0e67cK1lAaC2uJw0xGlx7kQCXAO8lDTvv9rnJOAjuZMI8l/AmbmT0GAsANQm3wdeQ7OHy11HWvzlgdyJqFQnAF/JnURBnyANcVRDWQCobb5Aunp+OHciA7gCeA5pLLXabRlwGPDx3IkM6EPAMdjpr9EsANRGF5Guopu0FOm3gOcB91T8vg8WfP1y0mx06t8y0iiPd9GcE+lS4Hj+Pq+BGswCQG31E2An4Ke5E5nAMuBk4EWkSY2qdkfB188DlkQk0mFjn3/dC9a7STNvfjh3IophAaA2u4N0VX066URbN7cDzyddAS7PlMOPCr7+ByFZ6JukRaguy53IKlwM7Ii9/VunLlOBOhWwyjR2NyD3VKkjpJEKZ5IWZ8ntmRTblhdWn3KrDZHm9Z9H/uN0hLTAVRmrUKoYVwMcp1kAaHWGgVcTc6wN0pYB5wNPLHtD+3QBg23P93Mk2xHrAGeQ+lfkOFYfAP4TWLPsDdVALADGaRYA6sVk0uyB11DNl+li4POklQPraB3gRvrbpruAx+ZItmPWJ62udz/VHKvzgHeSVhFUfVkAjNMsANSv7YFTKeeW6++BE4ENKtuawT2WNAyxl+26gfrdxWi7acABpLkDFhF7nD5CGjlzEGmpa9WfBcA4zQJAg5oE7Aq8DfguaTheP5/5EtKJ8dOkedE3qTb9ENNJ238v42/jX0gdFr0tnNcsYH/g/cCVpDkv+jlWF5BmzjyV1IdjRrXpK0BIATA0+pei1iF9ORQxF9iyYIxdgF8VjDEH2KtgjIOBrxaMofzWBbYhHZdrkm6LziJdgS0YbfNIt89voh3TEEN6RPJsUq/v9UjD0/4A/Jj2bGObDAObkY7VjUnH6tjx+gB/P1bvIBWpt+dJU4FmE7Cy5OSARKS2ug/42WjrkqXAJaNN9bectGT0rXnTUNM4D4AkSR1kASBJUgdZAEiS1EEWAJIkdZAFgCRJHWQBIElSB1kASJLUQRYAkiR1kAWAJEkdZAEgSVIHWQBIktRBFgCSJHWQBYAkSR1kASBJUgdZAEiS1EEWAJIkdZAFgCRJHWQBIElSB1kASJLUQRYAkiR1kAWAJEkdZAEgSVIHWQBIktRBFgCSJHWQBYAkSR1kASBJUgdZAEiS1EEWAJIkdZAFgCRJHWQBIElSB1kASJLUQRYAkiR10GRgBBgqGOdAYGHBGDMKvl6SJPVoMvAwsEbBOJ8JyEWSJFVkGLg/dxKSJKlaw8BNuZOQJEnVGgauyp2EJEmq1jDww9xJSJKkag0Dc4D7ciciSZKqMwwsBs7JnYgkSarO2ERA7wcW5UxEkiRVZ6wAuAN4X85EJElSdVacCvgU4He5EpEkSdVZsQB4GDgY+GumXCRJUkVWXgzoWtK8/g9lyEWSJFVkvNUALwX2ximCJUlqrVUtB/xTYGfg5xXmIkmSKrKqAgDgNuDZwL8C86pJR5IkVWF1BQDAcuBjwBakQuAXpWckSZJKN7nHn3uYVAh8DNgIeC6wA6kwWAuYFpDLbsD0gDiSJLXZUESQXguAFf0ZODfizVcyF9iyhLiSJLXJegExHp7oEYAkSaqXiIvlBRYAkiQ1y34BMe6yAJAkqTnWBg4NiHObBYAkSc3xLmDdgDhXWwBIktQMRwDHB8W6wgJAkqR6mwS8HfgfYoYALgEuHWQYoCRJKt9apA5//06aeyfKZcB8C4BynAQcnTsJSVIjTQE2BB4/+vdo/x8GmwhIE9txtEmSVCf3AF+DidcCkCRJ7fFJYBFYAEiS1BXzgY+M/cMCQJKkbngX8Kexf1gASJLUfr9nhat/sACQJKntlpBGpi1Z8T9aAEiS1G7HAz9b+T9aAEiS1F4fBD4+3v+wAJAkqZ3OA968qv9pASBJUvt8GHgFsGxVP2ABIElSe4wAJ5Oe+y9f3Q86FbAkSe0wDzgK+GYvP+wdAEmSmm0ZqaPfdvR48gfvAEiS1FTLgfOBdwPX9PtiCwBJkpplCXAGaWGfuYMGsQCQJKlZFgBvKxrEAqAcHwB+XjDG0cBeBWN8EbiwYIxefAaYUTDG/yV1gmOciAAABfhJREFUYCnTjsBJBWPcTMAvXg/q8vkfCBxeMMb3gU8UjNGLU4EtC8YY6FZqnzYkDdEqYiHw6oBcJvJi4LCCMfz8Hy3i82+duaThC0XaUwPymBOQx8EBeZwdkEcVJyqA+wNyLfqL24u9AvK8soI8oT6f/4kBeZwdkEcvrgzItWjR1YstA/K8v4I8IR1Dfv6xavP5OwpAkqQOsgCQJKmDLAAkSeogCwBJkjrIAkCSpA6yAJAkqYMsACRJ6iALAEmSOsgCQJKkDrIAkCSpgywAJEnqIAsASZI6yAJAkqQOsgCQJKmDLAAkSeqgybkTWMHygBgR2zMlIMaygBgR++MlwBYBcSayRkCMU4D5AXFWZ5OAGI+jmvXNdw+IEXEcRsTYnWr22eMCYpwAHBQQZ3VmBcRYg2r26U4BMfz8Hy3i8484P9SqAFgYEGOjgBgbB8R4MCBGxP7YdbQ1wSG5E+jResDRuZPoUV2OwyeOtibYL3cCPZpGc45DP/94IRdLdXoEEPFl9eSCr1+LmCpyQUCMeQEx1G0Rx5DHoVQ/d0cEqVMBcFdAjJcUfP1+wNSAPCK25fqAGOq2iGPI41Cqn5DfyzoVADcExNgJ2HfA104C/j0gh4eB2wPiXA6MBMRRNz1AzJfEdaOxJNXHzyOC1KkA+ENQnDOBdQZ43YnADgHvfz0xHTTuBn4bEEfd9H3iOgH+MCCOpDhzIoLUqQC4LCjOVsDXgLX7eM0RwLuD3v/HQXEAvhAYS93yxcBYHodSffwCmJs7iTJcT7rtHdGuA549wfutDXyQdMUe9b4HFtkBK1mf1KEwKjdbN9otxAxnHTMFuK0G22Wz2dIFa4hJUYGCbAbsFhRrPeA1pCJgDf5+W35j4GnA8cAngecBQ0HvuQA4DlgcFO8hYDbwrKB46oa3AlcExlsOPALsHxhTUv9uAI4laB6AqBNflB1p9nPvc4Ajg2POAq4lZn4Ctd+vgKcT8/x/RZOAXwI7B8eV1Lt9gO9GBatTHwCAa0jPN5rqUyXEnA+8mqCKT622kFSARp/8GY15JOmulKTqfZzAkz/U7xEAwL00Z1a4Ff0U+I+SYs8FlgDPLym+mm856QR9SYnvcQ9wM/BS6nf3UGqznwKHA0sjg9axALgeeDEx0/pW6bWU2zPzJ8Ca2B9A/2g58HrgsxW81+9IRfo/YxEgVeEq0vw2EbPlNsLuxPbML7tdWM5uGNdbSFVg7m221aMtAA6meoeQHjnk3n6brc3tYmAmHfRp8u/8XtqDxKwf0I89SHcbcm+7LW+7EtiOfHYgXZ3k3g82W9vaQ6TRPJ29yzaTNOQh9wcxUXtlWTtgAtOBt5Oey+beB7Zq2y2kR051eIQ3CTgG5wmw2SLaEuBzVLOMe+3tRL1vM36ivE3v2QxS569vU+99ZSvW7ge+SuofEznJT5QppM6B5wN/If/+stma0paR7qSdRMV3k5twe2E/0jP2ybkTWcl3gBeRKra6mApsD2xNWg9hVt50VNADpDs815E6x5YxvK8Mk4BtgW1Is1n2My231AWPAH8lPcr9Halo1iq8knSizV2pjbUfk668JUlSyQ4gdYzIffL/Bun5uyRJqsiupA5QOU78y4H/oh4dryRJ6pzZwJep9uR/J2kOZkmSlNk+lD9McDFwBh2diEGSpLoaBg4C/kDsiX8RaSzmE6rbFEmS1K9h4Lmk2QPvZ7CT/jLg56Q51derNHtJkirWhHkA+jWJNIHQHqQx8dsCm5DGxK8FPEyaP/0+0iOEG4DLgUtJxYMkSZIkSZIkSZIkSZIkSZIkSZIkSZIkSZIkSZIkSZIkSZIkSZIkSZIkSZIkSZIkSZIkSZIkSZIkSZIkSZIkSZIkSZIkSZIkSZIkSZIkSZIkSZIkSZIkSZIkSZIkSZIkSZIkSZIkSZIkSZIkSZIkSZIkSZIkSZIkSZIkSZIkSZIkSZIkSZIkSZIkSZIkSZIkSZIkSZIkSZIkSZIkSZIkSZIkSZIkSZIkSZIkSZIkSZIkSZIkSZIkSZIkSZIkSZIkSZKkHv0vENhXsC64MN4AAAAASUVORK5CYII=;" vertex="1" parent="1">
          <mxGeometry x="660" y="460" width="40" height="40" as="geometry" />
        </mxCell>
        <mxCell id="W4ZQf7grJeuH_FmLfWgL-27" value="" style="shape=image;verticalLabelPosition=bottom;labelBackgroundColor=default;verticalAlign=top;aspect=fixed;imageAspect=0;image=data:image/png,iVBORw0KGgoAAAANSUhEUgAAAgAAAAIACAYAAAD0eNT6AAAABHNCSVQICAgIfAhkiAAAAAlwSFlzAAAOxAAADsQBlSsOGwAAABl0RVh0U29mdHdhcmUAd3d3Lmlua3NjYXBlLm9yZ5vuPBoAACAASURBVHic7d15mB1lmbDxuzvbhJBA2AVBQARkUUTEBRFFRIZF3EAWwdEPEQY/xHHBUflGRnGAURQXFP3UUVxQQVAUl7iAuKAgiqisYRPQsIkhAbL2/PF2a4id9Dmnnqq3lvt3Xe+VBPo856k61aeeqnoXkCRJkiRJkiRJkiRJkiRJkiRJkiRJkiRJkiRJkiRJkiRJkiRJkiRJkiRJkiRJkiRJkiRJkiRJkiRJkiRJkiRJkiRJkiRJkiRJkiRJkiRJkiRJkiRJkiRJkiRJkiRJkiRJkiRJkiRJkiRJkiRJkiRJkiRJkiRJkiRJkiRJkiRJkiRJkiRJkiRJkiRJkiRJkiRJkiRJkiRJkiRJkiRJkiRJkiRJkiRJkiRJkiRJkiRJkiRJkiRJkiRJkiRJkiRJkqQYQ4GxpgFPB3YHtgO2ATYCZgBrB75PUQ8BC4F7gRuB64FfAJeO/jdJkjSBqcCBwPmkk+pIg9sy4JfA8cD6kTtJkqS2mAG8AbiD/CfuMtpi4HOkuxiSJHXeEPAvwDzyn6SraEuADwFrBew7SZIaaTPSc/LcJ+Uc7S5gv+K7UJKkZjkAuI/8J+KcbTlwOjC54L6UJKkRjiN1kMt9Aq5LuwhYo9AelSSp5t5J/hNuHdtlwJoF9qskSbV1LPlPtHVuPyDNfSBJUmscgLf9e2mfGnQHS5JUN5uSZsTLfXJtSnvVYLtZkqT6GKK7Q/0GbQuAzQfY15Ik1caryX9CbWK7cJCdLUlSHaxJd2b4K6O9sP9dLklSfm8i/0m0ye3n/e9ySZLymgrcSf6TaNPbc/rd8ZIk5TA8+ue+wMY5E2mJ/5M7AUmSejE0+uf5wEsD4y4jdYy7ALgauJu0sl4drAdsQSp6Dh/9d5QFwGNG/5QkqdamAQuJuw1+GbBdpVswuFnA+0kL/URt/4GVboEkSQN6DnEnvy+S+hM0zeHEzXx4ZsW5S5I0kHcQd+XfxJP/mLcRsx+uqjpxSZIG8QWKn/SWAttXnXiwYdLJu+i+eIi/d66UJKm2rqT4Se+8yrMux6HE3AV4XNWJS5LUj2FSr/WiLgiIUQffAhYHxHFIpSSp1oaBmQFxrg6IUQfzgVsD4qwZEEOSpNIMA2sExLk3IEZd/CkgRkRRJUlSaYaBRwLirB0Qoy4iJiyaFBBDkqTSDAMPBsTZOiCGJEmqyDBwT0Cc/QNiSJKkigwDNwbEOQzYKCCOJEmqwDBwbUCcGcD7AuJIkqQKDAM/D4p1OPD2oFiSJKlEw6Q5/JcGxTsF+AQOg5MkqdaGSZPfXBYY87XATaRFhpq+PoAkSa00efTPc4DnBcbdAHjPaFsMzCNmfP084Bbgm8CFwMMBMSVJ6qxZpDsBEQvhVNVuBw4uYV/MCcjtoBLykiQpzNiytfOBj+dMZACbAl8m3WWQJEl9WHHd+jNo5i31dwDH5k5CkqQmWbEA+DNwaq5ECno/6Y6AJEnqwfBK/z4NuCFHIgVNB/4tdxKSJDXFygXAIuAIUs/9pnkpMJQ7CUmSmmDlAgDgl8CJVScSYDNg3dxJSJLUBOMVAAAfpHmjAgAekzsBSZKaYFUFAMDrga9WlUiQqbkTkCSpCVZXACwDDiXN7S9JklpkdQUApCLgGOCdo3+XJEktMFEBAGlq21OAvYA7y01HkiRVoZcCYMwlwDbAyTRzmKAkSRrVTwEAsBB4F7ATaQXBpdEJSZKk8vVbAIy5FjgSeALpjsDcsIwkSVLpBi0AxtxKuiPwBOBJwAnA+aQCwccEkiTV1OSgOCPANaPtzBVirwOsCczuIcbXgU2C8pEkSasRVQCMZylw92jrxaISc5EkSSso+ghAkiQ1kAWAJEkdZAEgSVIHWQBIktRBFgCSJHWQBYAkSR1kASBJUgdZAEiS1EEWAJIkdZAFgCRJHWQBIElSB1kASJLUQRYAkiR1kAWAJEkdZAEgSVIHTc6dQEudBBydOwlJUmP9FVgI/Am4HvgDcBWwJOoNLADKseNokyQpykLgMuAbwJeB+4sE8xGAJEnNMAPYBzgLuAv4EvDkQYNZAEiS1DzTgEOAXwMXAo/vN4AFgCRJzTUEHAhcA7yTPh7tWwBIktR804F3Az8BNu/lBRYAkiS1x9OBy4GnTvSDFgCSJLXLhsCPgD1X90MWAJIktc9M4CLgWav6AQsASZLaaQ3g68BW4/1PCwBJktprPeBrpE6Cj2IBIElSu+0InLbyf7QAkCSp/Y4jjRD4GwsASZLabxj4CGnioL/9B0mS1H67AC8a+4cFgCRJ3fGOsb9YAEiS1B1PI90J6H3RgBXMBJ4N7ECab3gtYGpAUhsGxKiLM0hTMUqS1K/JpHPik4H9SUP5Ih0JXNlPMocC3wOWACM1bRPOfdyDOQF5HBSQhyRJU4HXA/cRd668ixU6A67KEHA4cEvgG1sASJLUny2BPxB3vtxudX0ANgK+C3yeHpcWlCRJpbgZ2Bv4c1C8562qAHgKcBXwgqA3kiRJxdwBHBMUa8fxCoCnkZYRfEzQm0iSpBhfB34ZEGeblQuAxwMXk3r2S5Kk+jk3IMbmKxYA04CvED/cQJIkxflpQIxZKxYAbwF2DggqSZLKc2dAjL8VABsBbw8IKEmSyvVQQIzJYwXAG4HpAQElSVIDDJNm+XtV7kQkSVJ1hoG9aNc8/JIkaQLDwJ65k5AkSdUaJmb+fEmS1CDDwBNyJyFJkqo1DKyTOwlJklStycAaAXHeSPFxiafgLIQTGQJ2AfYANiHms5vIcmAecB3wHeCBCt5TklSBiHWFZwfkMTcgj4j+DHMC8jgoII+VHQTcEJBbkbYI+AiwfgnbJ0nqzWwCvtNXtRyw6mMK8EnSOg25+2tMBY4jLRXttNGS1GAWAPX3YeCo3Ems5LGkOyVb5U5EkjQYC4B6Owh4Xe4kVmEd4BxSvwRJUsNYANTXEKljZJ09AzgwdxKSpP5ZANTXruR/5t+Lw3InIEnqnwVAfe2eO4Ee7ZE7AUlS/ywA6mvj3An0aH3S6ABJUoNYANTXjNwJ9Gj5aJMkNYgFgIr6E7A0dxKSpP5YAKioObkTkCT1zwJARX02dwKSpP5ZAKiIi4BLcychSeqfBYAGdTPwmtxJSJIGYwGgQfwG2BO4N3cikqTBWACoH3cAJwBPB27LnIskqYDJuRNQqb5N8Wf0y4B5wB9IywCPFE1KkpSfBUC7XQqcljsJSVL9+AhAkqQOsgCQJKmDLAAkSeogCwBJkjrIAkCSpA6yAJAkqYMsACRJ6iALAEmSOsgCQJKkDrIAkCSpgywAJEnqIAsASZI6yAJAkqQOsgCQJKmDLAAkSeogC4D6Wh4QY1lADElSC1kA1Ne8gBh/DoghSWohC4D6ui4gxrUBMSRJLWQBUF/fARYXeP0dwFVBuUiSWsYCoL4eAD5Z4PX/DYwE5SJJahkLgHo7mXQl369fAR8PzkWS1CIWAPV2D3AgcF8fr7kZeDHFHh9IklrOAqD+rgKeDlzew89eBOzKYHcNJEkdYgHQDHOBZwEvAb7K34cILied7P8HeC7wIvq7WyBJ6qjJuRNQz0aAC0cbwDTSRD9Ls2XUXlsCTwW2BrYd/fcMYCawFrAIWAjMJxVcN5CGbV4H/AJYUH3KYaYCLyM9Rtoe2BCYVMH7LiPtz/mkfXsjcD1p314B/LGCHMr0DOAQYDdgY9IxdDvwXeALo39viicAhwPPBzYjHR93AJcCXwJ+ky819WskoM0OyGNuQB5PDchjTkAeBwXkoepMJ305fwa4lWKf/RLgp8C7gZ0r3IYIewM3EfOdEN1uBM4mFSbTytoBJdgY+Car37ZHgNOAKZly7NV04KOkY3xV27IcOBdYJ1OOXTGbmN+rkCAWAI9uFgDN8Gzg08BfKe/E9TvgRNKVdJ29jnQ3qcqT+qDtPuAsYJdS9kSc7UhXxr1u1w+BNbJkOrHZwC/pfVtuBDbPkWhHWACM0ywA1ItnAz+g2pPWI6Qr2E0r2L5+/TPNOfmv3L5H6v9SN+sy2Hfal3MkO4FJpP3c77b8lvToTPEsAMZpFgBanafR31VMGW0R8H5Sf4I6+CfgNvLuk4j2Q1Kfhbr4CINvywEZ8l2d1zD4tpycId8usAAYp1kAaDyzgY+ROprlPlGNtTuAg8vc6B4dRf59EdUWA6eT/6pzvdFcBt2OXob8VulGBt+W+aS+A4oVUgA4DFBt9zTSzIjHUK9hr5uQbveeRxpZkMtLMr53tCnAW0if95My5rEfxTr07Uo6PupgR2CrAq+fCbwgKBcFq9MXohRpCHgzqUf+FplzWZ2XkYYO5jph5TxRlmUb0lX0UZne/8kFXz9EOvHWQdFtgXYeY60wmXQrYKhgnFcBDxWMMavg66Uxk0i9xI/OnUiPtiEVKi8njQuvUt1HJwxqOmkxra1JozBGKnzviH36mIAYETYIiFGXbdFKJpNO3EWfmX0gIBcpwjTg86STaZOsCXyDVEyfW+H71n3seVFvIZ2AXkMav16FiAnW6vK5ROThhHM1NYxTx6o9pgAX0LyT/5ippFnhXpE7kZZ5JfA5fOQpPcowaeYvqemGgE+QxrQ32TBwDvDC3Im0zCGkoXmSRg0DV+ZOQgpwKvAvuZMIMoW06JOdp2IdC7w1dxJSXQyTZkSTmmx/0rPeNplJGiJo59hY7wX2zJ2EVAfDpBm05k30g1JNbUpaDrnoSJY6egLpsYbiTCL1s9godyJSbsOkOcA/kzsRaQBDwGdJ86631SuwU2C0jYAP505Cym2sV+wHKT6OX6ra4cDzcidRgQ+Sd7bANno5sG/uJKScxsZnzgNOGW1SE6wF/HfJ7zEfuAT4CXAdcBdp6eBppGfzW5FmSnsusDPlPYbYCPh/wJtKil/UzqT9UsQk0me6KbAtsDuwB+Uuj3smqQ/UohLfQ2qEqeRfKa1oczGg7vgPyjuOLicNG+tnEZMtgHeT5tUoI6dFlLOUcERuEYuBjWdN0siOq4PyHK8dV0LeXw7Iqy6zWI7NoliknV151u0XvhjQYtKzxnuqyV8a2Ezg+BLi3kRayOUZpNn4Hu7jtbcAJwGbk1aki551birtG+kwkQWkDp47kb6b7izhPd5K2rdS56w8M9YtpOdiRW/nSWU6BlgnOOYnSePuLy4Y50HSVdMziJ9k6yjaO3f/6owAXwG2G/0z0makmQKlzhlvaswrSc/e7qo4F6kXQ8DrAuONkJ6tH01/V/wTuYq0FPFlgTGn057JjgYxn3Qn4G3BcY8Njic1wqrmxr4aeArVr0wmTWQ34PFBsUZIxcQZQfFW9gBpSt/IIuCIwFhNdRqxRcAupLsLUqesbnGMu4F9gEOBm6tJR5rQkYGx3kO69V+mh4EXEfc4YHtSr/uuOw34WGA8Cyt1Ti+rY51LWq/8UOA7pImDpByGgAODYl0CnBwUayIPAAeTOtpGeElQnKZ7I/CboFgvDoojNUav6zQvJRUC55KG5uwG7EAa+rQWaVx0UfsCMwLiqL12ADYIiLOY9Nx3WUCsXv2aNKFPxGI0XZj8qBeLgNcCv6D4Ur/bAptQzkgDqZZ6LQBWtIDUNyC6f8BcYMvgmGqXqBPf2aSJfar2HlJP/qIjGHYlFeILCmfUfFeSxt0fGhDruaR1AqROKFo1S1XaLSDGMuB9AXEG8SBwVkCcKaQiQMmpQXEiji+pMSwA1CRPDIgxB7g9IM6gPkUafVDUtgEx2uK3wK8C4rhP1SkWAGqKYdLyuEV9LSBGEbcS03Ftm4AYbXJ+QAwLAHWKBYCaYjPgnwLi/CggRlEROWwdEKNNIvbpY0jTTEudYAGgplg3IMZCUmfT3H4bECNif7TJNcQ8WnG/qjMsANQUawbEuJmYk0RREUXIrIAYbbIQ+HNAHO8AqDMsANQUEV/MdVnk6oGAGJ6o/pH7VeqDBYCaIuL5f+RiP0XcnzuBlopYgnlKQAypESwA1BRDuRMIdDfFZyF0tc5/FHH17uRK6gwLAKl6S4ErCsb4WUQiLTJM6sVf1PyAGFIjWABIeXyl4Ou/GpJFe2xBzGMiCwB1hgWAlMfZDL7wzHeBnwTm0gbPCYixkPR4RuoECwApj4dIC9j0u0TwvaSVDPVo+wTEuIF6DBOVKmEBIOVzGXAEvY9OuBN4IXBLaRk101rAAQFxrg+IITWGBYCU11eAZ7L6qWyXA58DdgGuqiKphjkGmB4QJ2JBIakxJhd47SxSx5tZwLSAXCJ+gaUmuhrYE9iJdCW7NbAO6Xn0r4FvkBYR0j9aG3hTUKw6rBMhVaafAmAasD9wIPBcYNMyEpI67DfErBTYJe8B1g+I8xfc9+qYXgqAWcDxwBuA9cpNR5J6tj/wr0Gx5lB8ciapUSYqAF4OnAlsXEEuktSrHYFziJsh8vNBcaTGWFUBMAX4EKlzjSTVyfbAd0jP/yPcMxpP6pTxCoDpwHnAvhXnIkkT2Qf4IjA7MOYXiFlISGqUlYcBTgbOxZO/pHqZCZwBXEzsyX/xaFypc1a+A/Bu4EU5EpGkcawBHAWcSDl9kT4L/LGEuFLtrVgAPAd4a65EJGnUBsDuwH7Ay0gjkcqwCDi1pNhS7Y0VAJOAs3BmQEn9u4Diz9CnkE70mwHrFs6oN6cDN1f0XlLtjBUAryD1rJWkfu2RO4EB3A6cljsJKaexK/43ZM1CkqqznNSvYGHuRKSchoFtgV1zJyJJFXkvaeY/qdOGiVlHW5Ka4FLgXbmTkOpgGNgtdxKSVIGbgINxzn8JSAXAdrmTkKSS3QW8gLTEsiRSAeBCP5La7C5gb+DWzHlItTIZWDMgzm8oflttB2BaQC5SLlNJk9hsGBBrCelqdR4wEhCvq24GXki6/S9pBZOZeEngXuwJ/KVgjLnAlgG5SFXbE3g96USzRnDsPwEXAu/DSWv69RPgpaTV/iStxJn/pMHNJK2c+QPgJcSf/AEeAxwLXEuaD3+ohPdomxHScuZ74slfWqWIq3+pi2YClwA7V/R+U0nz1m9Kutug8f0ReB3w7dyJSHXnHQBpMJ+hupP/io4jzWKnR1tCuurfHk/+Uk8sAKT+7UFapS6X04HZGd+/TpYCnwd2JE1p/mDedKTmsACQ+ndC5vefDRySOYfc5gNnk6YyPwK4Pm86UvNYAEj9mUKaUCa3/XInkMHDwLeAw4CNgGNIo4ckDcBOgFJ/NgZm5E4C2Cp3AiVbRpq45wbgCuCHwOXAoow5Sa1iASD1Z2buBEatnzuBFbya4kvrLiU9v39g9M9b8WQvlcoCQOrPvNwJjKrTfABfp/hEYJIqZh8AqT/3ArfnTkKSirIAkPozAlyQOwlJKsoCQOrf6cBDuZOQpCIsAKT+3QW8JXcSklSEBYA0mLOA9+BSvZIaygJAGtxJwMHYKVBSAzkMUCrmPOCbwIHA/sDjgQ0neM0U0qp+kpSNBYBU3CPAl0dbL7bEKWwlZeYjAEmSOsgCQJKkDrIAkCSpgywAJEnqIAsASZI6yAJAkqQOsgCQJKmDLADUFMsCYkwKiBEh4vdueUAMlSPis6nLd7PHaovV5SCTJrIwIMaMgBgRZgXEeDAghsrRpmN1ZkAMj9WasgBQU0R8iUw0RW9VNgiI4ZdqfbXpWI3IY0FADJXAAkBNEfGluhkwPSBOUdsExLAAqK+IzybiGIkQkcf8gBgqgQWAmuKPATGGgacFxCnqmQExIvaHynFHQIxnAEMBcYqYCjwlII7Hak1ZAKgpHgDuDoizd0CMIiYDewbEuT4ghspxXUCMDYAnBcQpYndgjYA4Hqs1ZQGgJon4IjmcvFdWewHrB8SJOMmoHFEnvMOC4uR8/+XATQFxVAILADXJ1QExNgf2DYgzqOOC4lwTFEfx5o22ol5NvtEA6wGvCIhzPWm5bNWQBYCa5JKgOCeR5y7ALsB+AXHuBn4fEEfl+VFAjPWBYwPiDOLNxBQfEftBJbEAUJNcQsykIk8HXhUQpx/DwIeJKTwuAUYC4qg8USe+k4CNg2L1amvghKBYPwyKoxJYAKhJ7gN+HRTrA8AWQbF6cSKpZ3eEOUFxVJ7vB8WZBXyG6r6rpwKfA6YFxFpK3F07lcACQE3zpaA4awPnETPT2UT2Af4zKNYi4GtBsVSem4HLg2LtDbwnKNZEPky6Qxbhe6SiXTVlAaCm+SIx6wIA7AxcSLkdrXYnFRqTg+J9C7g/KJbKdU5grH8nPZcv03uBowPjRW6/SjIS0GYH5DE3II+nBuQxJyCPgwLy0KpdTMxxO9Z+QTnPWQ8GHg7O9cDgHOvy+99G6xL/+Z9O/KJW04BPBuf5F+ox62ZbzSbmc6rNF4AFgHq1J7FfViOkYVsHBOU3E/hoCTleS/xdu7r8/rfVWcQfB5cAWwbltz1wZQk5VvXIoqssAMZpFgDd8TPiv7RGgItIjwYGMRV4LXBnSbkdOWBeq1OX3/+22hxYTPyx8BBwCmm8/iA2Bj5YUm4LCuSl3lgAjNMsALpjX+K/uMbactJV1lHAJhPkMYnUaeo0yjvxj5BmU4vqR7Ciuvz+t9mnKe+4WAB8ltTRdKJpe2eSHiF9iTQ5T1k5nd73HlK/QgqAMr5QpCpcPNrKmNVvCNhjtAHcQpp694+kld6mkoZnbU26hTqrhBxWdgJpWJWa5x3AyyjnOJlBujN0JOlq/vfADaSOovOBtUhX41sD21FOEbmiP5PuTKgh6nIF4B0A9etxwELKu5KpS7swaoeNoy6//233BvIfR1W0w6N2mFYr5A6AwwDVZLfR/s5G84mblU35fBS4IncSJZtDGqarhrAAUNOdRrtnxjsWuDV3EipsKenOYFvncJhHml57JHci6p0FgJpuOfBK4K7ciZTgo3hF1Sa3Aa/LnUQJlgNHAH/KnYj6YwGgNrib1MnqodyJBPoR8KbcSSjcebTvsdW/0e67cK1lAaC2uJw0xGlx7kQCXAO8lDTvv9rnJOAjuZMI8l/AmbmT0GAsANQm3wdeQ7OHy11HWvzlgdyJqFQnAF/JnURBnyANcVRDWQCobb5Aunp+OHciA7gCeA5pLLXabRlwGPDx3IkM6EPAMdjpr9EsANRGF5Guopu0FOm3gOcB91T8vg8WfP1y0mx06t8y0iiPd9GcE+lS4Hj+Pq+BGswCQG31E2An4Ke5E5nAMuBk4EWkSY2qdkfB188DlkQk0mFjn3/dC9a7STNvfjh3IophAaA2u4N0VX066URbN7cDzyddAS7PlMOPCr7+ByFZ6JukRaguy53IKlwM7Ii9/VunLlOBOhWwyjR2NyD3VKkjpJEKZ5IWZ8ntmRTblhdWn3KrDZHm9Z9H/uN0hLTAVRmrUKoYVwMcp1kAaHWGgVcTc6wN0pYB5wNPLHtD+3QBg23P93Mk2xHrAGeQ+lfkOFYfAP4TWLPsDdVALADGaRYA6sVk0uyB11DNl+li4POklQPraB3gRvrbpruAx+ZItmPWJ62udz/VHKvzgHeSVhFUfVkAjNMsANSv7YFTKeeW6++BE4ENKtuawT2WNAyxl+26gfrdxWi7acABpLkDFhF7nD5CGjlzEGmpa9WfBcA4zQJAg5oE7Aq8DfguaTheP5/5EtKJ8dOkedE3qTb9ENNJ238v42/jX0gdFr0tnNcsYH/g/cCVpDkv+jlWF5BmzjyV1IdjRrXpK0BIATA0+pei1iF9ORQxF9iyYIxdgF8VjDEH2KtgjIOBrxaMofzWBbYhHZdrkm6LziJdgS0YbfNIt89voh3TEEN6RPJsUq/v9UjD0/4A/Jj2bGObDAObkY7VjUnH6tjx+gB/P1bvIBWpt+dJU4FmE7Cy5OSARKS2ug/42WjrkqXAJaNN9bectGT0rXnTUNM4D4AkSR1kASBJUgdZAEiS1EEWAJIkdZAFgCRJHWQBIElSB1kASJLUQRYAkiR1kAWAJEkdZAEgSVIHWQBIktRBFgCSJHWQBYAkSR1kASBJUgdZAEiS1EEWAJIkdZAFgCRJHWQBIElSB1kASJLUQRYAkiR1kAWAJEkdZAEgSVIHWQBIktRBFgCSJHWQBYAkSR1kASBJUgdZAEiS1EEWAJIkdZAFgCRJHWQBIElSB1kASJLUQRYAkiR10GRgBBgqGOdAYGHBGDMKvl6SJPVoMvAwsEbBOJ8JyEWSJFVkGLg/dxKSJKlaw8BNuZOQJEnVGgauyp2EJEmq1jDww9xJSJKkag0Dc4D7ciciSZKqMwwsBs7JnYgkSarO2ERA7wcW5UxEkiRVZ6wAuAN4X85EJElSdVacCvgU4He5EpEkSdVZsQB4GDgY+GumXCRJUkVWXgzoWtK8/g9lyEWSJFVkvNUALwX2ximCJUlqrVUtB/xTYGfg5xXmIkmSKrKqAgDgNuDZwL8C86pJR5IkVWF1BQDAcuBjwBakQuAXpWckSZJKN7nHn3uYVAh8DNgIeC6wA6kwWAuYFpDLbsD0gDiSJLXZUESQXguAFf0ZODfizVcyF9iyhLiSJLXJegExHp7oEYAkSaqXiIvlBRYAkiQ1y34BMe6yAJAkqTnWBg4NiHObBYAkSc3xLmDdgDhXWwBIktQMRwDHB8W6wgJAkqR6mwS8HfgfYoYALgEuHWQYoCRJKt9apA5//06aeyfKZcB8C4BynAQcnTsJSVIjTQE2BB4/+vdo/x8GmwhIE9txtEmSVCf3AF+DidcCkCRJ7fFJYBFYAEiS1BXzgY+M/cMCQJKkbngX8Kexf1gASJLUfr9nhat/sACQJKntlpBGpi1Z8T9aAEiS1G7HAz9b+T9aAEiS1F4fBD4+3v+wAJAkqZ3OA968qv9pASBJUvt8GHgFsGxVP2ABIElSe4wAJ5Oe+y9f3Q86FbAkSe0wDzgK+GYvP+wdAEmSmm0ZqaPfdvR48gfvAEiS1FTLgfOBdwPX9PtiCwBJkpplCXAGaWGfuYMGsQCQJKlZFgBvKxrEAqAcHwB+XjDG0cBeBWN8EbiwYIxefAaYUTDG/yV1gmOciAAABfhJREFUYCnTjsBJBWPcTMAvXg/q8vkfCBxeMMb3gU8UjNGLU4EtC8YY6FZqnzYkDdEqYiHw6oBcJvJi4LCCMfz8Hy3i82+duaThC0XaUwPymBOQx8EBeZwdkEcVJyqA+wNyLfqL24u9AvK8soI8oT6f/4kBeZwdkEcvrgzItWjR1YstA/K8v4I8IR1Dfv6xavP5OwpAkqQOsgCQJKmDLAAkSeogCwBJkjrIAkCSpA6yAJAkqYMsACRJ6iALAEmSOsgCQJKkDrIAkCSpgywAJEnqIAsASZI6yAJAkqQOsgCQJKmDLAAkSeqgybkTWMHygBgR2zMlIMaygBgR++MlwBYBcSayRkCMU4D5AXFWZ5OAGI+jmvXNdw+IEXEcRsTYnWr22eMCYpwAHBQQZ3VmBcRYg2r26U4BMfz8Hy3i8484P9SqAFgYEGOjgBgbB8R4MCBGxP7YdbQ1wSG5E+jResDRuZPoUV2OwyeOtibYL3cCPZpGc45DP/94IRdLdXoEEPFl9eSCr1+LmCpyQUCMeQEx1G0Rx5DHoVQ/d0cEqVMBcFdAjJcUfP1+wNSAPCK25fqAGOq2iGPI41Cqn5DfyzoVADcExNgJ2HfA104C/j0gh4eB2wPiXA6MBMRRNz1AzJfEdaOxJNXHzyOC1KkA+ENQnDOBdQZ43YnADgHvfz0xHTTuBn4bEEfd9H3iOgH+MCCOpDhzIoLUqQC4LCjOVsDXgLX7eM0RwLuD3v/HQXEAvhAYS93yxcBYHodSffwCmJs7iTJcT7rtHdGuA549wfutDXyQdMUe9b4HFtkBK1mf1KEwKjdbN9otxAxnHTMFuK0G22Wz2dIFa4hJUYGCbAbsFhRrPeA1pCJgDf5+W35j4GnA8cAngecBQ0HvuQA4DlgcFO8hYDbwrKB46oa3AlcExlsOPALsHxhTUv9uAI4laB6AqBNflB1p9nPvc4Ajg2POAq4lZn4Ctd+vgKcT8/x/RZOAXwI7B8eV1Lt9gO9GBatTHwCAa0jPN5rqUyXEnA+8mqCKT622kFSARp/8GY15JOmulKTqfZzAkz/U7xEAwL00Z1a4Ff0U+I+SYs8FlgDPLym+mm856QR9SYnvcQ9wM/BS6nf3UGqznwKHA0sjg9axALgeeDEx0/pW6bWU2zPzJ8Ca2B9A/2g58HrgsxW81+9IRfo/YxEgVeEq0vw2EbPlNsLuxPbML7tdWM5uGNdbSFVg7m221aMtAA6meoeQHjnk3n6brc3tYmAmHfRp8u/8XtqDxKwf0I89SHcbcm+7LW+7EtiOfHYgXZ3k3g82W9vaQ6TRPJ29yzaTNOQh9wcxUXtlWTtgAtOBt5Oey+beB7Zq2y2kR051eIQ3CTgG5wmw2SLaEuBzVLOMe+3tRL1vM36ivE3v2QxS569vU+99ZSvW7ge+SuofEznJT5QppM6B5wN/If/+stma0paR7qSdRMV3k5twe2E/0jP2ybkTWcl3gBeRKra6mApsD2xNWg9hVt50VNADpDs815E6x5YxvK8Mk4BtgW1Is1n2My231AWPAH8lPcr9Halo1iq8knSizV2pjbUfk668JUlSyQ4gdYzIffL/Bun5uyRJqsiupA5QOU78y4H/oh4dryRJ6pzZwJep9uR/J2kOZkmSlNk+lD9McDFwBh2diEGSpLoaBg4C/kDsiX8RaSzmE6rbFEmS1K9h4Lmk2QPvZ7CT/jLg56Q51derNHtJkirWhHkA+jWJNIHQHqQx8dsCm5DGxK8FPEyaP/0+0iOEG4DLgUtJxYMkSZIkSZIkSZIkSZIkSZIkSZIkSZIkSZIkSZIkSZIkSZIkSZIkSZIkSZIkSZIkSZIkSZIkSZIkSZIkSZIkSZIkSZIkSZIkSZIkSZIkSZIkSZIkSZIkSZIkSZIkSZIkSZIkSZIkSZIkSZIkSZIkSZIkSZIkSZIkSZIkSZIkSZIkSZIkSZIkSZIkSZIkSZIkSZIkSZIkSZIkSZIkSZIkSZIkSZIkSZIkSZIkSZIkSZIkSZIkSZIkSZIkSZIkSZIkSZKkHv0vENhXsC64MN4AAAAASUVORK5CYII=;" vertex="1" parent="1">
          <mxGeometry x="410" y="280" width="40" height="40" as="geometry" />
        </mxCell>
        <mxCell id="W4ZQf7grJeuH_FmLfWgL-28" value="" style="shape=image;verticalLabelPosition=bottom;labelBackgroundColor=default;verticalAlign=top;aspect=fixed;imageAspect=0;image=data:image/png,iVBORw0KGgoAAAANSUhEUgAAAgAAAAIACAYAAAD0eNT6AAAABHNCSVQICAgIfAhkiAAAAAlwSFlzAAAOxAAADsQBlSsOGwAAABl0RVh0U29mdHdhcmUAd3d3Lmlua3NjYXBlLm9yZ5vuPBoAACAASURBVHic7d15mB1lmbDxuzvbhJBA2AVBQARkUUTEBRFFRIZF3EAWwdEPEQY/xHHBUflGRnGAURQXFP3UUVxQQVAUl7iAuKAgiqisYRPQsIkhAbL2/PF2a4id9Dmnnqq3lvt3Xe+VBPo856k61aeeqnoXkCRJkiRJkiRJkiRJkiRJkiRJkiRJkiRJkiRJkiRJkiRJkiRJkiRJkiRJkiRJkiRJkiRJkiRJkiRJkiRJkiRJkiRJkiRJkiRJkiRJkiRJkiRJkiRJkiRJkiRJkiRJkiRJkiRJkiRJkiRJkiRJkiRJkiRJkiRJkiRJkiRJkiRJkiRJkiRJkiRJkiRJkiRJkiRJkiRJkiRJkiRJkiRJkiRJkiRJkiRJkiRJkiRJkiRJkiRJkiRJkiRJkiRJkiRJkqQYQ4GxpgFPB3YHtgO2ATYCZgBrB75PUQ8BC4F7gRuB64FfAJeO/jdJkjSBqcCBwPmkk+pIg9sy4JfA8cD6kTtJkqS2mAG8AbiD/CfuMtpi4HOkuxiSJHXeEPAvwDzyn6SraEuADwFrBew7SZIaaTPSc/LcJ+Uc7S5gv+K7UJKkZjkAuI/8J+KcbTlwOjC54L6UJKkRjiN1kMt9Aq5LuwhYo9AelSSp5t5J/hNuHdtlwJoF9qskSbV1LPlPtHVuPyDNfSBJUmscgLf9e2mfGnQHS5JUN5uSZsTLfXJtSnvVYLtZkqT6GKK7Q/0GbQuAzQfY15Ik1caryX9CbWK7cJCdLUlSHaxJd2b4K6O9sP9dLklSfm8i/0m0ye3n/e9ySZLymgrcSf6TaNPbc/rd8ZIk5TA8+ue+wMY5E2mJ/5M7AUmSejE0+uf5wEsD4y4jdYy7ALgauJu0sl4drAdsQSp6Dh/9d5QFwGNG/5QkqdamAQuJuw1+GbBdpVswuFnA+0kL/URt/4GVboEkSQN6DnEnvy+S+hM0zeHEzXx4ZsW5S5I0kHcQd+XfxJP/mLcRsx+uqjpxSZIG8QWKn/SWAttXnXiwYdLJu+i+eIi/d66UJKm2rqT4Se+8yrMux6HE3AV4XNWJS5LUj2FSr/WiLgiIUQffAhYHxHFIpSSp1oaBmQFxrg6IUQfzgVsD4qwZEEOSpNIMA2sExLk3IEZd/CkgRkRRJUlSaYaBRwLirB0Qoy4iJiyaFBBDkqTSDAMPBsTZOiCGJEmqyDBwT0Cc/QNiSJKkigwDNwbEOQzYKCCOJEmqwDBwbUCcGcD7AuJIkqQKDAM/D4p1OPD2oFiSJKlEw6Q5/JcGxTsF+AQOg5MkqdaGSZPfXBYY87XATaRFhpq+PoAkSa00efTPc4DnBcbdAHjPaFsMzCNmfP084Bbgm8CFwMMBMSVJ6qxZpDsBEQvhVNVuBw4uYV/MCcjtoBLykiQpzNiytfOBj+dMZACbAl8m3WWQJEl9WHHd+jNo5i31dwDH5k5CkqQmWbEA+DNwaq5ECno/6Y6AJEnqwfBK/z4NuCFHIgVNB/4tdxKSJDXFygXAIuAIUs/9pnkpMJQ7CUmSmmDlAgDgl8CJVScSYDNg3dxJSJLUBOMVAAAfpHmjAgAekzsBSZKaYFUFAMDrga9WlUiQqbkTkCSpCVZXACwDDiXN7S9JklpkdQUApCLgGOCdo3+XJEktMFEBAGlq21OAvYA7y01HkiRVoZcCYMwlwDbAyTRzmKAkSRrVTwEAsBB4F7ATaQXBpdEJSZKk8vVbAIy5FjgSeALpjsDcsIwkSVLpBi0AxtxKuiPwBOBJwAnA+aQCwccEkiTV1OSgOCPANaPtzBVirwOsCczuIcbXgU2C8pEkSasRVQCMZylw92jrxaISc5EkSSso+ghAkiQ1kAWAJEkdZAEgSVIHWQBIktRBFgCSJHWQBYAkSR1kASBJUgdZAEiS1EEWAJIkdZAFgCRJHWQBIElSB1kASJLUQRYAkiR1kAWAJEkdZAEgSVIHTc6dQEudBBydOwlJUmP9FVgI/Am4HvgDcBWwJOoNLADKseNokyQpykLgMuAbwJeB+4sE8xGAJEnNMAPYBzgLuAv4EvDkQYNZAEiS1DzTgEOAXwMXAo/vN4AFgCRJzTUEHAhcA7yTPh7tWwBIktR804F3Az8BNu/lBRYAkiS1x9OBy4GnTvSDFgCSJLXLhsCPgD1X90MWAJIktc9M4CLgWav6AQsASZLaaQ3g68BW4/1PCwBJktprPeBrpE6Cj2IBIElSu+0InLbyf7QAkCSp/Y4jjRD4GwsASZLabxj4CGnioL/9B0mS1H67AC8a+4cFgCRJ3fGOsb9YAEiS1B1PI90J6H3RgBXMBJ4N7ECab3gtYGpAUhsGxKiLM0hTMUqS1K/JpHPik4H9SUP5Ih0JXNlPMocC3wOWACM1bRPOfdyDOQF5HBSQhyRJU4HXA/cRd668ixU6A67KEHA4cEvgG1sASJLUny2BPxB3vtxudX0ANgK+C3yeHpcWlCRJpbgZ2Bv4c1C8562qAHgKcBXwgqA3kiRJxdwBHBMUa8fxCoCnkZYRfEzQm0iSpBhfB34ZEGeblQuAxwMXk3r2S5Kk+jk3IMbmKxYA04CvED/cQJIkxflpQIxZKxYAbwF2DggqSZLKc2dAjL8VABsBbw8IKEmSyvVQQIzJYwXAG4HpAQElSVIDDJNm+XtV7kQkSVJ1hoG9aNc8/JIkaQLDwJ65k5AkSdUaJmb+fEmS1CDDwBNyJyFJkqo1DKyTOwlJklStycAaAXHeSPFxiafgLIQTGQJ2AfYANiHms5vIcmAecB3wHeCBCt5TklSBiHWFZwfkMTcgj4j+DHMC8jgoII+VHQTcEJBbkbYI+AiwfgnbJ0nqzWwCvtNXtRyw6mMK8EnSOg25+2tMBY4jLRXttNGS1GAWAPX3YeCo3Ems5LGkOyVb5U5EkjQYC4B6Owh4Xe4kVmEd4BxSvwRJUsNYANTXEKljZJ09AzgwdxKSpP5ZANTXruR/5t+Lw3InIEnqnwVAfe2eO4Ee7ZE7AUlS/ywA6mvj3An0aH3S6ABJUoNYANTXjNwJ9Gj5aJMkNYgFgIr6E7A0dxKSpP5YAKioObkTkCT1zwJARX02dwKSpP5ZAKiIi4BLcychSeqfBYAGdTPwmtxJSJIGYwGgQfwG2BO4N3cikqTBWACoH3cAJwBPB27LnIskqYDJuRNQqb5N8Wf0y4B5wB9IywCPFE1KkpSfBUC7XQqcljsJSVL9+AhAkqQOsgCQJKmDLAAkSeogCwBJkjrIAkCSpA6yAJAkqYMsACRJ6iALAEmSOsgCQJKkDrIAkCSpgywAJEnqIAsASZI6yAJAkqQOsgCQJKmDLAAkSeogC4D6Wh4QY1lADElSC1kA1Ne8gBh/DoghSWohC4D6ui4gxrUBMSRJLWQBUF/fARYXeP0dwFVBuUiSWsYCoL4eAD5Z4PX/DYwE5SJJahkLgHo7mXQl369fAR8PzkWS1CIWAPV2D3AgcF8fr7kZeDHFHh9IklrOAqD+rgKeDlzew89eBOzKYHcNJEkdYgHQDHOBZwEvAb7K34cILied7P8HeC7wIvq7WyBJ6qjJuRNQz0aAC0cbwDTSRD9Ls2XUXlsCTwW2BrYd/fcMYCawFrAIWAjMJxVcN5CGbV4H/AJYUH3KYaYCLyM9Rtoe2BCYVMH7LiPtz/mkfXsjcD1p314B/LGCHMr0DOAQYDdgY9IxdDvwXeALo39viicAhwPPBzYjHR93AJcCXwJ+ky819WskoM0OyGNuQB5PDchjTkAeBwXkoepMJ305fwa4lWKf/RLgp8C7gZ0r3IYIewM3EfOdEN1uBM4mFSbTytoBJdgY+Car37ZHgNOAKZly7NV04KOkY3xV27IcOBdYJ1OOXTGbmN+rkCAWAI9uFgDN8Gzg08BfKe/E9TvgRNKVdJ29jnQ3qcqT+qDtPuAsYJdS9kSc7UhXxr1u1w+BNbJkOrHZwC/pfVtuBDbPkWhHWACM0ywA1ItnAz+g2pPWI6Qr2E0r2L5+/TPNOfmv3L5H6v9SN+sy2Hfal3MkO4FJpP3c77b8lvToTPEsAMZpFgBanafR31VMGW0R8H5Sf4I6+CfgNvLuk4j2Q1Kfhbr4CINvywEZ8l2d1zD4tpycId8usAAYp1kAaDyzgY+ROprlPlGNtTuAg8vc6B4dRf59EdUWA6eT/6pzvdFcBt2OXob8VulGBt+W+aS+A4oVUgA4DFBt9zTSzIjHUK9hr5uQbveeRxpZkMtLMr53tCnAW0if95My5rEfxTr07Uo6PupgR2CrAq+fCbwgKBcFq9MXohRpCHgzqUf+FplzWZ2XkYYO5jph5TxRlmUb0lX0UZne/8kFXz9EOvHWQdFtgXYeY60wmXQrYKhgnFcBDxWMMavg66Uxk0i9xI/OnUiPtiEVKi8njQuvUt1HJwxqOmkxra1JozBGKnzviH36mIAYETYIiFGXbdFKJpNO3EWfmX0gIBcpwjTg86STaZOsCXyDVEyfW+H71n3seVFvIZ2AXkMav16FiAnW6vK5ROThhHM1NYxTx6o9pgAX0LyT/5ippFnhXpE7kZZ5JfA5fOQpPcowaeYvqemGgE+QxrQ32TBwDvDC3Im0zCGkoXmSRg0DV+ZOQgpwKvAvuZMIMoW06JOdp2IdC7w1dxJSXQyTZkSTmmx/0rPeNplJGiJo59hY7wX2zJ2EVAfDpBm05k30g1JNbUpaDrnoSJY6egLpsYbiTCL1s9godyJSbsOkOcA/kzsRaQBDwGdJ86631SuwU2C0jYAP505Cym2sV+wHKT6OX6ra4cDzcidRgQ+Sd7bANno5sG/uJKScxsZnzgNOGW1SE6wF/HfJ7zEfuAT4CXAdcBdp6eBppGfzW5FmSnsusDPlPYbYCPh/wJtKil/UzqT9UsQk0me6KbAtsDuwB+Uuj3smqQ/UohLfQ2qEqeRfKa1oczGg7vgPyjuOLicNG+tnEZMtgHeT5tUoI6dFlLOUcERuEYuBjWdN0siOq4PyHK8dV0LeXw7Iqy6zWI7NoliknV151u0XvhjQYtKzxnuqyV8a2Ezg+BLi3kRayOUZpNn4Hu7jtbcAJwGbk1aki551birtG+kwkQWkDp47kb6b7izhPd5K2rdS56w8M9YtpOdiRW/nSWU6BlgnOOYnSePuLy4Y50HSVdMziJ9k6yjaO3f/6owAXwG2G/0z0makmQKlzhlvaswrSc/e7qo4F6kXQ8DrAuONkJ6tH01/V/wTuYq0FPFlgTGn057JjgYxn3Qn4G3BcY8Njic1wqrmxr4aeArVr0wmTWQ34PFBsUZIxcQZQfFW9gBpSt/IIuCIwFhNdRqxRcAupLsLUqesbnGMu4F9gEOBm6tJR5rQkYGx3kO69V+mh4EXEfc4YHtSr/uuOw34WGA8Cyt1Ti+rY51LWq/8UOA7pImDpByGgAODYl0CnBwUayIPAAeTOtpGeElQnKZ7I/CboFgvDoojNUav6zQvJRUC55KG5uwG7EAa+rQWaVx0UfsCMwLiqL12ADYIiLOY9Nx3WUCsXv2aNKFPxGI0XZj8qBeLgNcCv6D4Ur/bAptQzkgDqZZ6LQBWtIDUNyC6f8BcYMvgmGqXqBPf2aSJfar2HlJP/qIjGHYlFeILCmfUfFeSxt0fGhDruaR1AqROKFo1S1XaLSDGMuB9AXEG8SBwVkCcKaQiQMmpQXEiji+pMSwA1CRPDIgxB7g9IM6gPkUafVDUtgEx2uK3wK8C4rhP1SkWAGqKYdLyuEV9LSBGEbcS03Ftm4AYbXJ+QAwLAHWKBYCaYjPgnwLi/CggRlEROWwdEKNNIvbpY0jTTEudYAGgplg3IMZCUmfT3H4bECNif7TJNcQ8WnG/qjMsANQUawbEuJmYk0RREUXIrIAYbbIQ+HNAHO8AqDMsANQUEV/MdVnk6oGAGJ6o/pH7VeqDBYCaIuL5f+RiP0XcnzuBlopYgnlKQAypESwA1BRDuRMIdDfFZyF0tc5/FHH17uRK6gwLAKl6S4ErCsb4WUQiLTJM6sVf1PyAGFIjWABIeXyl4Ou/GpJFe2xBzGMiCwB1hgWAlMfZDL7wzHeBnwTm0gbPCYixkPR4RuoECwApj4dIC9j0u0TwvaSVDPVo+wTEuIF6DBOVKmEBIOVzGXAEvY9OuBN4IXBLaRk101rAAQFxrg+IITWGBYCU11eAZ7L6qWyXA58DdgGuqiKphjkGmB4QJ2JBIakxJhd47SxSx5tZwLSAXCJ+gaUmuhrYE9iJdCW7NbAO6Xn0r4FvkBYR0j9aG3hTUKw6rBMhVaafAmAasD9wIPBcYNMyEpI67DfErBTYJe8B1g+I8xfc9+qYXgqAWcDxwBuA9cpNR5J6tj/wr0Gx5lB8ciapUSYqAF4OnAlsXEEuktSrHYFziJsh8vNBcaTGWFUBMAX4EKlzjSTVyfbAd0jP/yPcMxpP6pTxCoDpwHnAvhXnIkkT2Qf4IjA7MOYXiFlISGqUlYcBTgbOxZO/pHqZCZwBXEzsyX/xaFypc1a+A/Bu4EU5EpGkcawBHAWcSDl9kT4L/LGEuFLtrVgAPAd4a65EJGnUBsDuwH7Ay0gjkcqwCDi1pNhS7Y0VAJOAs3BmQEn9u4Diz9CnkE70mwHrFs6oN6cDN1f0XlLtjBUAryD1rJWkfu2RO4EB3A6cljsJKaexK/43ZM1CkqqznNSvYGHuRKSchoFtgV1zJyJJFXkvaeY/qdOGiVlHW5Ka4FLgXbmTkOpgGNgtdxKSVIGbgINxzn8JSAXAdrmTkKSS3QW8gLTEsiRSAeBCP5La7C5gb+DWzHlItTIZWDMgzm8oflttB2BaQC5SLlNJk9hsGBBrCelqdR4wEhCvq24GXki6/S9pBZOZeEngXuwJ/KVgjLnAlgG5SFXbE3g96USzRnDsPwEXAu/DSWv69RPgpaTV/iStxJn/pMHNJK2c+QPgJcSf/AEeAxwLXEuaD3+ohPdomxHScuZ74slfWqWIq3+pi2YClwA7V/R+U0nz1m9Kutug8f0ReB3w7dyJSHXnHQBpMJ+hupP/io4jzWKnR1tCuurfHk/+Uk8sAKT+7UFapS6X04HZGd+/TpYCnwd2JE1p/mDedKTmsACQ+ndC5vefDRySOYfc5gNnk6YyPwK4Pm86UvNYAEj9mUKaUCa3/XInkMHDwLeAw4CNgGNIo4ckDcBOgFJ/NgZm5E4C2Cp3AiVbRpq45wbgCuCHwOXAoow5Sa1iASD1Z2buBEatnzuBFbya4kvrLiU9v39g9M9b8WQvlcoCQOrPvNwJjKrTfABfp/hEYJIqZh8AqT/3ArfnTkKSirIAkPozAlyQOwlJKsoCQOrf6cBDuZOQpCIsAKT+3QW8JXcSklSEBYA0mLOA9+BSvZIaygJAGtxJwMHYKVBSAzkMUCrmPOCbwIHA/sDjgQ0neM0U0qp+kpSNBYBU3CPAl0dbL7bEKWwlZeYjAEmSOsgCQJKkDrIAkCSpgywAJEnqIAsASZI6yAJAkqQOsgCQJKmDLADUFMsCYkwKiBEh4vdueUAMlSPis6nLd7PHaovV5SCTJrIwIMaMgBgRZgXEeDAghsrRpmN1ZkAMj9WasgBQU0R8iUw0RW9VNgiI4ZdqfbXpWI3IY0FADJXAAkBNEfGluhkwPSBOUdsExLAAqK+IzybiGIkQkcf8gBgqgQWAmuKPATGGgacFxCnqmQExIvaHynFHQIxnAEMBcYqYCjwlII7Hak1ZAKgpHgDuDoizd0CMIiYDewbEuT4ghspxXUCMDYAnBcQpYndgjYA4Hqs1ZQGgJon4IjmcvFdWewHrB8SJOMmoHFEnvMOC4uR8/+XATQFxVAILADXJ1QExNgf2DYgzqOOC4lwTFEfx5o22ol5NvtEA6wGvCIhzPWm5bNWQBYCa5JKgOCeR5y7ALsB+AXHuBn4fEEfl+VFAjPWBYwPiDOLNxBQfEftBJbEAUJNcQsykIk8HXhUQpx/DwIeJKTwuAUYC4qg8USe+k4CNg2L1amvghKBYPwyKoxJYAKhJ7gN+HRTrA8AWQbF6cSKpZ3eEOUFxVJ7vB8WZBXyG6r6rpwKfA6YFxFpK3F07lcACQE3zpaA4awPnETPT2UT2Af4zKNYi4GtBsVSem4HLg2LtDbwnKNZEPky6Qxbhe6SiXTVlAaCm+SIx6wIA7AxcSLkdrXYnFRqTg+J9C7g/KJbKdU5grH8nPZcv03uBowPjRW6/SjIS0GYH5DE3II+nBuQxJyCPgwLy0KpdTMxxO9Z+QTnPWQ8GHg7O9cDgHOvy+99G6xL/+Z9O/KJW04BPBuf5F+ox62ZbzSbmc6rNF4AFgHq1J7FfViOkYVsHBOU3E/hoCTleS/xdu7r8/rfVWcQfB5cAWwbltz1wZQk5VvXIoqssAMZpFgDd8TPiv7RGgItIjwYGMRV4LXBnSbkdOWBeq1OX3/+22hxYTPyx8BBwCmm8/iA2Bj5YUm4LCuSl3lgAjNMsALpjX+K/uMbactJV1lHAJhPkMYnUaeo0yjvxj5BmU4vqR7Ciuvz+t9mnKe+4WAB8ltTRdKJpe2eSHiF9iTQ5T1k5nd73HlK/QgqAMr5QpCpcPNrKmNVvCNhjtAHcQpp694+kld6mkoZnbU26hTqrhBxWdgJpWJWa5x3AyyjnOJlBujN0JOlq/vfADaSOovOBtUhX41sD21FOEbmiP5PuTKgh6nIF4B0A9etxwELKu5KpS7swaoeNoy6//233BvIfR1W0w6N2mFYr5A6AwwDVZLfR/s5G84mblU35fBS4IncSJZtDGqarhrAAUNOdRrtnxjsWuDV3EipsKenOYFvncJhHml57JHci6p0FgJpuOfBK4K7ciZTgo3hF1Sa3Aa/LnUQJlgNHAH/KnYj6YwGgNrib1MnqodyJBPoR8KbcSSjcebTvsdW/0e67cK1lAaC2uJw0xGlx7kQCXAO8lDTvv9rnJOAjuZMI8l/AmbmT0GAsANQm3wdeQ7OHy11HWvzlgdyJqFQnAF/JnURBnyANcVRDWQCobb5Aunp+OHciA7gCeA5pLLXabRlwGPDx3IkM6EPAMdjpr9EsANRGF5Guopu0FOm3gOcB91T8vg8WfP1y0mx06t8y0iiPd9GcE+lS4Hj+Pq+BGswCQG31E2An4Ke5E5nAMuBk4EWkSY2qdkfB188DlkQk0mFjn3/dC9a7STNvfjh3IophAaA2u4N0VX066URbN7cDzyddAS7PlMOPCr7+ByFZ6JukRaguy53IKlwM7Ii9/VunLlOBOhWwyjR2NyD3VKkjpJEKZ5IWZ8ntmRTblhdWn3KrDZHm9Z9H/uN0hLTAVRmrUKoYVwMcp1kAaHWGgVcTc6wN0pYB5wNPLHtD+3QBg23P93Mk2xHrAGeQ+lfkOFYfAP4TWLPsDdVALADGaRYA6sVk0uyB11DNl+li4POklQPraB3gRvrbpruAx+ZItmPWJ62udz/VHKvzgHeSVhFUfVkAjNMsANSv7YFTKeeW6++BE4ENKtuawT2WNAyxl+26gfrdxWi7acABpLkDFhF7nD5CGjlzEGmpa9WfBcA4zQJAg5oE7Aq8DfguaTheP5/5EtKJ8dOkedE3qTb9ENNJ238v42/jX0gdFr0tnNcsYH/g/cCVpDkv+jlWF5BmzjyV1IdjRrXpK0BIATA0+pei1iF9ORQxF9iyYIxdgF8VjDEH2KtgjIOBrxaMofzWBbYhHZdrkm6LziJdgS0YbfNIt89voh3TEEN6RPJsUq/v9UjD0/4A/Jj2bGObDAObkY7VjUnH6tjx+gB/P1bvIBWpt+dJU4FmE7Cy5OSARKS2ug/42WjrkqXAJaNN9bectGT0rXnTUNM4D4AkSR1kASBJUgdZAEiS1EEWAJIkdZAFgCRJHWQBIElSB1kASJLUQRYAkiR1kAWAJEkdZAEgSVIHWQBIktRBFgCSJHWQBYAkSR1kASBJUgdZAEiS1EEWAJIkdZAFgCRJHWQBIElSB1kASJLUQRYAkiR1kAWAJEkdZAEgSVIHWQBIktRBFgCSJHWQBYAkSR1kASBJUgdZAEiS1EEWAJIkdZAFgCRJHWQBIElSB1kASJLUQRYAkiR10GRgBBgqGOdAYGHBGDMKvl6SJPVoMvAwsEbBOJ8JyEWSJFVkGLg/dxKSJKlaw8BNuZOQJEnVGgauyp2EJEmq1jDww9xJSJKkag0Dc4D7ciciSZKqMwwsBs7JnYgkSarO2ERA7wcW5UxEkiRVZ6wAuAN4X85EJElSdVacCvgU4He5EpEkSdVZsQB4GDgY+GumXCRJUkVWXgzoWtK8/g9lyEWSJFVkvNUALwX2ximCJUlqrVUtB/xTYGfg5xXmIkmSKrKqAgDgNuDZwL8C86pJR5IkVWF1BQDAcuBjwBakQuAXpWckSZJKN7nHn3uYVAh8DNgIeC6wA6kwWAuYFpDLbsD0gDiSJLXZUESQXguAFf0ZODfizVcyF9iyhLiSJLXJegExHp7oEYAkSaqXiIvlBRYAkiQ1y34BMe6yAJAkqTnWBg4NiHObBYAkSc3xLmDdgDhXWwBIktQMRwDHB8W6wgJAkqR6mwS8HfgfYoYALgEuHWQYoCRJKt9apA5//06aeyfKZcB8C4BynAQcnTsJSVIjTQE2BB4/+vdo/x8GmwhIE9txtEmSVCf3AF+DidcCkCRJ7fFJYBFYAEiS1BXzgY+M/cMCQJKkbngX8Kexf1gASJLUfr9nhat/sACQJKntlpBGpi1Z8T9aAEiS1G7HAz9b+T9aAEiS1F4fBD4+3v+wAJAkqZ3OA968qv9pASBJUvt8GHgFsGxVP2ABIElSe4wAJ5Oe+y9f3Q86FbAkSe0wDzgK+GYvP+wdAEmSmm0ZqaPfdvR48gfvAEiS1FTLgfOBdwPX9PtiCwBJkpplCXAGaWGfuYMGsQCQJKlZFgBvKxrEAqAcHwB+XjDG0cBeBWN8EbiwYIxefAaYUTDG/yV1gmOciAAABfhJREFUYCnTjsBJBWPcTMAvXg/q8vkfCBxeMMb3gU8UjNGLU4EtC8YY6FZqnzYkDdEqYiHw6oBcJvJi4LCCMfz8Hy3i82+duaThC0XaUwPymBOQx8EBeZwdkEcVJyqA+wNyLfqL24u9AvK8soI8oT6f/4kBeZwdkEcvrgzItWjR1YstA/K8v4I8IR1Dfv6xavP5OwpAkqQOsgCQJKmDLAAkSeogCwBJkjrIAkCSpA6yAJAkqYMsACRJ6iALAEmSOsgCQJKkDrIAkCSpgywAJEnqIAsASZI6yAJAkqQOsgCQJKmDLAAkSeqgybkTWMHygBgR2zMlIMaygBgR++MlwBYBcSayRkCMU4D5AXFWZ5OAGI+jmvXNdw+IEXEcRsTYnWr22eMCYpwAHBQQZ3VmBcRYg2r26U4BMfz8Hy3i8484P9SqAFgYEGOjgBgbB8R4MCBGxP7YdbQ1wSG5E+jResDRuZPoUV2OwyeOtibYL3cCPZpGc45DP/94IRdLdXoEEPFl9eSCr1+LmCpyQUCMeQEx1G0Rx5DHoVQ/d0cEqVMBcFdAjJcUfP1+wNSAPCK25fqAGOq2iGPI41Cqn5DfyzoVADcExNgJ2HfA104C/j0gh4eB2wPiXA6MBMRRNz1AzJfEdaOxJNXHzyOC1KkA+ENQnDOBdQZ43YnADgHvfz0xHTTuBn4bEEfd9H3iOgH+MCCOpDhzIoLUqQC4LCjOVsDXgLX7eM0RwLuD3v/HQXEAvhAYS93yxcBYHodSffwCmJs7iTJcT7rtHdGuA549wfutDXyQdMUe9b4HFtkBK1mf1KEwKjdbN9otxAxnHTMFuK0G22Wz2dIFa4hJUYGCbAbsFhRrPeA1pCJgDf5+W35j4GnA8cAngecBQ0HvuQA4DlgcFO8hYDbwrKB46oa3AlcExlsOPALsHxhTUv9uAI4laB6AqBNflB1p9nPvc4Ajg2POAq4lZn4Ctd+vgKcT8/x/RZOAXwI7B8eV1Lt9gO9GBatTHwCAa0jPN5rqUyXEnA+8mqCKT622kFSARp/8GY15JOmulKTqfZzAkz/U7xEAwL00Z1a4Ff0U+I+SYs8FlgDPLym+mm856QR9SYnvcQ9wM/BS6nf3UGqznwKHA0sjg9axALgeeDEx0/pW6bWU2zPzJ8Ca2B9A/2g58HrgsxW81+9IRfo/YxEgVeEq0vw2EbPlNsLuxPbML7tdWM5uGNdbSFVg7m221aMtAA6meoeQHjnk3n6brc3tYmAmHfRp8u/8XtqDxKwf0I89SHcbcm+7LW+7EtiOfHYgXZ3k3g82W9vaQ6TRPJ29yzaTNOQh9wcxUXtlWTtgAtOBt5Oey+beB7Zq2y2kR051eIQ3CTgG5wmw2SLaEuBzVLOMe+3tRL1vM36ivE3v2QxS569vU+99ZSvW7ge+SuofEznJT5QppM6B5wN/If/+stma0paR7qSdRMV3k5twe2E/0jP2ybkTWcl3gBeRKra6mApsD2xNWg9hVt50VNADpDs815E6x5YxvK8Mk4BtgW1Is1n2My231AWPAH8lPcr9Halo1iq8knSizV2pjbUfk668JUlSyQ4gdYzIffL/Bun5uyRJqsiupA5QOU78y4H/oh4dryRJ6pzZwJep9uR/J2kOZkmSlNk+lD9McDFwBh2diEGSpLoaBg4C/kDsiX8RaSzmE6rbFEmS1K9h4Lmk2QPvZ7CT/jLg56Q51derNHtJkirWhHkA+jWJNIHQHqQx8dsCm5DGxK8FPEyaP/0+0iOEG4DLgUtJxYMkSZIkSZIkSZIkSZIkSZIkSZIkSZIkSZIkSZIkSZIkSZIkSZIkSZIkSZIkSZIkSZIkSZIkSZIkSZIkSZIkSZIkSZIkSZIkSZIkSZIkSZIkSZIkSZIkSZIkSZIkSZIkSZIkSZIkSZIkSZIkSZIkSZIkSZIkSZIkSZIkSZIkSZIkSZIkSZIkSZIkSZIkSZIkSZIkSZIkSZIkSZIkSZIkSZIkSZIkSZIkSZIkSZIkSZIkSZIkSZIkSZIkSZIkSZIkSZKkHv0vENhXsC64MN4AAAAASUVORK5CYII=;" vertex="1" parent="1">
          <mxGeometry x="470" y="280" width="40" height="40" as="geometry" />
        </mxCell>
        <mxCell id="W4ZQf7grJeuH_FmLfWgL-29" value="" style="shape=image;verticalLabelPosition=bottom;labelBackgroundColor=default;verticalAlign=top;aspect=fixed;imageAspect=0;image=data:image/png,iVBORw0KGgoAAAANSUhEUgAAAgAAAAIACAYAAAD0eNT6AAAABHNCSVQICAgIfAhkiAAAAAlwSFlzAAAOxAAADsQBlSsOGwAAABl0RVh0U29mdHdhcmUAd3d3Lmlua3NjYXBlLm9yZ5vuPBoAACAASURBVHic7d15mB1lmbDxuzvbhJBA2AVBQARkUUTEBRFFRIZF3EAWwdEPEQY/xHHBUflGRnGAURQXFP3UUVxQQVAUl7iAuKAgiqisYRPQsIkhAbL2/PF2a4id9Dmnnqq3lvt3Xe+VBPo856k61aeeqnoXkCRJkiRJkiRJkiRJkiRJkiRJkiRJkiRJkiRJkiRJkiRJkiRJkiRJkiRJkiRJkiRJkiRJkiRJkiRJkiRJkiRJkiRJkiRJkiRJkiRJkiRJkiRJkiRJkiRJkiRJkiRJkiRJkiRJkiRJkiRJkiRJkiRJkiRJkiRJkiRJkiRJkiRJkiRJkiRJkiRJkiRJkiRJkiRJkiRJkiRJkiRJkiRJkiRJkiRJkiRJkiRJkiRJkiRJkiRJkiRJkiRJkiRJkiRJkqQYQ4GxpgFPB3YHtgO2ATYCZgBrB75PUQ8BC4F7gRuB64FfAJeO/jdJkjSBqcCBwPmkk+pIg9sy4JfA8cD6kTtJkqS2mAG8AbiD/CfuMtpi4HOkuxiSJHXeEPAvwDzyn6SraEuADwFrBew7SZIaaTPSc/LcJ+Uc7S5gv+K7UJKkZjkAuI/8J+KcbTlwOjC54L6UJKkRjiN1kMt9Aq5LuwhYo9AelSSp5t5J/hNuHdtlwJoF9qskSbV1LPlPtHVuPyDNfSBJUmscgLf9e2mfGnQHS5JUN5uSZsTLfXJtSnvVYLtZkqT6GKK7Q/0GbQuAzQfY15Ik1caryX9CbWK7cJCdLUlSHaxJd2b4K6O9sP9dLklSfm8i/0m0ye3n/e9ySZLymgrcSf6TaNPbc/rd8ZIk5TA8+ue+wMY5E2mJ/5M7AUmSejE0+uf5wEsD4y4jdYy7ALgauJu0sl4drAdsQSp6Dh/9d5QFwGNG/5QkqdamAQuJuw1+GbBdpVswuFnA+0kL/URt/4GVboEkSQN6DnEnvy+S+hM0zeHEzXx4ZsW5S5I0kHcQd+XfxJP/mLcRsx+uqjpxSZIG8QWKn/SWAttXnXiwYdLJu+i+eIi/d66UJKm2rqT4Se+8yrMux6HE3AV4XNWJS5LUj2FSr/WiLgiIUQffAhYHxHFIpSSp1oaBmQFxrg6IUQfzgVsD4qwZEEOSpNIMA2sExLk3IEZd/CkgRkRRJUlSaYaBRwLirB0Qoy4iJiyaFBBDkqTSDAMPBsTZOiCGJEmqyDBwT0Cc/QNiSJKkigwDNwbEOQzYKCCOJEmqwDBwbUCcGcD7AuJIkqQKDAM/D4p1OPD2oFiSJKlEw6Q5/JcGxTsF+AQOg5MkqdaGSZPfXBYY87XATaRFhpq+PoAkSa00efTPc4DnBcbdAHjPaFsMzCNmfP084Bbgm8CFwMMBMSVJ6qxZpDsBEQvhVNVuBw4uYV/MCcjtoBLykiQpzNiytfOBj+dMZACbAl8m3WWQJEl9WHHd+jNo5i31dwDH5k5CkqQmWbEA+DNwaq5ECno/6Y6AJEnqwfBK/z4NuCFHIgVNB/4tdxKSJDXFygXAIuAIUs/9pnkpMJQ7CUmSmmDlAgDgl8CJVScSYDNg3dxJSJLUBOMVAAAfpHmjAgAekzsBSZKaYFUFAMDrga9WlUiQqbkTkCSpCVZXACwDDiXN7S9JklpkdQUApCLgGOCdo3+XJEktMFEBAGlq21OAvYA7y01HkiRVoZcCYMwlwDbAyTRzmKAkSRrVTwEAsBB4F7ATaQXBpdEJSZKk8vVbAIy5FjgSeALpjsDcsIwkSVLpBi0AxtxKuiPwBOBJwAnA+aQCwccEkiTV1OSgOCPANaPtzBVirwOsCczuIcbXgU2C8pEkSasRVQCMZylw92jrxaISc5EkSSso+ghAkiQ1kAWAJEkdZAEgSVIHWQBIktRBFgCSJHWQBYAkSR1kASBJUgdZAEiS1EEWAJIkdZAFgCRJHWQBIElSB1kASJLUQRYAkiR1kAWAJEkdZAEgSVIHTc6dQEudBBydOwlJUmP9FVgI/Am4HvgDcBWwJOoNLADKseNokyQpykLgMuAbwJeB+4sE8xGAJEnNMAPYBzgLuAv4EvDkQYNZAEiS1DzTgEOAXwMXAo/vN4AFgCRJzTUEHAhcA7yTPh7tWwBIktR804F3Az8BNu/lBRYAkiS1x9OBy4GnTvSDFgCSJLXLhsCPgD1X90MWAJIktc9M4CLgWav6AQsASZLaaQ3g68BW4/1PCwBJktprPeBrpE6Cj2IBIElSu+0InLbyf7QAkCSp/Y4jjRD4GwsASZLabxj4CGnioL/9B0mS1H67AC8a+4cFgCRJ3fGOsb9YAEiS1B1PI90J6H3RgBXMBJ4N7ECab3gtYGpAUhsGxKiLM0hTMUqS1K/JpHPik4H9SUP5Ih0JXNlPMocC3wOWACM1bRPOfdyDOQF5HBSQhyRJU4HXA/cRd668ixU6A67KEHA4cEvgG1sASJLUny2BPxB3vtxudX0ANgK+C3yeHpcWlCRJpbgZ2Bv4c1C8562qAHgKcBXwgqA3kiRJxdwBHBMUa8fxCoCnkZYRfEzQm0iSpBhfB34ZEGeblQuAxwMXk3r2S5Kk+jk3IMbmKxYA04CvED/cQJIkxflpQIxZKxYAbwF2DggqSZLKc2dAjL8VABsBbw8IKEmSyvVQQIzJYwXAG4HpAQElSVIDDJNm+XtV7kQkSVJ1hoG9aNc8/JIkaQLDwJ65k5AkSdUaJmb+fEmS1CDDwBNyJyFJkqo1DKyTOwlJklStycAaAXHeSPFxiafgLIQTGQJ2AfYANiHms5vIcmAecB3wHeCBCt5TklSBiHWFZwfkMTcgj4j+DHMC8jgoII+VHQTcEJBbkbYI+AiwfgnbJ0nqzWwCvtNXtRyw6mMK8EnSOg25+2tMBY4jLRXttNGS1GAWAPX3YeCo3Ems5LGkOyVb5U5EkjQYC4B6Owh4Xe4kVmEd4BxSvwRJUsNYANTXEKljZJ09AzgwdxKSpP5ZANTXruR/5t+Lw3InIEnqnwVAfe2eO4Ee7ZE7AUlS/ywA6mvj3An0aH3S6ABJUoNYANTXjNwJ9Gj5aJMkNYgFgIr6E7A0dxKSpP5YAKioObkTkCT1zwJARX02dwKSpP5ZAKiIi4BLcychSeqfBYAGdTPwmtxJSJIGYwGgQfwG2BO4N3cikqTBWACoH3cAJwBPB27LnIskqYDJuRNQqb5N8Wf0y4B5wB9IywCPFE1KkpSfBUC7XQqcljsJSVL9+AhAkqQOsgCQJKmDLAAkSeogCwBJkjrIAkCSpA6yAJAkqYMsACRJ6iALAEmSOsgCQJKkDrIAkCSpgywAJEnqIAsASZI6yAJAkqQOsgCQJKmDLAAkSeogC4D6Wh4QY1lADElSC1kA1Ne8gBh/DoghSWohC4D6ui4gxrUBMSRJLWQBUF/fARYXeP0dwFVBuUiSWsYCoL4eAD5Z4PX/DYwE5SJJahkLgHo7mXQl369fAR8PzkWS1CIWAPV2D3AgcF8fr7kZeDHFHh9IklrOAqD+rgKeDlzew89eBOzKYHcNJEkdYgHQDHOBZwEvAb7K34cILied7P8HeC7wIvq7WyBJ6qjJuRNQz0aAC0cbwDTSRD9Ls2XUXlsCTwW2BrYd/fcMYCawFrAIWAjMJxVcN5CGbV4H/AJYUH3KYaYCLyM9Rtoe2BCYVMH7LiPtz/mkfXsjcD1p314B/LGCHMr0DOAQYDdgY9IxdDvwXeALo39viicAhwPPBzYjHR93AJcCXwJ+ky819WskoM0OyGNuQB5PDchjTkAeBwXkoepMJ305fwa4lWKf/RLgp8C7gZ0r3IYIewM3EfOdEN1uBM4mFSbTytoBJdgY+Car37ZHgNOAKZly7NV04KOkY3xV27IcOBdYJ1OOXTGbmN+rkCAWAI9uFgDN8Gzg08BfKe/E9TvgRNKVdJ29jnQ3qcqT+qDtPuAsYJdS9kSc7UhXxr1u1w+BNbJkOrHZwC/pfVtuBDbPkWhHWACM0ywA1ItnAz+g2pPWI6Qr2E0r2L5+/TPNOfmv3L5H6v9SN+sy2Hfal3MkO4FJpP3c77b8lvToTPEsAMZpFgBanafR31VMGW0R8H5Sf4I6+CfgNvLuk4j2Q1Kfhbr4CINvywEZ8l2d1zD4tpycId8usAAYp1kAaDyzgY+ROprlPlGNtTuAg8vc6B4dRf59EdUWA6eT/6pzvdFcBt2OXob8VulGBt+W+aS+A4oVUgA4DFBt9zTSzIjHUK9hr5uQbveeRxpZkMtLMr53tCnAW0if95My5rEfxTr07Uo6PupgR2CrAq+fCbwgKBcFq9MXohRpCHgzqUf+FplzWZ2XkYYO5jph5TxRlmUb0lX0UZne/8kFXz9EOvHWQdFtgXYeY60wmXQrYKhgnFcBDxWMMavg66Uxk0i9xI/OnUiPtiEVKi8njQuvUt1HJwxqOmkxra1JozBGKnzviH36mIAYETYIiFGXbdFKJpNO3EWfmX0gIBcpwjTg86STaZOsCXyDVEyfW+H71n3seVFvIZ2AXkMav16FiAnW6vK5ROThhHM1NYxTx6o9pgAX0LyT/5ippFnhXpE7kZZ5JfA5fOQpPcowaeYvqemGgE+QxrQ32TBwDvDC3Im0zCGkoXmSRg0DV+ZOQgpwKvAvuZMIMoW06JOdp2IdC7w1dxJSXQyTZkSTmmx/0rPeNplJGiJo59hY7wX2zJ2EVAfDpBm05k30g1JNbUpaDrnoSJY6egLpsYbiTCL1s9godyJSbsOkOcA/kzsRaQBDwGdJ86631SuwU2C0jYAP505Cym2sV+wHKT6OX6ra4cDzcidRgQ+Sd7bANno5sG/uJKScxsZnzgNOGW1SE6wF/HfJ7zEfuAT4CXAdcBdp6eBppGfzW5FmSnsusDPlPYbYCPh/wJtKil/UzqT9UsQk0me6KbAtsDuwB+Uuj3smqQ/UohLfQ2qEqeRfKa1oczGg7vgPyjuOLicNG+tnEZMtgHeT5tUoI6dFlLOUcERuEYuBjWdN0siOq4PyHK8dV0LeXw7Iqy6zWI7NoliknV151u0XvhjQYtKzxnuqyV8a2Ezg+BLi3kRayOUZpNn4Hu7jtbcAJwGbk1aki551birtG+kwkQWkDp47kb6b7izhPd5K2rdS56w8M9YtpOdiRW/nSWU6BlgnOOYnSePuLy4Y50HSVdMziJ9k6yjaO3f/6owAXwG2G/0z0makmQKlzhlvaswrSc/e7qo4F6kXQ8DrAuONkJ6tH01/V/wTuYq0FPFlgTGn057JjgYxn3Qn4G3BcY8Njic1wqrmxr4aeArVr0wmTWQ34PFBsUZIxcQZQfFW9gBpSt/IIuCIwFhNdRqxRcAupLsLUqesbnGMu4F9gEOBm6tJR5rQkYGx3kO69V+mh4EXEfc4YHtSr/uuOw34WGA8Cyt1Ti+rY51LWq/8UOA7pImDpByGgAODYl0CnBwUayIPAAeTOtpGeElQnKZ7I/CboFgvDoojNUav6zQvJRUC55KG5uwG7EAa+rQWaVx0UfsCMwLiqL12ADYIiLOY9Nx3WUCsXv2aNKFPxGI0XZj8qBeLgNcCv6D4Ur/bAptQzkgDqZZ6LQBWtIDUNyC6f8BcYMvgmGqXqBPf2aSJfar2HlJP/qIjGHYlFeILCmfUfFeSxt0fGhDruaR1AqROKFo1S1XaLSDGMuB9AXEG8SBwVkCcKaQiQMmpQXEiji+pMSwA1CRPDIgxB7g9IM6gPkUafVDUtgEx2uK3wK8C4rhP1SkWAGqKYdLyuEV9LSBGEbcS03Ftm4AYbXJ+QAwLAHWKBYCaYjPgnwLi/CggRlEROWwdEKNNIvbpY0jTTEudYAGgplg3IMZCUmfT3H4bECNif7TJNcQ8WnG/qjMsANQUawbEuJmYk0RREUXIrIAYbbIQ+HNAHO8AqDMsANQUEV/MdVnk6oGAGJ6o/pH7VeqDBYCaIuL5f+RiP0XcnzuBlopYgnlKQAypESwA1BRDuRMIdDfFZyF0tc5/FHH17uRK6gwLAKl6S4ErCsb4WUQiLTJM6sVf1PyAGFIjWABIeXyl4Ou/GpJFe2xBzGMiCwB1hgWAlMfZDL7wzHeBnwTm0gbPCYixkPR4RuoECwApj4dIC9j0u0TwvaSVDPVo+wTEuIF6DBOVKmEBIOVzGXAEvY9OuBN4IXBLaRk101rAAQFxrg+IITWGBYCU11eAZ7L6qWyXA58DdgGuqiKphjkGmB4QJ2JBIakxJhd47SxSx5tZwLSAXCJ+gaUmuhrYE9iJdCW7NbAO6Xn0r4FvkBYR0j9aG3hTUKw6rBMhVaafAmAasD9wIPBcYNMyEpI67DfErBTYJe8B1g+I8xfc9+qYXgqAWcDxwBuA9cpNR5J6tj/wr0Gx5lB8ciapUSYqAF4OnAlsXEEuktSrHYFziJsh8vNBcaTGWFUBMAX4EKlzjSTVyfbAd0jP/yPcMxpP6pTxCoDpwHnAvhXnIkkT2Qf4IjA7MOYXiFlISGqUlYcBTgbOxZO/pHqZCZwBXEzsyX/xaFypc1a+A/Bu4EU5EpGkcawBHAWcSDl9kT4L/LGEuFLtrVgAPAd4a65EJGnUBsDuwH7Ay0gjkcqwCDi1pNhS7Y0VAJOAs3BmQEn9u4Diz9CnkE70mwHrFs6oN6cDN1f0XlLtjBUAryD1rJWkfu2RO4EB3A6cljsJKaexK/43ZM1CkqqznNSvYGHuRKSchoFtgV1zJyJJFXkvaeY/qdOGiVlHW5Ka4FLgXbmTkOpgGNgtdxKSVIGbgINxzn8JSAXAdrmTkKSS3QW8gLTEsiRSAeBCP5La7C5gb+DWzHlItTIZWDMgzm8oflttB2BaQC5SLlNJk9hsGBBrCelqdR4wEhCvq24GXki6/S9pBZOZeEngXuwJ/KVgjLnAlgG5SFXbE3g96USzRnDsPwEXAu/DSWv69RPgpaTV/iStxJn/pMHNJK2c+QPgJcSf/AEeAxwLXEuaD3+ohPdomxHScuZ74slfWqWIq3+pi2YClwA7V/R+U0nz1m9Kutug8f0ReB3w7dyJSHXnHQBpMJ+hupP/io4jzWKnR1tCuurfHk/+Uk8sAKT+7UFapS6X04HZGd+/TpYCnwd2JE1p/mDedKTmsACQ+ndC5vefDRySOYfc5gNnk6YyPwK4Pm86UvNYAEj9mUKaUCa3/XInkMHDwLeAw4CNgGNIo4ckDcBOgFJ/NgZm5E4C2Cp3AiVbRpq45wbgCuCHwOXAoow5Sa1iASD1Z2buBEatnzuBFbya4kvrLiU9v39g9M9b8WQvlcoCQOrPvNwJjKrTfABfp/hEYJIqZh8AqT/3ArfnTkKSirIAkPozAlyQOwlJKsoCQOrf6cBDuZOQpCIsAKT+3QW8JXcSklSEBYA0mLOA9+BSvZIaygJAGtxJwMHYKVBSAzkMUCrmPOCbwIHA/sDjgQ0neM0U0qp+kpSNBYBU3CPAl0dbL7bEKWwlZeYjAEmSOsgCQJKkDrIAkCSpgywAJEnqIAsASZI6yAJAkqQOsgCQJKmDLADUFMsCYkwKiBEh4vdueUAMlSPis6nLd7PHaovV5SCTJrIwIMaMgBgRZgXEeDAghsrRpmN1ZkAMj9WasgBQU0R8iUw0RW9VNgiI4ZdqfbXpWI3IY0FADJXAAkBNEfGluhkwPSBOUdsExLAAqK+IzybiGIkQkcf8gBgqgQWAmuKPATGGgacFxCnqmQExIvaHynFHQIxnAEMBcYqYCjwlII7Hak1ZAKgpHgDuDoizd0CMIiYDewbEuT4ghspxXUCMDYAnBcQpYndgjYA4Hqs1ZQGgJon4IjmcvFdWewHrB8SJOMmoHFEnvMOC4uR8/+XATQFxVAILADXJ1QExNgf2DYgzqOOC4lwTFEfx5o22ol5NvtEA6wGvCIhzPWm5bNWQBYCa5JKgOCeR5y7ALsB+AXHuBn4fEEfl+VFAjPWBYwPiDOLNxBQfEftBJbEAUJNcQsykIk8HXhUQpx/DwIeJKTwuAUYC4qg8USe+k4CNg2L1amvghKBYPwyKoxJYAKhJ7gN+HRTrA8AWQbF6cSKpZ3eEOUFxVJ7vB8WZBXyG6r6rpwKfA6YFxFpK3F07lcACQE3zpaA4awPnETPT2UT2Af4zKNYi4GtBsVSem4HLg2LtDbwnKNZEPky6Qxbhe6SiXTVlAaCm+SIx6wIA7AxcSLkdrXYnFRqTg+J9C7g/KJbKdU5grH8nPZcv03uBowPjRW6/SjIS0GYH5DE3II+nBuQxJyCPgwLy0KpdTMxxO9Z+QTnPWQ8GHg7O9cDgHOvy+99G6xL/+Z9O/KJW04BPBuf5F+ox62ZbzSbmc6rNF4AFgHq1J7FfViOkYVsHBOU3E/hoCTleS/xdu7r8/rfVWcQfB5cAWwbltz1wZQk5VvXIoqssAMZpFgDd8TPiv7RGgItIjwYGMRV4LXBnSbkdOWBeq1OX3/+22hxYTPyx8BBwCmm8/iA2Bj5YUm4LCuSl3lgAjNMsALpjX+K/uMbactJV1lHAJhPkMYnUaeo0yjvxj5BmU4vqR7Ciuvz+t9mnKe+4WAB8ltTRdKJpe2eSHiF9iTQ5T1k5nd73HlK/QgqAMr5QpCpcPNrKmNVvCNhjtAHcQpp694+kld6mkoZnbU26hTqrhBxWdgJpWJWa5x3AyyjnOJlBujN0JOlq/vfADaSOovOBtUhX41sD21FOEbmiP5PuTKgh6nIF4B0A9etxwELKu5KpS7swaoeNoy6//233BvIfR1W0w6N2mFYr5A6AwwDVZLfR/s5G84mblU35fBS4IncSJZtDGqarhrAAUNOdRrtnxjsWuDV3EipsKenOYFvncJhHml57JHci6p0FgJpuOfBK4K7ciZTgo3hF1Sa3Aa/LnUQJlgNHAH/KnYj6YwGgNrib1MnqodyJBPoR8KbcSSjcebTvsdW/0e67cK1lAaC2uJw0xGlx7kQCXAO8lDTvv9rnJOAjuZMI8l/AmbmT0GAsANQm3wdeQ7OHy11HWvzlgdyJqFQnAF/JnURBnyANcVRDWQCobb5Aunp+OHciA7gCeA5pLLXabRlwGPDx3IkM6EPAMdjpr9EsANRGF5Guopu0FOm3gOcB91T8vg8WfP1y0mx06t8y0iiPd9GcE+lS4Hj+Pq+BGswCQG31E2An4Ke5E5nAMuBk4EWkSY2qdkfB188DlkQk0mFjn3/dC9a7STNvfjh3IophAaA2u4N0VX066URbN7cDzyddAS7PlMOPCr7+ByFZ6JukRaguy53IKlwM7Ii9/VunLlOBOhWwyjR2NyD3VKkjpJEKZ5IWZ8ntmRTblhdWn3KrDZHm9Z9H/uN0hLTAVRmrUKoYVwMcp1kAaHWGgVcTc6wN0pYB5wNPLHtD+3QBg23P93Mk2xHrAGeQ+lfkOFYfAP4TWLPsDdVALADGaRYA6sVk0uyB11DNl+li4POklQPraB3gRvrbpruAx+ZItmPWJ62udz/VHKvzgHeSVhFUfVkAjNMsANSv7YFTKeeW6++BE4ENKtuawT2WNAyxl+26gfrdxWi7acABpLkDFhF7nD5CGjlzEGmpa9WfBcA4zQJAg5oE7Aq8DfguaTheP5/5EtKJ8dOkedE3qTb9ENNJ238v42/jX0gdFr0tnNcsYH/g/cCVpDkv+jlWF5BmzjyV1IdjRrXpK0BIATA0+pei1iF9ORQxF9iyYIxdgF8VjDEH2KtgjIOBrxaMofzWBbYhHZdrkm6LziJdgS0YbfNIt89voh3TEEN6RPJsUq/v9UjD0/4A/Jj2bGObDAObkY7VjUnH6tjx+gB/P1bvIBWpt+dJU4FmE7Cy5OSARKS2ug/42WjrkqXAJaNN9bectGT0rXnTUNM4D4AkSR1kASBJUgdZAEiS1EEWAJIkdZAFgCRJHWQBIElSB1kASJLUQRYAkiR1kAWAJEkdZAEgSVIHWQBIktRBFgCSJHWQBYAkSR1kASBJUgdZAEiS1EEWAJIkdZAFgCRJHWQBIElSB1kASJLUQRYAkiR1kAWAJEkdZAEgSVIHWQBIktRBFgCSJHWQBYAkSR1kASBJUgdZAEiS1EEWAJIkdZAFgCRJHWQBIElSB1kASJLUQRYAkiR10GRgBBgqGOdAYGHBGDMKvl6SJPVoMvAwsEbBOJ8JyEWSJFVkGLg/dxKSJKlaw8BNuZOQJEnVGgauyp2EJEmq1jDww9xJSJKkag0Dc4D7ciciSZKqMwwsBs7JnYgkSarO2ERA7wcW5UxEkiRVZ6wAuAN4X85EJElSdVacCvgU4He5EpEkSdVZsQB4GDgY+GumXCRJUkVWXgzoWtK8/g9lyEWSJFVkvNUALwX2ximCJUlqrVUtB/xTYGfg5xXmIkmSKrKqAgDgNuDZwL8C86pJR5IkVWF1BQDAcuBjwBakQuAXpWckSZJKN7nHn3uYVAh8DNgIeC6wA6kwWAuYFpDLbsD0gDiSJLXZUESQXguAFf0ZODfizVcyF9iyhLiSJLXJegExHp7oEYAkSaqXiIvlBRYAkiQ1y34BMe6yAJAkqTnWBg4NiHObBYAkSc3xLmDdgDhXWwBIktQMRwDHB8W6wgJAkqR6mwS8HfgfYoYALgEuHWQYoCRJKt9apA5//06aeyfKZcB8C4BynAQcnTsJSVIjTQE2BB4/+vdo/x8GmwhIE9txtEmSVCf3AF+DidcCkCRJ7fFJYBFYAEiS1BXzgY+M/cMCQJKkbngX8Kexf1gASJLUfr9nhat/sACQJKntlpBGpi1Z8T9aAEiS1G7HAz9b+T9aAEiS1F4fBD4+3v+wAJAkqZ3OA968qv9pASBJUvt8GHgFsGxVP2ABIElSe4wAJ5Oe+y9f3Q86FbAkSe0wDzgK+GYvP+wdAEmSmm0ZqaPfdvR48gfvAEiS1FTLgfOBdwPX9PtiCwBJkpplCXAGaWGfuYMGsQCQJKlZFgBvKxrEAqAcHwB+XjDG0cBeBWN8EbiwYIxefAaYUTDG/yV1gmOciAAABfhJREFUYCnTjsBJBWPcTMAvXg/q8vkfCBxeMMb3gU8UjNGLU4EtC8YY6FZqnzYkDdEqYiHw6oBcJvJi4LCCMfz8Hy3i82+duaThC0XaUwPymBOQx8EBeZwdkEcVJyqA+wNyLfqL24u9AvK8soI8oT6f/4kBeZwdkEcvrgzItWjR1YstA/K8v4I8IR1Dfv6xavP5OwpAkqQOsgCQJKmDLAAkSeogCwBJkjrIAkCSpA6yAJAkqYMsACRJ6iALAEmSOsgCQJKkDrIAkCSpgywAJEnqIAsASZI6yAJAkqQOsgCQJKmDLAAkSeqgybkTWMHygBgR2zMlIMaygBgR++MlwBYBcSayRkCMU4D5AXFWZ5OAGI+jmvXNdw+IEXEcRsTYnWr22eMCYpwAHBQQZ3VmBcRYg2r26U4BMfz8Hy3i8484P9SqAFgYEGOjgBgbB8R4MCBGxP7YdbQ1wSG5E+jResDRuZPoUV2OwyeOtibYL3cCPZpGc45DP/94IRdLdXoEEPFl9eSCr1+LmCpyQUCMeQEx1G0Rx5DHoVQ/d0cEqVMBcFdAjJcUfP1+wNSAPCK25fqAGOq2iGPI41Cqn5DfyzoVADcExNgJ2HfA104C/j0gh4eB2wPiXA6MBMRRNz1AzJfEdaOxJNXHzyOC1KkA+ENQnDOBdQZ43YnADgHvfz0xHTTuBn4bEEfd9H3iOgH+MCCOpDhzIoLUqQC4LCjOVsDXgLX7eM0RwLuD3v/HQXEAvhAYS93yxcBYHodSffwCmJs7iTJcT7rtHdGuA549wfutDXyQdMUe9b4HFtkBK1mf1KEwKjdbN9otxAxnHTMFuK0G22Wz2dIFa4hJUYGCbAbsFhRrPeA1pCJgDf5+W35j4GnA8cAngecBQ0HvuQA4DlgcFO8hYDbwrKB46oa3AlcExlsOPALsHxhTUv9uAI4laB6AqBNflB1p9nPvc4Ajg2POAq4lZn4Ctd+vgKcT8/x/RZOAXwI7B8eV1Lt9gO9GBatTHwCAa0jPN5rqUyXEnA+8mqCKT622kFSARp/8GY15JOmulKTqfZzAkz/U7xEAwL00Z1a4Ff0U+I+SYs8FlgDPLym+mm856QR9SYnvcQ9wM/BS6nf3UGqznwKHA0sjg9axALgeeDEx0/pW6bWU2zPzJ8Ca2B9A/2g58HrgsxW81+9IRfo/YxEgVeEq0vw2EbPlNsLuxPbML7tdWM5uGNdbSFVg7m221aMtAA6meoeQHjnk3n6brc3tYmAmHfRp8u/8XtqDxKwf0I89SHcbcm+7LW+7EtiOfHYgXZ3k3g82W9vaQ6TRPJ29yzaTNOQh9wcxUXtlWTtgAtOBt5Oey+beB7Zq2y2kR051eIQ3CTgG5wmw2SLaEuBzVLOMe+3tRL1vM36ivE3v2QxS569vU+99ZSvW7ge+SuofEznJT5QppM6B5wN/If/+stma0paR7qSdRMV3k5twe2E/0jP2ybkTWcl3gBeRKra6mApsD2xNWg9hVt50VNADpDs815E6x5YxvK8Mk4BtgW1Is1n2My231AWPAH8lPcr9Halo1iq8knSizV2pjbUfk668JUlSyQ4gdYzIffL/Bun5uyRJqsiupA5QOU78y4H/oh4dryRJ6pzZwJep9uR/J2kOZkmSlNk+lD9McDFwBh2diEGSpLoaBg4C/kDsiX8RaSzmE6rbFEmS1K9h4Lmk2QPvZ7CT/jLg56Q51derNHtJkirWhHkA+jWJNIHQHqQx8dsCm5DGxK8FPEyaP/0+0iOEG4DLgUtJxYMkSZIkSZIkSZIkSZIkSZIkSZIkSZIkSZIkSZIkSZIkSZIkSZIkSZIkSZIkSZIkSZIkSZIkSZIkSZIkSZIkSZIkSZIkSZIkSZIkSZIkSZIkSZIkSZIkSZIkSZIkSZIkSZIkSZIkSZIkSZIkSZIkSZIkSZIkSZIkSZIkSZIkSZIkSZIkSZIkSZIkSZIkSZIkSZIkSZIkSZIkSZIkSZIkSZIkSZIkSZIkSZIkSZIkSZIkSZIkSZIkSZIkSZIkSZIkSZKkHv0vENhXsC64MN4AAAAASUVORK5CYII=;" vertex="1" parent="1">
          <mxGeometry x="470" y="682" width="40" height="40" as="geometry" />
        </mxCell>
        <mxCell id="W4ZQf7grJeuH_FmLfWgL-30" value="" style="shape=image;verticalLabelPosition=bottom;labelBackgroundColor=default;verticalAlign=top;aspect=fixed;imageAspect=0;image=data:image/png,iVBORw0KGgoAAAANSUhEUgAAAgAAAAIACAYAAAD0eNT6AAAABHNCSVQICAgIfAhkiAAAAAlwSFlzAAAOxAAADsQBlSsOGwAAABl0RVh0U29mdHdhcmUAd3d3Lmlua3NjYXBlLm9yZ5vuPBoAACAASURBVHic7d15mB1lmbDxuzvbhJBA2AVBQARkUUTEBRFFRIZF3EAWwdEPEQY/xHHBUflGRnGAURQXFP3UUVxQQVAUl7iAuKAgiqisYRPQsIkhAbL2/PF2a4id9Dmnnqq3lvt3Xe+VBPo856k61aeeqnoXkCRJkiRJkiRJkiRJkiRJkiRJkiRJkiRJkiRJkiRJkiRJkiRJkiRJkiRJkiRJkiRJkiRJkiRJkiRJkiRJkiRJkiRJkiRJkiRJkiRJkiRJkiRJkiRJkiRJkiRJkiRJkiRJkiRJkiRJkiRJkiRJkiRJkiRJkiRJkiRJkiRJkiRJkiRJkiRJkiRJkiRJkiRJkiRJkiRJkiRJkiRJkiRJkiRJkiRJkiRJkiRJkiRJkiRJkiRJkiRJkiRJkiRJkiRJkqQYQ4GxpgFPB3YHtgO2ATYCZgBrB75PUQ8BC4F7gRuB64FfAJeO/jdJkjSBqcCBwPmkk+pIg9sy4JfA8cD6kTtJkqS2mAG8AbiD/CfuMtpi4HOkuxiSJHXeEPAvwDzyn6SraEuADwFrBew7SZIaaTPSc/LcJ+Uc7S5gv+K7UJKkZjkAuI/8J+KcbTlwOjC54L6UJKkRjiN1kMt9Aq5LuwhYo9AelSSp5t5J/hNuHdtlwJoF9qskSbV1LPlPtHVuPyDNfSBJUmscgLf9e2mfGnQHS5JUN5uSZsTLfXJtSnvVYLtZkqT6GKK7Q/0GbQuAzQfY15Ik1caryX9CbWK7cJCdLUlSHaxJd2b4K6O9sP9dLklSfm8i/0m0ye3n/e9ySZLymgrcSf6TaNPbc/rd8ZIk5TA8+ue+wMY5E2mJ/5M7AUmSejE0+uf5wEsD4y4jdYy7ALgauJu0sl4drAdsQSp6Dh/9d5QFwGNG/5QkqdamAQuJuw1+GbBdpVswuFnA+0kL/URt/4GVboEkSQN6DnEnvy+S+hM0zeHEzXx4ZsW5S5I0kHcQd+XfxJP/mLcRsx+uqjpxSZIG8QWKn/SWAttXnXiwYdLJu+i+eIi/d66UJKm2rqT4Se+8yrMux6HE3AV4XNWJS5LUj2FSr/WiLgiIUQffAhYHxHFIpSSp1oaBmQFxrg6IUQfzgVsD4qwZEEOSpNIMA2sExLk3IEZd/CkgRkRRJUlSaYaBRwLirB0Qoy4iJiyaFBBDkqTSDAMPBsTZOiCGJEmqyDBwT0Cc/QNiSJKkigwDNwbEOQzYKCCOJEmqwDBwbUCcGcD7AuJIkqQKDAM/D4p1OPD2oFiSJKlEw6Q5/JcGxTsF+AQOg5MkqdaGSZPfXBYY87XATaRFhpq+PoAkSa00efTPc4DnBcbdAHjPaFsMzCNmfP084Bbgm8CFwMMBMSVJ6qxZpDsBEQvhVNVuBw4uYV/MCcjtoBLykiQpzNiytfOBj+dMZACbAl8m3WWQJEl9WHHd+jNo5i31dwDH5k5CkqQmWbEA+DNwaq5ECno/6Y6AJEnqwfBK/z4NuCFHIgVNB/4tdxKSJDXFygXAIuAIUs/9pnkpMJQ7CUmSmmDlAgDgl8CJVScSYDNg3dxJSJLUBOMVAAAfpHmjAgAekzsBSZKaYFUFAMDrga9WlUiQqbkTkCSpCVZXACwDDiXN7S9JklpkdQUApCLgGOCdo3+XJEktMFEBAGlq21OAvYA7y01HkiRVoZcCYMwlwDbAyTRzmKAkSRrVTwEAsBB4F7ATaQXBpdEJSZKk8vVbAIy5FjgSeALpjsDcsIwkSVLpBi0AxtxKuiPwBOBJwAnA+aQCwccEkiTV1OSgOCPANaPtzBVirwOsCczuIcbXgU2C8pEkSasRVQCMZylw92jrxaISc5EkSSso+ghAkiQ1kAWAJEkdZAEgSVIHWQBIktRBFgCSJHWQBYAkSR1kASBJUgdZAEiS1EEWAJIkdZAFgCRJHWQBIElSB1kASJLUQRYAkiR1kAWAJEkdZAEgSVIHTc6dQEudBBydOwlJUmP9FVgI/Am4HvgDcBWwJOoNLADKseNokyQpykLgMuAbwJeB+4sE8xGAJEnNMAPYBzgLuAv4EvDkQYNZAEiS1DzTgEOAXwMXAo/vN4AFgCRJzTUEHAhcA7yTPh7tWwBIktR804F3Az8BNu/lBRYAkiS1x9OBy4GnTvSDFgCSJLXLhsCPgD1X90MWAJIktc9M4CLgWav6AQsASZLaaQ3g68BW4/1PCwBJktprPeBrpE6Cj2IBIElSu+0InLbyf7QAkCSp/Y4jjRD4GwsASZLabxj4CGnioL/9B0mS1H67AC8a+4cFgCRJ3fGOsb9YAEiS1B1PI90J6H3RgBXMBJ4N7ECab3gtYGpAUhsGxKiLM0hTMUqS1K/JpHPik4H9SUP5Ih0JXNlPMocC3wOWACM1bRPOfdyDOQF5HBSQhyRJU4HXA/cRd668ixU6A67KEHA4cEvgG1sASJLUny2BPxB3vtxudX0ANgK+C3yeHpcWlCRJpbgZ2Bv4c1C8562qAHgKcBXwgqA3kiRJxdwBHBMUa8fxCoCnkZYRfEzQm0iSpBhfB34ZEGeblQuAxwMXk3r2S5Kk+jk3IMbmKxYA04CvED/cQJIkxflpQIxZKxYAbwF2DggqSZLKc2dAjL8VABsBbw8IKEmSyvVQQIzJYwXAG4HpAQElSVIDDJNm+XtV7kQkSVJ1hoG9aNc8/JIkaQLDwJ65k5AkSdUaJmb+fEmS1CDDwBNyJyFJkqo1DKyTOwlJklStycAaAXHeSPFxiafgLIQTGQJ2AfYANiHms5vIcmAecB3wHeCBCt5TklSBiHWFZwfkMTcgj4j+DHMC8jgoII+VHQTcEJBbkbYI+AiwfgnbJ0nqzWwCvtNXtRyw6mMK8EnSOg25+2tMBY4jLRXttNGS1GAWAPX3YeCo3Ems5LGkOyVb5U5EkjQYC4B6Owh4Xe4kVmEd4BxSvwRJUsNYANTXEKljZJ09AzgwdxKSpP5ZANTXruR/5t+Lw3InIEnqnwVAfe2eO4Ee7ZE7AUlS/ywA6mvj3An0aH3S6ABJUoNYANTXjNwJ9Gj5aJMkNYgFgIr6E7A0dxKSpP5YAKioObkTkCT1zwJARX02dwKSpP5ZAKiIi4BLcychSeqfBYAGdTPwmtxJSJIGYwGgQfwG2BO4N3cikqTBWACoH3cAJwBPB27LnIskqYDJuRNQqb5N8Wf0y4B5wB9IywCPFE1KkpSfBUC7XQqcljsJSVL9+AhAkqQOsgCQJKmDLAAkSeogCwBJkjrIAkCSpA6yAJAkqYMsACRJ6iALAEmSOsgCQJKkDrIAkCSpgywAJEnqIAsASZI6yAJAkqQOsgCQJKmDLAAkSeogC4D6Wh4QY1lADElSC1kA1Ne8gBh/DoghSWohC4D6ui4gxrUBMSRJLWQBUF/fARYXeP0dwFVBuUiSWsYCoL4eAD5Z4PX/DYwE5SJJahkLgHo7mXQl369fAR8PzkWS1CIWAPV2D3AgcF8fr7kZeDHFHh9IklrOAqD+rgKeDlzew89eBOzKYHcNJEkdYgHQDHOBZwEvAb7K34cILied7P8HeC7wIvq7WyBJ6qjJuRNQz0aAC0cbwDTSRD9Ls2XUXlsCTwW2BrYd/fcMYCawFrAIWAjMJxVcN5CGbV4H/AJYUH3KYaYCLyM9Rtoe2BCYVMH7LiPtz/mkfXsjcD1p314B/LGCHMr0DOAQYDdgY9IxdDvwXeALo39viicAhwPPBzYjHR93AJcCXwJ+ky819WskoM0OyGNuQB5PDchjTkAeBwXkoepMJ305fwa4lWKf/RLgp8C7gZ0r3IYIewM3EfOdEN1uBM4mFSbTytoBJdgY+Car37ZHgNOAKZly7NV04KOkY3xV27IcOBdYJ1OOXTGbmN+rkCAWAI9uFgDN8Gzg08BfKe/E9TvgRNKVdJ29jnQ3qcqT+qDtPuAsYJdS9kSc7UhXxr1u1w+BNbJkOrHZwC/pfVtuBDbPkWhHWACM0ywA1ItnAz+g2pPWI6Qr2E0r2L5+/TPNOfmv3L5H6v9SN+sy2Hfal3MkO4FJpP3c77b8lvToTPEsAMZpFgBanafR31VMGW0R8H5Sf4I6+CfgNvLuk4j2Q1Kfhbr4CINvywEZ8l2d1zD4tpycId8usAAYp1kAaDyzgY+ROprlPlGNtTuAg8vc6B4dRf59EdUWA6eT/6pzvdFcBt2OXob8VulGBt+W+aS+A4oVUgA4DFBt9zTSzIjHUK9hr5uQbveeRxpZkMtLMr53tCnAW0if95My5rEfxTr07Uo6PupgR2CrAq+fCbwgKBcFq9MXohRpCHgzqUf+FplzWZ2XkYYO5jph5TxRlmUb0lX0UZne/8kFXz9EOvHWQdFtgXYeY60wmXQrYKhgnFcBDxWMMavg66Uxk0i9xI/OnUiPtiEVKi8njQuvUt1HJwxqOmkxra1JozBGKnzviH36mIAYETYIiFGXbdFKJpNO3EWfmX0gIBcpwjTg86STaZOsCXyDVEyfW+H71n3seVFvIZ2AXkMav16FiAnW6vK5ROThhHM1NYxTx6o9pgAX0LyT/5ippFnhXpE7kZZ5JfA5fOQpPcowaeYvqemGgE+QxrQ32TBwDvDC3Im0zCGkoXmSRg0DV+ZOQgpwKvAvuZMIMoW06JOdp2IdC7w1dxJSXQyTZkSTmmx/0rPeNplJGiJo59hY7wX2zJ2EVAfDpBm05k30g1JNbUpaDrnoSJY6egLpsYbiTCL1s9godyJSbsOkOcA/kzsRaQBDwGdJ86631SuwU2C0jYAP505Cym2sV+wHKT6OX6ra4cDzcidRgQ+Sd7bANno5sG/uJKScxsZnzgNOGW1SE6wF/HfJ7zEfuAT4CXAdcBdp6eBppGfzW5FmSnsusDPlPYbYCPh/wJtKil/UzqT9UsQk0me6KbAtsDuwB+Uuj3smqQ/UohLfQ2qEqeRfKa1oczGg7vgPyjuOLicNG+tnEZMtgHeT5tUoI6dFlLOUcERuEYuBjWdN0siOq4PyHK8dV0LeXw7Iqy6zWI7NoliknV151u0XvhjQYtKzxnuqyV8a2Ezg+BLi3kRayOUZpNn4Hu7jtbcAJwGbk1aki551birtG+kwkQWkDp47kb6b7izhPd5K2rdS56w8M9YtpOdiRW/nSWU6BlgnOOYnSePuLy4Y50HSVdMziJ9k6yjaO3f/6owAXwG2G/0z0makmQKlzhlvaswrSc/e7qo4F6kXQ8DrAuONkJ6tH01/V/wTuYq0FPFlgTGn057JjgYxn3Qn4G3BcY8Njic1wqrmxr4aeArVr0wmTWQ34PFBsUZIxcQZQfFW9gBpSt/IIuCIwFhNdRqxRcAupLsLUqesbnGMu4F9gEOBm6tJR5rQkYGx3kO69V+mh4EXEfc4YHtSr/uuOw34WGA8Cyt1Ti+rY51LWq/8UOA7pImDpByGgAODYl0CnBwUayIPAAeTOtpGeElQnKZ7I/CboFgvDoojNUav6zQvJRUC55KG5uwG7EAa+rQWaVx0UfsCMwLiqL12ADYIiLOY9Nx3WUCsXv2aNKFPxGI0XZj8qBeLgNcCv6D4Ur/bAptQzkgDqZZ6LQBWtIDUNyC6f8BcYMvgmGqXqBPf2aSJfar2HlJP/qIjGHYlFeILCmfUfFeSxt0fGhDruaR1AqROKFo1S1XaLSDGMuB9AXEG8SBwVkCcKaQiQMmpQXEiji+pMSwA1CRPDIgxB7g9IM6gPkUafVDUtgEx2uK3wK8C4rhP1SkWAGqKYdLyuEV9LSBGEbcS03Ftm4AYbXJ+QAwLAHWKBYCaYjPgnwLi/CggRlEROWwdEKNNIvbpY0jTTEudYAGgplg3IMZCUmfT3H4bECNif7TJNcQ8WnG/qjMsANQUawbEuJmYk0RREUXIrIAYbbIQ+HNAHO8AqDMsANQUEV/MdVnk6oGAGJ6o/pH7VeqDBYCaIuL5f+RiP0XcnzuBlopYgnlKQAypESwA1BRDuRMIdDfFZyF0tc5/FHH17uRK6gwLAKl6S4ErCsb4WUQiLTJM6sVf1PyAGFIjWABIeXyl4Ou/GpJFe2xBzGMiCwB1hgWAlMfZDL7wzHeBnwTm0gbPCYixkPR4RuoECwApj4dIC9j0u0TwvaSVDPVo+wTEuIF6DBOVKmEBIOVzGXAEvY9OuBN4IXBLaRk101rAAQFxrg+IITWGBYCU11eAZ7L6qWyXA58DdgGuqiKphjkGmB4QJ2JBIakxJhd47SxSx5tZwLSAXCJ+gaUmuhrYE9iJdCW7NbAO6Xn0r4FvkBYR0j9aG3hTUKw6rBMhVaafAmAasD9wIPBcYNMyEpI67DfErBTYJe8B1g+I8xfc9+qYXgqAWcDxwBuA9cpNR5J6tj/wr0Gx5lB8ciapUSYqAF4OnAlsXEEuktSrHYFziJsh8vNBcaTGWFUBMAX4EKlzjSTVyfbAd0jP/yPcMxpP6pTxCoDpwHnAvhXnIkkT2Qf4IjA7MOYXiFlISGqUlYcBTgbOxZO/pHqZCZwBXEzsyX/xaFypc1a+A/Bu4EU5EpGkcawBHAWcSDl9kT4L/LGEuFLtrVgAPAd4a65EJGnUBsDuwH7Ay0gjkcqwCDi1pNhS7Y0VAJOAs3BmQEn9u4Diz9CnkE70mwHrFs6oN6cDN1f0XlLtjBUAryD1rJWkfu2RO4EB3A6cljsJKaexK/43ZM1CkqqznNSvYGHuRKSchoFtgV1zJyJJFXkvaeY/qdOGiVlHW5Ka4FLgXbmTkOpgGNgtdxKSVIGbgINxzn8JSAXAdrmTkKSS3QW8gLTEsiRSAeBCP5La7C5gb+DWzHlItTIZWDMgzm8oflttB2BaQC5SLlNJk9hsGBBrCelqdR4wEhCvq24GXki6/S9pBZOZeEngXuwJ/KVgjLnAlgG5SFXbE3g96USzRnDsPwEXAu/DSWv69RPgpaTV/iStxJn/pMHNJK2c+QPgJcSf/AEeAxwLXEuaD3+ohPdomxHScuZ74slfWqWIq3+pi2YClwA7V/R+U0nz1m9Kutug8f0ReB3w7dyJSHXnHQBpMJ+hupP/io4jzWKnR1tCuurfHk/+Uk8sAKT+7UFapS6X04HZGd+/TpYCnwd2JE1p/mDedKTmsACQ+ndC5vefDRySOYfc5gNnk6YyPwK4Pm86UvNYAEj9mUKaUCa3/XInkMHDwLeAw4CNgGNIo4ckDcBOgFJ/NgZm5E4C2Cp3AiVbRpq45wbgCuCHwOXAoow5Sa1iASD1Z2buBEatnzuBFbya4kvrLiU9v39g9M9b8WQvlcoCQOrPvNwJjKrTfABfp/hEYJIqZh8AqT/3ArfnTkKSirIAkPozAlyQOwlJKsoCQOrf6cBDuZOQpCIsAKT+3QW8JXcSklSEBYA0mLOA9+BSvZIaygJAGtxJwMHYKVBSAzkMUCrmPOCbwIHA/sDjgQ0neM0U0qp+kpSNBYBU3CPAl0dbL7bEKWwlZeYjAEmSOsgCQJKkDrIAkCSpgywAJEnqIAsASZI6yAJAkqQOsgCQJKmDLADUFMsCYkwKiBEh4vdueUAMlSPis6nLd7PHaovV5SCTJrIwIMaMgBgRZgXEeDAghsrRpmN1ZkAMj9WasgBQU0R8iUw0RW9VNgiI4ZdqfbXpWI3IY0FADJXAAkBNEfGluhkwPSBOUdsExLAAqK+IzybiGIkQkcf8gBgqgQWAmuKPATGGgacFxCnqmQExIvaHynFHQIxnAEMBcYqYCjwlII7Hak1ZAKgpHgDuDoizd0CMIiYDewbEuT4ghspxXUCMDYAnBcQpYndgjYA4Hqs1ZQGgJon4IjmcvFdWewHrB8SJOMmoHFEnvMOC4uR8/+XATQFxVAILADXJ1QExNgf2DYgzqOOC4lwTFEfx5o22ol5NvtEA6wGvCIhzPWm5bNWQBYCa5JKgOCeR5y7ALsB+AXHuBn4fEEfl+VFAjPWBYwPiDOLNxBQfEftBJbEAUJNcQsykIk8HXhUQpx/DwIeJKTwuAUYC4qg8USe+k4CNg2L1amvghKBYPwyKoxJYAKhJ7gN+HRTrA8AWQbF6cSKpZ3eEOUFxVJ7vB8WZBXyG6r6rpwKfA6YFxFpK3F07lcACQE3zpaA4awPnETPT2UT2Af4zKNYi4GtBsVSem4HLg2LtDbwnKNZEPky6Qxbhe6SiXTVlAaCm+SIx6wIA7AxcSLkdrXYnFRqTg+J9C7g/KJbKdU5grH8nPZcv03uBowPjRW6/SjIS0GYH5DE3II+nBuQxJyCPgwLy0KpdTMxxO9Z+QTnPWQ8GHg7O9cDgHOvy+99G6xL/+Z9O/KJW04BPBuf5F+ox62ZbzSbmc6rNF4AFgHq1J7FfViOkYVsHBOU3E/hoCTleS/xdu7r8/rfVWcQfB5cAWwbltz1wZQk5VvXIoqssAMZpFgDd8TPiv7RGgItIjwYGMRV4LXBnSbkdOWBeq1OX3/+22hxYTPyx8BBwCmm8/iA2Bj5YUm4LCuSl3lgAjNMsALpjX+K/uMbactJV1lHAJhPkMYnUaeo0yjvxj5BmU4vqR7Ciuvz+t9mnKe+4WAB8ltTRdKJpe2eSHiF9iTQ5T1k5nd73HlK/QgqAMr5QpCpcPNrKmNVvCNhjtAHcQpp694+kld6mkoZnbU26hTqrhBxWdgJpWJWa5x3AyyjnOJlBujN0JOlq/vfADaSOovOBtUhX41sD21FOEbmiP5PuTKgh6nIF4B0A9etxwELKu5KpS7swaoeNoy6//233BvIfR1W0w6N2mFYr5A6AwwDVZLfR/s5G84mblU35fBS4IncSJZtDGqarhrAAUNOdRrtnxjsWuDV3EipsKenOYFvncJhHml57JHci6p0FgJpuOfBK4K7ciZTgo3hF1Sa3Aa/LnUQJlgNHAH/KnYj6YwGgNrib1MnqodyJBPoR8KbcSSjcebTvsdW/0e67cK1lAaC2uJw0xGlx7kQCXAO8lDTvv9rnJOAjuZMI8l/AmbmT0GAsANQm3wdeQ7OHy11HWvzlgdyJqFQnAF/JnURBnyANcVRDWQCobb5Aunp+OHciA7gCeA5pLLXabRlwGPDx3IkM6EPAMdjpr9EsANRGF5Guopu0FOm3gOcB91T8vg8WfP1y0mx06t8y0iiPd9GcE+lS4Hj+Pq+BGswCQG31E2An4Ke5E5nAMuBk4EWkSY2qdkfB188DlkQk0mFjn3/dC9a7STNvfjh3IophAaA2u4N0VX066URbN7cDzyddAS7PlMOPCr7+ByFZ6JukRaguy53IKlwM7Ii9/VunLlOBOhWwyjR2NyD3VKkjpJEKZ5IWZ8ntmRTblhdWn3KrDZHm9Z9H/uN0hLTAVRmrUKoYVwMcp1kAaHWGgVcTc6wN0pYB5wNPLHtD+3QBg23P93Mk2xHrAGeQ+lfkOFYfAP4TWLPsDdVALADGaRYA6sVk0uyB11DNl+li4POklQPraB3gRvrbpruAx+ZItmPWJ62udz/VHKvzgHeSVhFUfVkAjNMsANSv7YFTKeeW6++BE4ENKtuawT2WNAyxl+26gfrdxWi7acABpLkDFhF7nD5CGjlzEGmpa9WfBcA4zQJAg5oE7Aq8DfguaTheP5/5EtKJ8dOkedE3qTb9ENNJ238v42/jX0gdFr0tnNcsYH/g/cCVpDkv+jlWF5BmzjyV1IdjRrXpK0BIATA0+pei1iF9ORQxF9iyYIxdgF8VjDEH2KtgjIOBrxaMofzWBbYhHZdrkm6LziJdgS0YbfNIt89voh3TEEN6RPJsUq/v9UjD0/4A/Jj2bGObDAObkY7VjUnH6tjx+gB/P1bvIBWpt+dJU4FmE7Cy5OSARKS2ug/42WjrkqXAJaNN9bectGT0rXnTUNM4D4AkSR1kASBJUgdZAEiS1EEWAJIkdZAFgCRJHWQBIElSB1kASJLUQRYAkiR1kAWAJEkdZAEgSVIHWQBIktRBFgCSJHWQBYAkSR1kASBJUgdZAEiS1EEWAJIkdZAFgCRJHWQBIElSB1kASJLUQRYAkiR1kAWAJEkdZAEgSVIHWQBIktRBFgCSJHWQBYAkSR1kASBJUgdZAEiS1EEWAJIkdZAFgCRJHWQBIElSB1kASJLUQRYAkiR10GRgBBgqGOdAYGHBGDMKvl6SJPVoMvAwsEbBOJ8JyEWSJFVkGLg/dxKSJKlaw8BNuZOQJEnVGgauyp2EJEmq1jDww9xJSJKkag0Dc4D7ciciSZKqMwwsBs7JnYgkSarO2ERA7wcW5UxEkiRVZ6wAuAN4X85EJElSdVacCvgU4He5EpEkSdVZsQB4GDgY+GumXCRJUkVWXgzoWtK8/g9lyEWSJFVkvNUALwX2ximCJUlqrVUtB/xTYGfg5xXmIkmSKrKqAgDgNuDZwL8C86pJR5IkVWF1BQDAcuBjwBakQuAXpWckSZJKN7nHn3uYVAh8DNgIeC6wA6kwWAuYFpDLbsD0gDiSJLXZUESQXguAFf0ZODfizVcyF9iyhLiSJLXJegExHp7oEYAkSaqXiIvlBRYAkiQ1y34BMe6yAJAkqTnWBg4NiHObBYAkSc3xLmDdgDhXWwBIktQMRwDHB8W6wgJAkqR6mwS8HfgfYoYALgEuHWQYoCRJKt9apA5//06aeyfKZcB8C4BynAQcnTsJSVIjTQE2BB4/+vdo/x8GmwhIE9txtEmSVCf3AF+DidcCkCRJ7fFJYBFYAEiS1BXzgY+M/cMCQJKkbngX8Kexf1gASJLUfr9nhat/sACQJKntlpBGpi1Z8T9aAEiS1G7HAz9b+T9aAEiS1F4fBD4+3v+wAJAkqZ3OA968qv9pASBJUvt8GHgFsGxVP2ABIElSe4wAJ5Oe+y9f3Q86FbAkSe0wDzgK+GYvP+wdAEmSmm0ZqaPfdvR48gfvAEiS1FTLgfOBdwPX9PtiCwBJkpplCXAGaWGfuYMGsQCQJKlZFgBvKxrEAqAcHwB+XjDG0cBeBWN8EbiwYIxefAaYUTDG/yV1gmOciAAABfhJREFUYCnTjsBJBWPcTMAvXg/q8vkfCBxeMMb3gU8UjNGLU4EtC8YY6FZqnzYkDdEqYiHw6oBcJvJi4LCCMfz8Hy3i82+duaThC0XaUwPymBOQx8EBeZwdkEcVJyqA+wNyLfqL24u9AvK8soI8oT6f/4kBeZwdkEcvrgzItWjR1YstA/K8v4I8IR1Dfv6xavP5OwpAkqQOsgCQJKmDLAAkSeogCwBJkjrIAkCSpA6yAJAkqYMsACRJ6iALAEmSOsgCQJKkDrIAkCSpgywAJEnqIAsASZI6yAJAkqQOsgCQJKmDLAAkSeqgybkTWMHygBgR2zMlIMaygBgR++MlwBYBcSayRkCMU4D5AXFWZ5OAGI+jmvXNdw+IEXEcRsTYnWr22eMCYpwAHBQQZ3VmBcRYg2r26U4BMfz8Hy3i8484P9SqAFgYEGOjgBgbB8R4MCBGxP7YdbQ1wSG5E+jResDRuZPoUV2OwyeOtibYL3cCPZpGc45DP/94IRdLdXoEEPFl9eSCr1+LmCpyQUCMeQEx1G0Rx5DHoVQ/d0cEqVMBcFdAjJcUfP1+wNSAPCK25fqAGOq2iGPI41Cqn5DfyzoVADcExNgJ2HfA104C/j0gh4eB2wPiXA6MBMRRNz1AzJfEdaOxJNXHzyOC1KkA+ENQnDOBdQZ43YnADgHvfz0xHTTuBn4bEEfd9H3iOgH+MCCOpDhzIoLUqQC4LCjOVsDXgLX7eM0RwLuD3v/HQXEAvhAYS93yxcBYHodSffwCmJs7iTJcT7rtHdGuA549wfutDXyQdMUe9b4HFtkBK1mf1KEwKjdbN9otxAxnHTMFuK0G22Wz2dIFa4hJUYGCbAbsFhRrPeA1pCJgDf5+W35j4GnA8cAngecBQ0HvuQA4DlgcFO8hYDbwrKB46oa3AlcExlsOPALsHxhTUv9uAI4laB6AqBNflB1p9nPvc4Ajg2POAq4lZn4Ctd+vgKcT8/x/RZOAXwI7B8eV1Lt9gO9GBatTHwCAa0jPN5rqUyXEnA+8mqCKT622kFSARp/8GY15JOmulKTqfZzAkz/U7xEAwL00Z1a4Ff0U+I+SYs8FlgDPLym+mm856QR9SYnvcQ9wM/BS6nf3UGqznwKHA0sjg9axALgeeDEx0/pW6bWU2zPzJ8Ca2B9A/2g58HrgsxW81+9IRfo/YxEgVeEq0vw2EbPlNsLuxPbML7tdWM5uGNdbSFVg7m221aMtAA6meoeQHjnk3n6brc3tYmAmHfRp8u/8XtqDxKwf0I89SHcbcm+7LW+7EtiOfHYgXZ3k3g82W9vaQ6TRPJ29yzaTNOQh9wcxUXtlWTtgAtOBt5Oey+beB7Zq2y2kR051eIQ3CTgG5wmw2SLaEuBzVLOMe+3tRL1vM36ivE3v2QxS569vU+99ZSvW7ge+SuofEznJT5QppM6B5wN/If/+stma0paR7qSdRMV3k5twe2E/0jP2ybkTWcl3gBeRKra6mApsD2xNWg9hVt50VNADpDs815E6x5YxvK8Mk4BtgW1Is1n2My231AWPAH8lPcr9Halo1iq8knSizV2pjbUfk668JUlSyQ4gdYzIffL/Bun5uyRJqsiupA5QOU78y4H/oh4dryRJ6pzZwJep9uR/J2kOZkmSlNk+lD9McDFwBh2diEGSpLoaBg4C/kDsiX8RaSzmE6rbFEmS1K9h4Lmk2QPvZ7CT/jLg56Q51derNHtJkirWhHkA+jWJNIHQHqQx8dsCm5DGxK8FPEyaP/0+0iOEG4DLgUtJxYMkSZIkSZIkSZIkSZIkSZIkSZIkSZIkSZIkSZIkSZIkSZIkSZIkSZIkSZIkSZIkSZIkSZIkSZIkSZIkSZIkSZIkSZIkSZIkSZIkSZIkSZIkSZIkSZIkSZIkSZIkSZIkSZIkSZIkSZIkSZIkSZIkSZIkSZIkSZIkSZIkSZIkSZIkSZIkSZIkSZIkSZIkSZIkSZIkSZIkSZIkSZIkSZIkSZIkSZIkSZIkSZIkSZIkSZIkSZIkSZIkSZIkSZIkSZIkSZKkHv0vENhXsC64MN4AAAAASUVORK5CYII=;" vertex="1" parent="1">
          <mxGeometry x="410" y="682" width="40" height="40" as="geometry" />
        </mxCell>
        <mxCell id="W4ZQf7grJeuH_FmLfWgL-31" value="" style="shape=image;verticalLabelPosition=bottom;labelBackgroundColor=default;verticalAlign=top;aspect=fixed;imageAspect=0;image=data:image/png,iVBORw0KGgoAAAANSUhEUgAAAgAAAAIACAYAAAD0eNT6AAAABHNCSVQICAgIfAhkiAAAAAlwSFlzAAAOxAAADsQBlSsOGwAAABl0RVh0U29mdHdhcmUAd3d3Lmlua3NjYXBlLm9yZ5vuPBoAACAASURBVHic7d15mB1lmbDxuzvbhJBA2AVBQARkUUTEBRFFRIZF3EAWwdEPEQY/xHHBUflGRnGAURQXFP3UUVxQQVAUl7iAuKAgiqisYRPQsIkhAbL2/PF2a4id9Dmnnqq3lvt3Xe+VBPo856k61aeeqnoXkCRJkiRJkiRJkiRJkiRJkiRJkiRJkiRJkiRJkiRJkiRJkiRJkiRJkiRJkiRJkiRJkiRJkiRJkiRJkiRJkiRJkiRJkiRJkiRJkiRJkiRJkiRJkiRJkiRJkiRJkiRJkiRJkiRJkiRJkiRJkiRJkiRJkiRJkiRJkiRJkiRJkiRJkiRJkiRJkiRJkiRJkiRJkiRJkiRJkiRJkiRJkiRJkiRJkiRJkiRJkiRJkiRJkiRJkiRJkiRJkiRJkiRJkiRJkqQYQ4GxpgFPB3YHtgO2ATYCZgBrB75PUQ8BC4F7gRuB64FfAJeO/jdJkjSBqcCBwPmkk+pIg9sy4JfA8cD6kTtJkqS2mAG8AbiD/CfuMtpi4HOkuxiSJHXeEPAvwDzyn6SraEuADwFrBew7SZIaaTPSc/LcJ+Uc7S5gv+K7UJKkZjkAuI/8J+KcbTlwOjC54L6UJKkRjiN1kMt9Aq5LuwhYo9AelSSp5t5J/hNuHdtlwJoF9qskSbV1LPlPtHVuPyDNfSBJUmscgLf9e2mfGnQHS5JUN5uSZsTLfXJtSnvVYLtZkqT6GKK7Q/0GbQuAzQfY15Ik1caryX9CbWK7cJCdLUlSHaxJd2b4K6O9sP9dLklSfm8i/0m0ye3n/e9ySZLymgrcSf6TaNPbc/rd8ZIk5TA8+ue+wMY5E2mJ/5M7AUmSejE0+uf5wEsD4y4jdYy7ALgauJu0sl4drAdsQSp6Dh/9d5QFwGNG/5QkqdamAQuJuw1+GbBdpVswuFnA+0kL/URt/4GVboEkSQN6DnEnvy+S+hM0zeHEzXx4ZsW5S5I0kHcQd+XfxJP/mLcRsx+uqjpxSZIG8QWKn/SWAttXnXiwYdLJu+i+eIi/d66UJKm2rqT4Se+8yrMux6HE3AV4XNWJS5LUj2FSr/WiLgiIUQffAhYHxHFIpSSp1oaBmQFxrg6IUQfzgVsD4qwZEEOSpNIMA2sExLk3IEZd/CkgRkRRJUlSaYaBRwLirB0Qoy4iJiyaFBBDkqTSDAMPBsTZOiCGJEmqyDBwT0Cc/QNiSJKkigwDNwbEOQzYKCCOJEmqwDBwbUCcGcD7AuJIkqQKDAM/D4p1OPD2oFiSJKlEw6Q5/JcGxTsF+AQOg5MkqdaGSZPfXBYY87XATaRFhpq+PoAkSa00efTPc4DnBcbdAHjPaFsMzCNmfP084Bbgm8CFwMMBMSVJ6qxZpDsBEQvhVNVuBw4uYV/MCcjtoBLykiQpzNiytfOBj+dMZACbAl8m3WWQJEl9WHHd+jNo5i31dwDH5k5CkqQmWbEA+DNwaq5ECno/6Y6AJEnqwfBK/z4NuCFHIgVNB/4tdxKSJDXFygXAIuAIUs/9pnkpMJQ7CUmSmmDlAgDgl8CJVScSYDNg3dxJSJLUBOMVAAAfpHmjAgAekzsBSZKaYFUFAMDrga9WlUiQqbkTkCSpCVZXACwDDiXN7S9JklpkdQUApCLgGOCdo3+XJEktMFEBAGlq21OAvYA7y01HkiRVoZcCYMwlwDbAyTRzmKAkSRrVTwEAsBB4F7ATaQXBpdEJSZKk8vVbAIy5FjgSeALpjsDcsIwkSVLpBi0AxtxKuiPwBOBJwAnA+aQCwccEkiTV1OSgOCPANaPtzBVirwOsCczuIcbXgU2C8pEkSasRVQCMZylw92jrxaISc5EkSSso+ghAkiQ1kAWAJEkdZAEgSVIHWQBIktRBFgCSJHWQBYAkSR1kASBJUgdZAEiS1EEWAJIkdZAFgCRJHWQBIElSB1kASJLUQRYAkiR1kAWAJEkdZAEgSVIHTc6dQEudBBydOwlJUmP9FVgI/Am4HvgDcBWwJOoNLADKseNokyQpykLgMuAbwJeB+4sE8xGAJEnNMAPYBzgLuAv4EvDkQYNZAEiS1DzTgEOAXwMXAo/vN4AFgCRJzTUEHAhcA7yTPh7tWwBIktR804F3Az8BNu/lBRYAkiS1x9OBy4GnTvSDFgCSJLXLhsCPgD1X90MWAJIktc9M4CLgWav6AQsASZLaaQ3g68BW4/1PCwBJktprPeBrpE6Cj2IBIElSu+0InLbyf7QAkCSp/Y4jjRD4GwsASZLabxj4CGnioL/9B0mS1H67AC8a+4cFgCRJ3fGOsb9YAEiS1B1PI90J6H3RgBXMBJ4N7ECab3gtYGpAUhsGxKiLM0hTMUqS1K/JpHPik4H9SUP5Ih0JXNlPMocC3wOWACM1bRPOfdyDOQF5HBSQhyRJU4HXA/cRd668ixU6A67KEHA4cEvgG1sASJLUny2BPxB3vtxudX0ANgK+C3yeHpcWlCRJpbgZ2Bv4c1C8562qAHgKcBXwgqA3kiRJxdwBHBMUa8fxCoCnkZYRfEzQm0iSpBhfB34ZEGeblQuAxwMXk3r2S5Kk+jk3IMbmKxYA04CvED/cQJIkxflpQIxZKxYAbwF2DggqSZLKc2dAjL8VABsBbw8IKEmSyvVQQIzJYwXAG4HpAQElSVIDDJNm+XtV7kQkSVJ1hoG9aNc8/JIkaQLDwJ65k5AkSdUaJmb+fEmS1CDDwBNyJyFJkqo1DKyTOwlJklStycAaAXHeSPFxiafgLIQTGQJ2AfYANiHms5vIcmAecB3wHeCBCt5TklSBiHWFZwfkMTcgj4j+DHMC8jgoII+VHQTcEJBbkbYI+AiwfgnbJ0nqzWwCvtNXtRyw6mMK8EnSOg25+2tMBY4jLRXttNGS1GAWAPX3YeCo3Ems5LGkOyVb5U5EkjQYC4B6Owh4Xe4kVmEd4BxSvwRJUsNYANTXEKljZJ09AzgwdxKSpP5ZANTXruR/5t+Lw3InIEnqnwVAfe2eO4Ee7ZE7AUlS/ywA6mvj3An0aH3S6ABJUoNYANTXjNwJ9Gj5aJMkNYgFgIr6E7A0dxKSpP5YAKioObkTkCT1zwJARX02dwKSpP5ZAKiIi4BLcychSeqfBYAGdTPwmtxJSJIGYwGgQfwG2BO4N3cikqTBWACoH3cAJwBPB27LnIskqYDJuRNQqb5N8Wf0y4B5wB9IywCPFE1KkpSfBUC7XQqcljsJSVL9+AhAkqQOsgCQJKmDLAAkSeogCwBJkjrIAkCSpA6yAJAkqYMsACRJ6iALAEmSOsgCQJKkDrIAkCSpgywAJEnqIAsASZI6yAJAkqQOsgCQJKmDLAAkSeogC4D6Wh4QY1lADElSC1kA1Ne8gBh/DoghSWohC4D6ui4gxrUBMSRJLWQBUF/fARYXeP0dwFVBuUiSWsYCoL4eAD5Z4PX/DYwE5SJJahkLgHo7mXQl369fAR8PzkWS1CIWAPV2D3AgcF8fr7kZeDHFHh9IklrOAqD+rgKeDlzew89eBOzKYHcNJEkdYgHQDHOBZwEvAb7K34cILied7P8HeC7wIvq7WyBJ6qjJuRNQz0aAC0cbwDTSRD9Ls2XUXlsCTwW2BrYd/fcMYCawFrAIWAjMJxVcN5CGbV4H/AJYUH3KYaYCLyM9Rtoe2BCYVMH7LiPtz/mkfXsjcD1p314B/LGCHMr0DOAQYDdgY9IxdDvwXeALo39viicAhwPPBzYjHR93AJcCXwJ+ky819WskoM0OyGNuQB5PDchjTkAeBwXkoepMJ305fwa4lWKf/RLgp8C7gZ0r3IYIewM3EfOdEN1uBM4mFSbTytoBJdgY+Car37ZHgNOAKZly7NV04KOkY3xV27IcOBdYJ1OOXTGbmN+rkCAWAI9uFgDN8Gzg08BfKe/E9TvgRNKVdJ29jnQ3qcqT+qDtPuAsYJdS9kSc7UhXxr1u1w+BNbJkOrHZwC/pfVtuBDbPkWhHWACM0ywA1ItnAz+g2pPWI6Qr2E0r2L5+/TPNOfmv3L5H6v9SN+sy2Hfal3MkO4FJpP3c77b8lvToTPEsAMZpFgBanafR31VMGW0R8H5Sf4I6+CfgNvLuk4j2Q1Kfhbr4CINvywEZ8l2d1zD4tpycId8usAAYp1kAaDyzgY+ROprlPlGNtTuAg8vc6B4dRf59EdUWA6eT/6pzvdFcBt2OXob8VulGBt+W+aS+A4oVUgA4DFBt9zTSzIjHUK9hr5uQbveeRxpZkMtLMr53tCnAW0if95My5rEfxTr07Uo6PupgR2CrAq+fCbwgKBcFq9MXohRpCHgzqUf+FplzWZ2XkYYO5jph5TxRlmUb0lX0UZne/8kFXz9EOvHWQdFtgXYeY60wmXQrYKhgnFcBDxWMMavg66Uxk0i9xI/OnUiPtiEVKi8njQuvUt1HJwxqOmkxra1JozBGKnzviH36mIAYETYIiFGXbdFKJpNO3EWfmX0gIBcpwjTg86STaZOsCXyDVEyfW+H71n3seVFvIZ2AXkMav16FiAnW6vK5ROThhHM1NYxTx6o9pgAX0LyT/5ippFnhXpE7kZZ5JfA5fOQpPcowaeYvqemGgE+QxrQ32TBwDvDC3Im0zCGkoXmSRg0DV+ZOQgpwKvAvuZMIMoW06JOdp2IdC7w1dxJSXQyTZkSTmmx/0rPeNplJGiJo59hY7wX2zJ2EVAfDpBm05k30g1JNbUpaDrnoSJY6egLpsYbiTCL1s9godyJSbsOkOcA/kzsRaQBDwGdJ86631SuwU2C0jYAP505Cym2sV+wHKT6OX6ra4cDzcidRgQ+Sd7bANno5sG/uJKScxsZnzgNOGW1SE6wF/HfJ7zEfuAT4CXAdcBdp6eBppGfzW5FmSnsusDPlPYbYCPh/wJtKil/UzqT9UsQk0me6KbAtsDuwB+Uuj3smqQ/UohLfQ2qEqeRfKa1oczGg7vgPyjuOLicNG+tnEZMtgHeT5tUoI6dFlLOUcERuEYuBjWdN0siOq4PyHK8dV0LeXw7Iqy6zWI7NoliknV151u0XvhjQYtKzxnuqyV8a2Ezg+BLi3kRayOUZpNn4Hu7jtbcAJwGbk1aki551birtG+kwkQWkDp47kb6b7izhPd5K2rdS56w8M9YtpOdiRW/nSWU6BlgnOOYnSePuLy4Y50HSVdMziJ9k6yjaO3f/6owAXwG2G/0z0makmQKlzhlvaswrSc/e7qo4F6kXQ8DrAuONkJ6tH01/V/wTuYq0FPFlgTGn057JjgYxn3Qn4G3BcY8Njic1wqrmxr4aeArVr0wmTWQ34PFBsUZIxcQZQfFW9gBpSt/IIuCIwFhNdRqxRcAupLsLUqesbnGMu4F9gEOBm6tJR5rQkYGx3kO69V+mh4EXEfc4YHtSr/uuOw34WGA8Cyt1Ti+rY51LWq/8UOA7pImDpByGgAODYl0CnBwUayIPAAeTOtpGeElQnKZ7I/CboFgvDoojNUav6zQvJRUC55KG5uwG7EAa+rQWaVx0UfsCMwLiqL12ADYIiLOY9Nx3WUCsXv2aNKFPxGI0XZj8qBeLgNcCv6D4Ur/bAptQzkgDqZZ6LQBWtIDUNyC6f8BcYMvgmGqXqBPf2aSJfar2HlJP/qIjGHYlFeILCmfUfFeSxt0fGhDruaR1AqROKFo1S1XaLSDGMuB9AXEG8SBwVkCcKaQiQMmpQXEiji+pMSwA1CRPDIgxB7g9IM6gPkUafVDUtgEx2uK3wK8C4rhP1SkWAGqKYdLyuEV9LSBGEbcS03Ftm4AYbXJ+QAwLAHWKBYCaYjPgnwLi/CggRlEROWwdEKNNIvbpY0jTTEudYAGgplg3IMZCUmfT3H4bECNif7TJNcQ8WnG/qjMsANQUawbEuJmYk0RREUXIrIAYbbIQ+HNAHO8AqDMsANQUEV/MdVnk6oGAGJ6o/pH7VeqDBYCaIuL5f+RiP0XcnzuBlopYgnlKQAypESwA1BRDuRMIdDfFZyF0tc5/FHH17uRK6gwLAKl6S4ErCsb4WUQiLTJM6sVf1PyAGFIjWABIeXyl4Ou/GpJFe2xBzGMiCwB1hgWAlMfZDL7wzHeBnwTm0gbPCYixkPR4RuoECwApj4dIC9j0u0TwvaSVDPVo+wTEuIF6DBOVKmEBIOVzGXAEvY9OuBN4IXBLaRk101rAAQFxrg+IITWGBYCU11eAZ7L6qWyXA58DdgGuqiKphjkGmB4QJ2JBIakxJhd47SxSx5tZwLSAXCJ+gaUmuhrYE9iJdCW7NbAO6Xn0r4FvkBYR0j9aG3hTUKw6rBMhVaafAmAasD9wIPBcYNMyEpI67DfErBTYJe8B1g+I8xfc9+qYXgqAWcDxwBuA9cpNR5J6tj/wr0Gx5lB8ciapUSYqAF4OnAlsXEEuktSrHYFziJsh8vNBcaTGWFUBMAX4EKlzjSTVyfbAd0jP/yPcMxpP6pTxCoDpwHnAvhXnIkkT2Qf4IjA7MOYXiFlISGqUlYcBTgbOxZO/pHqZCZwBXEzsyX/xaFypc1a+A/Bu4EU5EpGkcawBHAWcSDl9kT4L/LGEuFLtrVgAPAd4a65EJGnUBsDuwH7Ay0gjkcqwCDi1pNhS7Y0VAJOAs3BmQEn9u4Diz9CnkE70mwHrFs6oN6cDN1f0XlLtjBUAryD1rJWkfu2RO4EB3A6cljsJKaexK/43ZM1CkqqznNSvYGHuRKSchoFtgV1zJyJJFXkvaeY/qdOGiVlHW5Ka4FLgXbmTkOpgGNgtdxKSVIGbgINxzn8JSAXAdrmTkKSS3QW8gLTEsiRSAeBCP5La7C5gb+DWzHlItTIZWDMgzm8oflttB2BaQC5SLlNJk9hsGBBrCelqdR4wEhCvq24GXki6/S9pBZOZeEngXuwJ/KVgjLnAlgG5SFXbE3g96USzRnDsPwEXAu/DSWv69RPgpaTV/iStxJn/pMHNJK2c+QPgJcSf/AEeAxwLXEuaD3+ohPdomxHScuZ74slfWqWIq3+pi2YClwA7V/R+U0nz1m9Kutug8f0ReB3w7dyJSHXnHQBpMJ+hupP/io4jzWKnR1tCuurfHk/+Uk8sAKT+7UFapS6X04HZGd+/TpYCnwd2JE1p/mDedKTmsACQ+ndC5vefDRySOYfc5gNnk6YyPwK4Pm86UvNYAEj9mUKaUCa3/XInkMHDwLeAw4CNgGNIo4ckDcBOgFJ/NgZm5E4C2Cp3AiVbRpq45wbgCuCHwOXAoow5Sa1iASD1Z2buBEatnzuBFbya4kvrLiU9v39g9M9b8WQvlcoCQOrPvNwJjKrTfABfp/hEYJIqZh8AqT/3ArfnTkKSirIAkPozAlyQOwlJKsoCQOrf6cBDuZOQpCIsAKT+3QW8JXcSklSEBYA0mLOA9+BSvZIaygJAGtxJwMHYKVBSAzkMUCrmPOCbwIHA/sDjgQ0neM0U0qp+kpSNBYBU3CPAl0dbL7bEKWwlZeYjAEmSOsgCQJKkDrIAkCSpgywAJEnqIAsASZI6yAJAkqQOsgCQJKmDLADUFMsCYkwKiBEh4vdueUAMlSPis6nLd7PHaovV5SCTJrIwIMaMgBgRZgXEeDAghsrRpmN1ZkAMj9WasgBQU0R8iUw0RW9VNgiI4ZdqfbXpWI3IY0FADJXAAkBNEfGluhkwPSBOUdsExLAAqK+IzybiGIkQkcf8gBgqgQWAmuKPATGGgacFxCnqmQExIvaHynFHQIxnAEMBcYqYCjwlII7Hak1ZAKgpHgDuDoizd0CMIiYDewbEuT4ghspxXUCMDYAnBcQpYndgjYA4Hqs1ZQGgJon4IjmcvFdWewHrB8SJOMmoHFEnvMOC4uR8/+XATQFxVAILADXJ1QExNgf2DYgzqOOC4lwTFEfx5o22ol5NvtEA6wGvCIhzPWm5bNWQBYCa5JKgOCeR5y7ALsB+AXHuBn4fEEfl+VFAjPWBYwPiDOLNxBQfEftBJbEAUJNcQsykIk8HXhUQpx/DwIeJKTwuAUYC4qg8USe+k4CNg2L1amvghKBYPwyKoxJYAKhJ7gN+HRTrA8AWQbF6cSKpZ3eEOUFxVJ7vB8WZBXyG6r6rpwKfA6YFxFpK3F07lcACQE3zpaA4awPnETPT2UT2Af4zKNYi4GtBsVSem4HLg2LtDbwnKNZEPky6Qxbhe6SiXTVlAaCm+SIx6wIA7AxcSLkdrXYnFRqTg+J9C7g/KJbKdU5grH8nPZcv03uBowPjRW6/SjIS0GYH5DE3II+nBuQxJyCPgwLy0KpdTMxxO9Z+QTnPWQ8GHg7O9cDgHOvy+99G6xL/+Z9O/KJW04BPBuf5F+ox62ZbzSbmc6rNF4AFgHq1J7FfViOkYVsHBOU3E/hoCTleS/xdu7r8/rfVWcQfB5cAWwbltz1wZQk5VvXIoqssAMZpFgDd8TPiv7RGgItIjwYGMRV4LXBnSbkdOWBeq1OX3/+22hxYTPyx8BBwCmm8/iA2Bj5YUm4LCuSl3lgAjNMsALpjX+K/uMbactJV1lHAJhPkMYnUaeo0yjvxj5BmU4vqR7Ciuvz+t9mnKe+4WAB8ltTRdKJpe2eSHiF9iTQ5T1k5nd73HlK/QgqAMr5QpCpcPNrKmNVvCNhjtAHcQpp694+kld6mkoZnbU26hTqrhBxWdgJpWJWa5x3AyyjnOJlBujN0JOlq/vfADaSOovOBtUhX41sD21FOEbmiP5PuTKgh6nIF4B0A9etxwELKu5KpS7swaoeNoy6//233BvIfR1W0w6N2mFYr5A6AwwDVZLfR/s5G84mblU35fBS4IncSJZtDGqarhrAAUNOdRrtnxjsWuDV3EipsKenOYFvncJhHml57JHci6p0FgJpuOfBK4K7ciZTgo3hF1Sa3Aa/LnUQJlgNHAH/KnYj6YwGgNrib1MnqodyJBPoR8KbcSSjcebTvsdW/0e67cK1lAaC2uJw0xGlx7kQCXAO8lDTvv9rnJOAjuZMI8l/AmbmT0GAsANQm3wdeQ7OHy11HWvzlgdyJqFQnAF/JnURBnyANcVRDWQCobb5Aunp+OHciA7gCeA5pLLXabRlwGPDx3IkM6EPAMdjpr9EsANRGF5Guopu0FOm3gOcB91T8vg8WfP1y0mx06t8y0iiPd9GcE+lS4Hj+Pq+BGswCQG31E2An4Ke5E5nAMuBk4EWkSY2qdkfB188DlkQk0mFjn3/dC9a7STNvfjh3IophAaA2u4N0VX066URbN7cDzyddAS7PlMOPCr7+ByFZ6JukRaguy53IKlwM7Ii9/VunLlOBOhWwyjR2NyD3VKkjpJEKZ5IWZ8ntmRTblhdWn3KrDZHm9Z9H/uN0hLTAVRmrUKoYVwMcp1kAaHWGgVcTc6wN0pYB5wNPLHtD+3QBg23P93Mk2xHrAGeQ+lfkOFYfAP4TWLPsDdVALADGaRYA6sVk0uyB11DNl+li4POklQPraB3gRvrbpruAx+ZItmPWJ62udz/VHKvzgHeSVhFUfVkAjNMsANSv7YFTKeeW6++BE4ENKtuawT2WNAyxl+26gfrdxWi7acABpLkDFhF7nD5CGjlzEGmpa9WfBcA4zQJAg5oE7Aq8DfguaTheP5/5EtKJ8dOkedE3qTb9ENNJ238v42/jX0gdFr0tnNcsYH/g/cCVpDkv+jlWF5BmzjyV1IdjRrXpK0BIATA0+pei1iF9ORQxF9iyYIxdgF8VjDEH2KtgjIOBrxaMofzWBbYhHZdrkm6LziJdgS0YbfNIt89voh3TEEN6RPJsUq/v9UjD0/4A/Jj2bGObDAObkY7VjUnH6tjx+gB/P1bvIBWpt+dJU4FmE7Cy5OSARKS2ug/42WjrkqXAJaNN9bectGT0rXnTUNM4D4AkSR1kASBJUgdZAEiS1EEWAJIkdZAFgCRJHWQBIElSB1kASJLUQRYAkiR1kAWAJEkdZAEgSVIHWQBIktRBFgCSJHWQBYAkSR1kASBJUgdZAEiS1EEWAJIkdZAFgCRJHWQBIElSB1kASJLUQRYAkiR1kAWAJEkdZAEgSVIHWQBIktRBFgCSJHWQBYAkSR1kASBJUgdZAEiS1EEWAJIkdZAFgCRJHWQBIElSB1kASJLUQRYAkiR10GRgBBgqGOdAYGHBGDMKvl6SJPVoMvAwsEbBOJ8JyEWSJFVkGLg/dxKSJKlaw8BNuZOQJEnVGgauyp2EJEmq1jDww9xJSJKkag0Dc4D7ciciSZKqMwwsBs7JnYgkSarO2ERA7wcW5UxEkiRVZ6wAuAN4X85EJElSdVacCvgU4He5EpEkSdVZsQB4GDgY+GumXCRJUkVWXgzoWtK8/g9lyEWSJFVkvNUALwX2ximCJUlqrVUtB/xTYGfg5xXmIkmSKrKqAgDgNuDZwL8C86pJR5IkVWF1BQDAcuBjwBakQuAXpWckSZJKN7nHn3uYVAh8DNgIeC6wA6kwWAuYFpDLbsD0gDiSJLXZUESQXguAFf0ZODfizVcyF9iyhLiSJLXJegExHp7oEYAkSaqXiIvlBRYAkiQ1y34BMe6yAJAkqTnWBg4NiHObBYAkSc3xLmDdgDhXWwBIktQMRwDHB8W6wgJAkqR6mwS8HfgfYoYALgEuHWQYoCRJKt9apA5//06aeyfKZcB8C4BynAQcnTsJSVIjTQE2BB4/+vdo/x8GmwhIE9txtEmSVCf3AF+DidcCkCRJ7fFJYBFYAEiS1BXzgY+M/cMCQJKkbngX8Kexf1gASJLUfr9nhat/sACQJKntlpBGpi1Z8T9aAEiS1G7HAz9b+T9aAEiS1F4fBD4+3v+wAJAkqZ3OA968qv9pASBJUvt8GHgFsGxVP2ABIElSe4wAJ5Oe+y9f3Q86FbAkSe0wDzgK+GYvP+wdAEmSmm0ZqaPfdvR48gfvAEiS1FTLgfOBdwPX9PtiCwBJkpplCXAGaWGfuYMGsQCQJKlZFgBvKxrEAqAcHwB+XjDG0cBeBWN8EbiwYIxefAaYUTDG/yV1gmOciAAABfhJREFUYCnTjsBJBWPcTMAvXg/q8vkfCBxeMMb3gU8UjNGLU4EtC8YY6FZqnzYkDdEqYiHw6oBcJvJi4LCCMfz8Hy3i82+duaThC0XaUwPymBOQx8EBeZwdkEcVJyqA+wNyLfqL24u9AvK8soI8oT6f/4kBeZwdkEcvrgzItWjR1YstA/K8v4I8IR1Dfv6xavP5OwpAkqQOsgCQJKmDLAAkSeogCwBJkjrIAkCSpA6yAJAkqYMsACRJ6iALAEmSOsgCQJKkDrIAkCSpgywAJEnqIAsASZI6yAJAkqQOsgCQJKmDLAAkSeqgybkTWMHygBgR2zMlIMaygBgR++MlwBYBcSayRkCMU4D5AXFWZ5OAGI+jmvXNdw+IEXEcRsTYnWr22eMCYpwAHBQQZ3VmBcRYg2r26U4BMfz8Hy3i8484P9SqAFgYEGOjgBgbB8R4MCBGxP7YdbQ1wSG5E+jResDRuZPoUV2OwyeOtibYL3cCPZpGc45DP/94IRdLdXoEEPFl9eSCr1+LmCpyQUCMeQEx1G0Rx5DHoVQ/d0cEqVMBcFdAjJcUfP1+wNSAPCK25fqAGOq2iGPI41Cqn5DfyzoVADcExNgJ2HfA104C/j0gh4eB2wPiXA6MBMRRNz1AzJfEdaOxJNXHzyOC1KkA+ENQnDOBdQZ43YnADgHvfz0xHTTuBn4bEEfd9H3iOgH+MCCOpDhzIoLUqQC4LCjOVsDXgLX7eM0RwLuD3v/HQXEAvhAYS93yxcBYHodSffwCmJs7iTJcT7rtHdGuA549wfutDXyQdMUe9b4HFtkBK1mf1KEwKjdbN9otxAxnHTMFuK0G22Wz2dIFa4hJUYGCbAbsFhRrPeA1pCJgDf5+W35j4GnA8cAngecBQ0HvuQA4DlgcFO8hYDbwrKB46oa3AlcExlsOPALsHxhTUv9uAI4laB6AqBNflB1p9nPvc4Ajg2POAq4lZn4Ctd+vgKcT8/x/RZOAXwI7B8eV1Lt9gO9GBatTHwCAa0jPN5rqUyXEnA+8mqCKT622kFSARp/8GY15JOmulKTqfZzAkz/U7xEAwL00Z1a4Ff0U+I+SYs8FlgDPLym+mm856QR9SYnvcQ9wM/BS6nf3UGqznwKHA0sjg9axALgeeDEx0/pW6bWU2zPzJ8Ca2B9A/2g58HrgsxW81+9IRfo/YxEgVeEq0vw2EbPlNsLuxPbML7tdWM5uGNdbSFVg7m221aMtAA6meoeQHjnk3n6brc3tYmAmHfRp8u/8XtqDxKwf0I89SHcbcm+7LW+7EtiOfHYgXZ3k3g82W9vaQ6TRPJ29yzaTNOQh9wcxUXtlWTtgAtOBt5Oey+beB7Zq2y2kR051eIQ3CTgG5wmw2SLaEuBzVLOMe+3tRL1vM36ivE3v2QxS569vU+99ZSvW7ge+SuofEznJT5QppM6B5wN/If/+stma0paR7qSdRMV3k5twe2E/0jP2ybkTWcl3gBeRKra6mApsD2xNWg9hVt50VNADpDs815E6x5YxvK8Mk4BtgW1Is1n2My231AWPAH8lPcr9Halo1iq8knSizV2pjbUfk668JUlSyQ4gdYzIffL/Bun5uyRJqsiupA5QOU78y4H/oh4dryRJ6pzZwJep9uR/J2kOZkmSlNk+lD9McDFwBh2diEGSpLoaBg4C/kDsiX8RaSzmE6rbFEmS1K9h4Lmk2QPvZ7CT/jLg56Q51derNHtJkirWhHkA+jWJNIHQHqQx8dsCm5DGxK8FPEyaP/0+0iOEG4DLgUtJxYMkSZIkSZIkSZIkSZIkSZIkSZIkSZIkSZIkSZIkSZIkSZIkSZIkSZIkSZIkSZIkSZIkSZIkSZIkSZIkSZIkSZIkSZIkSZIkSZIkSZIkSZIkSZIkSZIkSZIkSZIkSZIkSZIkSZIkSZIkSZIkSZIkSZIkSZIkSZIkSZIkSZIkSZIkSZIkSZIkSZIkSZIkSZIkSZIkSZIkSZIkSZIkSZIkSZIkSZIkSZIkSZIkSZIkSZIkSZIkSZIkSZIkSZIkSZIkSZKkHv0vENhXsC64MN4AAAAASUVORK5CYII=;" vertex="1" parent="1">
          <mxGeometry x="220" y="460" width="40" height="40" as="geometry" />
        </mxCell>
        <mxCell id="W4ZQf7grJeuH_FmLfWgL-32" value="" style="shape=image;verticalLabelPosition=bottom;labelBackgroundColor=default;verticalAlign=top;aspect=fixed;imageAspect=0;image=data:image/png,iVBORw0KGgoAAAANSUhEUgAAAgAAAAIACAYAAAD0eNT6AAAABHNCSVQICAgIfAhkiAAAAAlwSFlzAAAOxAAADsQBlSsOGwAAABl0RVh0U29mdHdhcmUAd3d3Lmlua3NjYXBlLm9yZ5vuPBoAACAASURBVHic7d15mB1lmbDxuzvbhJBA2AVBQARkUUTEBRFFRIZF3EAWwdEPEQY/xHHBUflGRnGAURQXFP3UUVxQQVAUl7iAuKAgiqisYRPQsIkhAbL2/PF2a4id9Dmnnqq3lvt3Xe+VBPo856k61aeeqnoXkCRJkiRJkiRJkiRJkiRJkiRJkiRJkiRJkiRJkiRJkiRJkiRJkiRJkiRJkiRJkiRJkiRJkiRJkiRJkiRJkiRJkiRJkiRJkiRJkiRJkiRJkiRJkiRJkiRJkiRJkiRJkiRJkiRJkiRJkiRJkiRJkiRJkiRJkiRJkiRJkiRJkiRJkiRJkiRJkiRJkiRJkiRJkiRJkiRJkiRJkiRJkiRJkiRJkiRJkiRJkiRJkiRJkiRJkiRJkiRJkiRJkiRJkiRJkqQYQ4GxpgFPB3YHtgO2ATYCZgBrB75PUQ8BC4F7gRuB64FfAJeO/jdJkjSBqcCBwPmkk+pIg9sy4JfA8cD6kTtJkqS2mAG8AbiD/CfuMtpi4HOkuxiSJHXeEPAvwDzyn6SraEuADwFrBew7SZIaaTPSc/LcJ+Uc7S5gv+K7UJKkZjkAuI/8J+KcbTlwOjC54L6UJKkRjiN1kMt9Aq5LuwhYo9AelSSp5t5J/hNuHdtlwJoF9qskSbV1LPlPtHVuPyDNfSBJUmscgLf9e2mfGnQHS5JUN5uSZsTLfXJtSnvVYLtZkqT6GKK7Q/0GbQuAzQfY15Ik1caryX9CbWK7cJCdLUlSHaxJd2b4K6O9sP9dLklSfm8i/0m0ye3n/e9ySZLymgrcSf6TaNPbc/rd8ZIk5TA8+ue+wMY5E2mJ/5M7AUmSejE0+uf5wEsD4y4jdYy7ALgauJu0sl4drAdsQSp6Dh/9d5QFwGNG/5QkqdamAQuJuw1+GbBdpVswuFnA+0kL/URt/4GVboEkSQN6DnEnvy+S+hM0zeHEzXx4ZsW5S5I0kHcQd+XfxJP/mLcRsx+uqjpxSZIG8QWKn/SWAttXnXiwYdLJu+i+eIi/d66UJKm2rqT4Se+8yrMux6HE3AV4XNWJS5LUj2FSr/WiLgiIUQffAhYHxHFIpSSp1oaBmQFxrg6IUQfzgVsD4qwZEEOSpNIMA2sExLk3IEZd/CkgRkRRJUlSaYaBRwLirB0Qoy4iJiyaFBBDkqTSDAMPBsTZOiCGJEmqyDBwT0Cc/QNiSJKkigwDNwbEOQzYKCCOJEmqwDBwbUCcGcD7AuJIkqQKDAM/D4p1OPD2oFiSJKlEw6Q5/JcGxTsF+AQOg5MkqdaGSZPfXBYY87XATaRFhpq+PoAkSa00efTPc4DnBcbdAHjPaFsMzCNmfP084Bbgm8CFwMMBMSVJ6qxZpDsBEQvhVNVuBw4uYV/MCcjtoBLykiQpzNiytfOBj+dMZACbAl8m3WWQJEl9WHHd+jNo5i31dwDH5k5CkqQmWbEA+DNwaq5ECno/6Y6AJEnqwfBK/z4NuCFHIgVNB/4tdxKSJDXFygXAIuAIUs/9pnkpMJQ7CUmSmmDlAgDgl8CJVScSYDNg3dxJSJLUBOMVAAAfpHmjAgAekzsBSZKaYFUFAMDrga9WlUiQqbkTkCSpCVZXACwDDiXN7S9JklpkdQUApCLgGOCdo3+XJEktMFEBAGlq21OAvYA7y01HkiRVoZcCYMwlwDbAyTRzmKAkSRrVTwEAsBB4F7ATaQXBpdEJSZKk8vVbAIy5FjgSeALpjsDcsIwkSVLpBi0AxtxKuiPwBOBJwAnA+aQCwccEkiTV1OSgOCPANaPtzBVirwOsCczuIcbXgU2C8pEkSasRVQCMZylw92jrxaISc5EkSSso+ghAkiQ1kAWAJEkdZAEgSVIHWQBIktRBFgCSJHWQBYAkSR1kASBJUgdZAEiS1EEWAJIkdZAFgCRJHWQBIElSB1kASJLUQRYAkiR1kAWAJEkdZAEgSVIHTc6dQEudBBydOwlJUmP9FVgI/Am4HvgDcBWwJOoNLADKseNokyQpykLgMuAbwJeB+4sE8xGAJEnNMAPYBzgLuAv4EvDkQYNZAEiS1DzTgEOAXwMXAo/vN4AFgCRJzTUEHAhcA7yTPh7tWwBIktR804F3Az8BNu/lBRYAkiS1x9OBy4GnTvSDFgCSJLXLhsCPgD1X90MWAJIktc9M4CLgWav6AQsASZLaaQ3g68BW4/1PCwBJktprPeBrpE6Cj2IBIElSu+0InLbyf7QAkCSp/Y4jjRD4GwsASZLabxj4CGnioL/9B0mS1H67AC8a+4cFgCRJ3fGOsb9YAEiS1B1PI90J6H3RgBXMBJ4N7ECab3gtYGpAUhsGxKiLM0hTMUqS1K/JpHPik4H9SUP5Ih0JXNlPMocC3wOWACM1bRPOfdyDOQF5HBSQhyRJU4HXA/cRd668ixU6A67KEHA4cEvgG1sASJLUny2BPxB3vtxudX0ANgK+C3yeHpcWlCRJpbgZ2Bv4c1C8562qAHgKcBXwgqA3kiRJxdwBHBMUa8fxCoCnkZYRfEzQm0iSpBhfB34ZEGeblQuAxwMXk3r2S5Kk+jk3IMbmKxYA04CvED/cQJIkxflpQIxZKxYAbwF2DggqSZLKc2dAjL8VABsBbw8IKEmSyvVQQIzJYwXAG4HpAQElSVIDDJNm+XtV7kQkSVJ1hoG9aNc8/JIkaQLDwJ65k5AkSdUaJmb+fEmS1CDDwBNyJyFJkqo1DKyTOwlJklStycAaAXHeSPFxiafgLIQTGQJ2AfYANiHms5vIcmAecB3wHeCBCt5TklSBiHWFZwfkMTcgj4j+DHMC8jgoII+VHQTcEJBbkbYI+AiwfgnbJ0nqzWwCvtNXtRyw6mMK8EnSOg25+2tMBY4jLRXttNGS1GAWAPX3YeCo3Ems5LGkOyVb5U5EkjQYC4B6Owh4Xe4kVmEd4BxSvwRJUsNYANTXEKljZJ09AzgwdxKSpP5ZANTXruR/5t+Lw3InIEnqnwVAfe2eO4Ee7ZE7AUlS/ywA6mvj3An0aH3S6ABJUoNYANTXjNwJ9Gj5aJMkNYgFgIr6E7A0dxKSpP5YAKioObkTkCT1zwJARX02dwKSpP5ZAKiIi4BLcychSeqfBYAGdTPwmtxJSJIGYwGgQfwG2BO4N3cikqTBWACoH3cAJwBPB27LnIskqYDJuRNQqb5N8Wf0y4B5wB9IywCPFE1KkpSfBUC7XQqcljsJSVL9+AhAkqQOsgCQJKmDLAAkSeogCwBJkjrIAkCSpA6yAJAkqYMsACRJ6iALAEmSOsgCQJKkDrIAkCSpgywAJEnqIAsASZI6yAJAkqQOsgCQJKmDLAAkSeogC4D6Wh4QY1lADElSC1kA1Ne8gBh/DoghSWohC4D6ui4gxrUBMSRJLWQBUF/fARYXeP0dwFVBuUiSWsYCoL4eAD5Z4PX/DYwE5SJJahkLgHo7mXQl369fAR8PzkWS1CIWAPV2D3AgcF8fr7kZeDHFHh9IklrOAqD+rgKeDlzew89eBOzKYHcNJEkdYgHQDHOBZwEvAb7K34cILied7P8HeC7wIvq7WyBJ6qjJuRNQz0aAC0cbwDTSRD9Ls2XUXlsCTwW2BrYd/fcMYCawFrAIWAjMJxVcN5CGbV4H/AJYUH3KYaYCLyM9Rtoe2BCYVMH7LiPtz/mkfXsjcD1p314B/LGCHMr0DOAQYDdgY9IxdDvwXeALo39viicAhwPPBzYjHR93AJcCXwJ+ky819WskoM0OyGNuQB5PDchjTkAeBwXkoepMJ305fwa4lWKf/RLgp8C7gZ0r3IYIewM3EfOdEN1uBM4mFSbTytoBJdgY+Car37ZHgNOAKZly7NV04KOkY3xV27IcOBdYJ1OOXTGbmN+rkCAWAI9uFgDN8Gzg08BfKe/E9TvgRNKVdJ29jnQ3qcqT+qDtPuAsYJdS9kSc7UhXxr1u1w+BNbJkOrHZwC/pfVtuBDbPkWhHWACM0ywA1ItnAz+g2pPWI6Qr2E0r2L5+/TPNOfmv3L5H6v9SN+sy2Hfal3MkO4FJpP3c77b8lvToTPEsAMZpFgBanafR31VMGW0R8H5Sf4I6+CfgNvLuk4j2Q1Kfhbr4CINvywEZ8l2d1zD4tpycId8usAAYp1kAaDyzgY+ROprlPlGNtTuAg8vc6B4dRf59EdUWA6eT/6pzvdFcBt2OXob8VulGBt+W+aS+A4oVUgA4DFBt9zTSzIjHUK9hr5uQbveeRxpZkMtLMr53tCnAW0if95My5rEfxTr07Uo6PupgR2CrAq+fCbwgKBcFq9MXohRpCHgzqUf+FplzWZ2XkYYO5jph5TxRlmUb0lX0UZne/8kFXz9EOvHWQdFtgXYeY60wmXQrYKhgnFcBDxWMMavg66Uxk0i9xI/OnUiPtiEVKi8njQuvUt1HJwxqOmkxra1JozBGKnzviH36mIAYETYIiFGXbdFKJpNO3EWfmX0gIBcpwjTg86STaZOsCXyDVEyfW+H71n3seVFvIZ2AXkMav16FiAnW6vK5ROThhHM1NYxTx6o9pgAX0LyT/5ippFnhXpE7kZZ5JfA5fOQpPcowaeYvqemGgE+QxrQ32TBwDvDC3Im0zCGkoXmSRg0DV+ZOQgpwKvAvuZMIMoW06JOdp2IdC7w1dxJSXQyTZkSTmmx/0rPeNplJGiJo59hY7wX2zJ2EVAfDpBm05k30g1JNbUpaDrnoSJY6egLpsYbiTCL1s9godyJSbsOkOcA/kzsRaQBDwGdJ86631SuwU2C0jYAP505Cym2sV+wHKT6OX6ra4cDzcidRgQ+Sd7bANno5sG/uJKScxsZnzgNOGW1SE6wF/HfJ7zEfuAT4CXAdcBdp6eBppGfzW5FmSnsusDPlPYbYCPh/wJtKil/UzqT9UsQk0me6KbAtsDuwB+Uuj3smqQ/UohLfQ2qEqeRfKa1oczGg7vgPyjuOLicNG+tnEZMtgHeT5tUoI6dFlLOUcERuEYuBjWdN0siOq4PyHK8dV0LeXw7Iqy6zWI7NoliknV151u0XvhjQYtKzxnuqyV8a2Ezg+BLi3kRayOUZpNn4Hu7jtbcAJwGbk1aki551birtG+kwkQWkDp47kb6b7izhPd5K2rdS56w8M9YtpOdiRW/nSWU6BlgnOOYnSePuLy4Y50HSVdMziJ9k6yjaO3f/6owAXwG2G/0z0makmQKlzhlvaswrSc/e7qo4F6kXQ8DrAuONkJ6tH01/V/wTuYq0FPFlgTGn057JjgYxn3Qn4G3BcY8Njic1wqrmxr4aeArVr0wmTWQ34PFBsUZIxcQZQfFW9gBpSt/IIuCIwFhNdRqxRcAupLsLUqesbnGMu4F9gEOBm6tJR5rQkYGx3kO69V+mh4EXEfc4YHtSr/uuOw34WGA8Cyt1Ti+rY51LWq/8UOA7pImDpByGgAODYl0CnBwUayIPAAeTOtpGeElQnKZ7I/CboFgvDoojNUav6zQvJRUC55KG5uwG7EAa+rQWaVx0UfsCMwLiqL12ADYIiLOY9Nx3WUCsXv2aNKFPxGI0XZj8qBeLgNcCv6D4Ur/bAptQzkgDqZZ6LQBWtIDUNyC6f8BcYMvgmGqXqBPf2aSJfar2HlJP/qIjGHYlFeILCmfUfFeSxt0fGhDruaR1AqROKFo1S1XaLSDGMuB9AXEG8SBwVkCcKaQiQMmpQXEiji+pMSwA1CRPDIgxB7g9IM6gPkUafVDUtgEx2uK3wK8C4rhP1SkWAGqKYdLyuEV9LSBGEbcS03Ftm4AYbXJ+QAwLAHWKBYCaYjPgnwLi/CggRlEROWwdEKNNIvbpY0jTTEudYAGgplg3IMZCUmfT3H4bECNif7TJNcQ8WnG/qjMsANQUawbEuJmYk0RREUXIrIAYbbIQ+HNAHO8AqDMsANQUEV/MdVnk6oGAGJ6o/pH7VeqDBYCaIuL5f+RiP0XcnzuBlopYgnlKQAypESwA1BRDuRMIdDfFZyF0tc5/FHH17uRK6gwLAKl6S4ErCsb4WUQiLTJM6sVf1PyAGFIjWABIeXyl4Ou/GpJFe2xBzGMiCwB1hgWAlMfZDL7wzHeBnwTm0gbPCYixkPR4RuoECwApj4dIC9j0u0TwvaSVDPVo+wTEuIF6DBOVKmEBIOVzGXAEvY9OuBN4IXBLaRk101rAAQFxrg+IITWGBYCU11eAZ7L6qWyXA58DdgGuqiKphjkGmB4QJ2JBIakxJhd47SxSx5tZwLSAXCJ+gaUmuhrYE9iJdCW7NbAO6Xn0r4FvkBYR0j9aG3hTUKw6rBMhVaafAmAasD9wIPBcYNMyEpI67DfErBTYJe8B1g+I8xfc9+qYXgqAWcDxwBuA9cpNR5J6tj/wr0Gx5lB8ciapUSYqAF4OnAlsXEEuktSrHYFziJsh8vNBcaTGWFUBMAX4EKlzjSTVyfbAd0jP/yPcMxpP6pTxCoDpwHnAvhXnIkkT2Qf4IjA7MOYXiFlISGqUlYcBTgbOxZO/pHqZCZwBXEzsyX/xaFypc1a+A/Bu4EU5EpGkcawBHAWcSDl9kT4L/LGEuFLtrVgAPAd4a65EJGnUBsDuwH7Ay0gjkcqwCDi1pNhS7Y0VAJOAs3BmQEn9u4Diz9CnkE70mwHrFs6oN6cDN1f0XlLtjBUAryD1rJWkfu2RO4EB3A6cljsJKaexK/43ZM1CkqqznNSvYGHuRKSchoFtgV1zJyJJFXkvaeY/qdOGiVlHW5Ka4FLgXbmTkOpgGNgtdxKSVIGbgINxzn8JSAXAdrmTkKSS3QW8gLTEsiRSAeBCP5La7C5gb+DWzHlItTIZWDMgzm8oflttB2BaQC5SLlNJk9hsGBBrCelqdR4wEhCvq24GXki6/S9pBZOZeEngXuwJ/KVgjLnAlgG5SFXbE3g96USzRnDsPwEXAu/DSWv69RPgpaTV/iStxJn/pMHNJK2c+QPgJcSf/AEeAxwLXEuaD3+ohPdomxHScuZ74slfWqWIq3+pi2YClwA7V/R+U0nz1m9Kutug8f0ReB3w7dyJSHXnHQBpMJ+hupP/io4jzWKnR1tCuurfHk/+Uk8sAKT+7UFapS6X04HZGd+/TpYCnwd2JE1p/mDedKTmsACQ+ndC5vefDRySOYfc5gNnk6YyPwK4Pm86UvNYAEj9mUKaUCa3/XInkMHDwLeAw4CNgGNIo4ckDcBOgFJ/NgZm5E4C2Cp3AiVbRpq45wbgCuCHwOXAoow5Sa1iASD1Z2buBEatnzuBFbya4kvrLiU9v39g9M9b8WQvlcoCQOrPvNwJjKrTfABfp/hEYJIqZh8AqT/3ArfnTkKSirIAkPozAlyQOwlJKsoCQOrf6cBDuZOQpCIsAKT+3QW8JXcSklSEBYA0mLOA9+BSvZIaygJAGtxJwMHYKVBSAzkMUCrmPOCbwIHA/sDjgQ0neM0U0qp+kpSNBYBU3CPAl0dbL7bEKWwlZeYjAEmSOsgCQJKkDrIAkCSpgywAJEnqIAsASZI6yAJAkqQOsgCQJKmDLADUFMsCYkwKiBEh4vdueUAMlSPis6nLd7PHaovV5SCTJrIwIMaMgBgRZgXEeDAghsrRpmN1ZkAMj9WasgBQU0R8iUw0RW9VNgiI4ZdqfbXpWI3IY0FADJXAAkBNEfGluhkwPSBOUdsExLAAqK+IzybiGIkQkcf8gBgqgQWAmuKPATGGgacFxCnqmQExIvaHynFHQIxnAEMBcYqYCjwlII7Hak1ZAKgpHgDuDoizd0CMIiYDewbEuT4ghspxXUCMDYAnBcQpYndgjYA4Hqs1ZQGgJon4IjmcvFdWewHrB8SJOMmoHFEnvMOC4uR8/+XATQFxVAILADXJ1QExNgf2DYgzqOOC4lwTFEfx5o22ol5NvtEA6wGvCIhzPWm5bNWQBYCa5JKgOCeR5y7ALsB+AXHuBn4fEEfl+VFAjPWBYwPiDOLNxBQfEftBJbEAUJNcQsykIk8HXhUQpx/DwIeJKTwuAUYC4qg8USe+k4CNg2L1amvghKBYPwyKoxJYAKhJ7gN+HRTrA8AWQbF6cSKpZ3eEOUFxVJ7vB8WZBXyG6r6rpwKfA6YFxFpK3F07lcACQE3zpaA4awPnETPT2UT2Af4zKNYi4GtBsVSem4HLg2LtDbwnKNZEPky6Qxbhe6SiXTVlAaCm+SIx6wIA7AxcSLkdrXYnFRqTg+J9C7g/KJbKdU5grH8nPZcv03uBowPjRW6/SjIS0GYH5DE3II+nBuQxJyCPgwLy0KpdTMxxO9Z+QTnPWQ8GHg7O9cDgHOvy+99G6xL/+Z9O/KJW04BPBuf5F+ox62ZbzSbmc6rNF4AFgHq1J7FfViOkYVsHBOU3E/hoCTleS/xdu7r8/rfVWcQfB5cAWwbltz1wZQk5VvXIoqssAMZpFgDd8TPiv7RGgItIjwYGMRV4LXBnSbkdOWBeq1OX3/+22hxYTPyx8BBwCmm8/iA2Bj5YUm4LCuSl3lgAjNMsALpjX+K/uMbactJV1lHAJhPkMYnUaeo0yjvxj5BmU4vqR7Ciuvz+t9mnKe+4WAB8ltTRdKJpe2eSHiF9iTQ5T1k5nd73HlK/QgqAMr5QpCpcPNrKmNVvCNhjtAHcQpp694+kld6mkoZnbU26hTqrhBxWdgJpWJWa5x3AyyjnOJlBujN0JOlq/vfADaSOovOBtUhX41sD21FOEbmiP5PuTKgh6nIF4B0A9etxwELKu5KpS7swaoeNoy6//233BvIfR1W0w6N2mFYr5A6AwwDVZLfR/s5G84mblU35fBS4IncSJZtDGqarhrAAUNOdRrtnxjsWuDV3EipsKenOYFvncJhHml57JHci6p0FgJpuOfBK4K7ciZTgo3hF1Sa3Aa/LnUQJlgNHAH/KnYj6YwGgNrib1MnqodyJBPoR8KbcSSjcebTvsdW/0e67cK1lAaC2uJw0xGlx7kQCXAO8lDTvv9rnJOAjuZMI8l/AmbmT0GAsANQm3wdeQ7OHy11HWvzlgdyJqFQnAF/JnURBnyANcVRDWQCobb5Aunp+OHciA7gCeA5pLLXabRlwGPDx3IkM6EPAMdjpr9EsANRGF5Guopu0FOm3gOcB91T8vg8WfP1y0mx06t8y0iiPd9GcE+lS4Hj+Pq+BGswCQG31E2An4Ke5E5nAMuBk4EWkSY2qdkfB188DlkQk0mFjn3/dC9a7STNvfjh3IophAaA2u4N0VX066URbN7cDzyddAS7PlMOPCr7+ByFZ6JukRaguy53IKlwM7Ii9/VunLlOBOhWwyjR2NyD3VKkjpJEKZ5IWZ8ntmRTblhdWn3KrDZHm9Z9H/uN0hLTAVRmrUKoYVwMcp1kAaHWGgVcTc6wN0pYB5wNPLHtD+3QBg23P93Mk2xHrAGeQ+lfkOFYfAP4TWLPsDdVALADGaRYA6sVk0uyB11DNl+li4POklQPraB3gRvrbpruAx+ZItmPWJ62udz/VHKvzgHeSVhFUfVkAjNMsANSv7YFTKeeW6++BE4ENKtuawT2WNAyxl+26gfrdxWi7acABpLkDFhF7nD5CGjlzEGmpa9WfBcA4zQJAg5oE7Aq8DfguaTheP5/5EtKJ8dOkedE3qTb9ENNJ238v42/jX0gdFr0tnNcsYH/g/cCVpDkv+jlWF5BmzjyV1IdjRrXpK0BIATA0+pei1iF9ORQxF9iyYIxdgF8VjDEH2KtgjIOBrxaMofzWBbYhHZdrkm6LziJdgS0YbfNIt89voh3TEEN6RPJsUq/v9UjD0/4A/Jj2bGObDAObkY7VjUnH6tjx+gB/P1bvIBWpt+dJU4FmE7Cy5OSARKS2ug/42WjrkqXAJaNN9bectGT0rXnTUNM4D4AkSR1kASBJUgdZAEiS1EEWAJIkdZAFgCRJHWQBIElSB1kASJLUQRYAkiR1kAWAJEkdZAEgSVIHWQBIktRBFgCSJHWQBYAkSR1kASBJUgdZAEiS1EEWAJIkdZAFgCRJHWQBIElSB1kASJLUQRYAkiR1kAWAJEkdZAEgSVIHWQBIktRBFgCSJHWQBYAkSR1kASBJUgdZAEiS1EEWAJIkdZAFgCRJHWQBIElSB1kASJLUQRYAkiR10GRgBBgqGOdAYGHBGDMKvl6SJPVoMvAwsEbBOJ8JyEWSJFVkGLg/dxKSJKlaw8BNuZOQJEnVGgauyp2EJEmq1jDww9xJSJKkag0Dc4D7ciciSZKqMwwsBs7JnYgkSarO2ERA7wcW5UxEkiRVZ6wAuAN4X85EJElSdVacCvgU4He5EpEkSdVZsQB4GDgY+GumXCRJUkVWXgzoWtK8/g9lyEWSJFVkvNUALwX2ximCJUlqrVUtB/xTYGfg5xXmIkmSKrKqAgDgNuDZwL8C86pJR5IkVWF1BQDAcuBjwBakQuAXpWckSZJKN7nHn3uYVAh8DNgIeC6wA6kwWAuYFpDLbsD0gDiSJLXZUESQXguAFf0ZODfizVcyF9iyhLiSJLXJegExHp7oEYAkSaqXiIvlBRYAkiQ1y34BMe6yAJAkqTnWBg4NiHObBYAkSc3xLmDdgDhXWwBIktQMRwDHB8W6wgJAkqR6mwS8HfgfYoYALgEuHWQYoCRJKt9apA5//06aeyfKZcB8C4BynAQcnTsJSVIjTQE2BB4/+vdo/x8GmwhIE9txtEmSVCf3AF+DidcCkCRJ7fFJYBFYAEiS1BXzgY+M/cMCQJKkbngX8Kexf1gASJLUfr9nhat/sACQJKntlpBGpi1Z8T9aAEiS1G7HAz9b+T9aAEiS1F4fBD4+3v+wAJAkqZ3OA968qv9pASBJUvt8GHgFsGxVP2ABIElSe4wAJ5Oe+y9f3Q86FbAkSe0wDzgK+GYvP+wdAEmSmm0ZqaPfdvR48gfvAEiS1FTLgfOBdwPX9PtiCwBJkpplCXAGaWGfuYMGsQCQJKlZFgBvKxrEAqAcHwB+XjDG0cBeBWN8EbiwYIxefAaYUTDG/yV1gmOciAAABfhJREFUYCnTjsBJBWPcTMAvXg/q8vkfCBxeMMb3gU8UjNGLU4EtC8YY6FZqnzYkDdEqYiHw6oBcJvJi4LCCMfz8Hy3i82+duaThC0XaUwPymBOQx8EBeZwdkEcVJyqA+wNyLfqL24u9AvK8soI8oT6f/4kBeZwdkEcvrgzItWjR1YstA/K8v4I8IR1Dfv6xavP5OwpAkqQOsgCQJKmDLAAkSeogCwBJkjrIAkCSpA6yAJAkqYMsACRJ6iALAEmSOsgCQJKkDrIAkCSpgywAJEnqIAsASZI6yAJAkqQOsgCQJKmDLAAkSeqgybkTWMHygBgR2zMlIMaygBgR++MlwBYBcSayRkCMU4D5AXFWZ5OAGI+jmvXNdw+IEXEcRsTYnWr22eMCYpwAHBQQZ3VmBcRYg2r26U4BMfz8Hy3i8484P9SqAFgYEGOjgBgbB8R4MCBGxP7YdbQ1wSG5E+jResDRuZPoUV2OwyeOtibYL3cCPZpGc45DP/94IRdLdXoEEPFl9eSCr1+LmCpyQUCMeQEx1G0Rx5DHoVQ/d0cEqVMBcFdAjJcUfP1+wNSAPCK25fqAGOq2iGPI41Cqn5DfyzoVADcExNgJ2HfA104C/j0gh4eB2wPiXA6MBMRRNz1AzJfEdaOxJNXHzyOC1KkA+ENQnDOBdQZ43YnADgHvfz0xHTTuBn4bEEfd9H3iOgH+MCCOpDhzIoLUqQC4LCjOVsDXgLX7eM0RwLuD3v/HQXEAvhAYS93yxcBYHodSffwCmJs7iTJcT7rtHdGuA549wfutDXyQdMUe9b4HFtkBK1mf1KEwKjdbN9otxAxnHTMFuK0G22Wz2dIFa4hJUYGCbAbsFhRrPeA1pCJgDf5+W35j4GnA8cAngecBQ0HvuQA4DlgcFO8hYDbwrKB46oa3AlcExlsOPALsHxhTUv9uAI4laB6AqBNflB1p9nPvc4Ajg2POAq4lZn4Ctd+vgKcT8/x/RZOAXwI7B8eV1Lt9gO9GBatTHwCAa0jPN5rqUyXEnA+8mqCKT622kFSARp/8GY15JOmulKTqfZzAkz/U7xEAwL00Z1a4Ff0U+I+SYs8FlgDPLym+mm856QR9SYnvcQ9wM/BS6nf3UGqznwKHA0sjg9axALgeeDEx0/pW6bWU2zPzJ8Ca2B9A/2g58HrgsxW81+9IRfo/YxEgVeEq0vw2EbPlNsLuxPbML7tdWM5uGNdbSFVg7m221aMtAA6meoeQHjnk3n6brc3tYmAmHfRp8u/8XtqDxKwf0I89SHcbcm+7LW+7EtiOfHYgXZ3k3g82W9vaQ6TRPJ29yzaTNOQh9wcxUXtlWTtgAtOBt5Oey+beB7Zq2y2kR051eIQ3CTgG5wmw2SLaEuBzVLOMe+3tRL1vM36ivE3v2QxS569vU+99ZSvW7ge+SuofEznJT5QppM6B5wN/If/+stma0paR7qSdRMV3k5twe2E/0jP2ybkTWcl3gBeRKra6mApsD2xNWg9hVt50VNADpDs815E6x5YxvK8Mk4BtgW1Is1n2My231AWPAH8lPcr9Halo1iq8knSizV2pjbUfk668JUlSyQ4gdYzIffL/Bun5uyRJqsiupA5QOU78y4H/oh4dryRJ6pzZwJep9uR/J2kOZkmSlNk+lD9McDFwBh2diEGSpLoaBg4C/kDsiX8RaSzmE6rbFEmS1K9h4Lmk2QPvZ7CT/jLg56Q51derNHtJkirWhHkA+jWJNIHQHqQx8dsCm5DGxK8FPEyaP/0+0iOEG4DLgUtJxYMkSZIkSZIkSZIkSZIkSZIkSZIkSZIkSZIkSZIkSZIkSZIkSZIkSZIkSZIkSZIkSZIkSZIkSZIkSZIkSZIkSZIkSZIkSZIkSZIkSZIkSZIkSZIkSZIkSZIkSZIkSZIkSZIkSZIkSZIkSZIkSZIkSZIkSZIkSZIkSZIkSZIkSZIkSZIkSZIkSZIkSZIkSZIkSZIkSZIkSZIkSZIkSZIkSZIkSZIkSZIkSZIkSZIkSZIkSZIkSZIkSZIkSZIkSZIkSZKkHv0vENhXsC64MN4AAAAASUVORK5CYII=;" vertex="1" parent="1">
          <mxGeometry x="220" y="500" width="40" height="40" as="geometry" />
        </mxCell>
      </root>
    </mxGraphModel>
  </diagram>
</mxfile>
